<svg viewBox="0 0 62 39" fill="currentColor" xmlns="https://www.w3.org/2000/svg" class="main-header-logo">
  <path d="M33.25.055 2.147 19.635c-1.465.886-2.18 1.878-2.146 2.977v2.98c.035 1.1.768 2.075 2.2 2.926l15.393 8.885a.726.726 0 0 0 1.047-.373l3.456-8.352-7.33-4.15a1.316 1.316 0 0 1-.697-.976 1.345 1.345 0 0 1 .644-1.365l13.457-8.247L33.721.428a.324.324 0 0 0-.104-.36.31.31 0 0 0-.369-.013h.002Z"/>
  <path d="M58.8 10.962 43.618 1.758a.726.726 0 0 0-1.047.32l-3.56 8.352 7.225 4.31c.208.113.381.282.502.488a1.347 1.347 0 0 1 0 1.363c-.12.205-.293.375-.502.49l-13.56 7.98-5.76 13.407a.323.323 0 0 0 .131.515.31.31 0 0 0 .34-.09l9.948-6.011 3.927 5.64a.945.945 0 0 0 .785.425h9.425a.932.932 0 0 0 .832-.506.97.97 0 0 0-.047-.984l-6.388-9.79 12.933-7.82c1.466-.887 2.2-1.88 2.2-2.98V13.94c0-1.1-.734-2.092-2.2-2.98H58.8Z"/>
</svg>
