<svg xmlns="http://www.w3.org/2000/svg" viewBox="0 0 258 39" fill="currentColor">
  <path d="M71.358 27.688A8.076 8.076 0 0 1 69 22c0-2.122.846-4.162 2.358-5.687a8.022 8.022 0 0 1 2.664-1.688 8.175 8.175 0 0 1 3.126-.543 8.298 8.298 0 0 1 4.723 1.339 7.154 7.154 0 0 1 2.895 3.79H80.12a3 3 0 0 0-1.182-1.282 3.106 3.106 0 0 0-1.713-.427 4.128 4.128 0 0 0-1.694.264 4.047 4.047 0 0 0-1.43.926 5.197 5.197 0 0 0-1.133 3.234c0 1.17.4 2.309 1.134 3.234.403.405.89.72 1.43.926.54.205 1.117.295 1.693.264a3.114 3.114 0 0 0 1.684-.364 3.01 3.01 0 0 0 1.211-1.198h4.571a7.156 7.156 0 0 1-2.895 3.792 8.298 8.298 0 0 1-4.723 1.338 8.174 8.174 0 0 1-3.085-.557 8.021 8.021 0 0 1-2.629-1.673Zm17.294 0A8.077 8.077 0 0 1 86.293 22c0-2.122.846-4.162 2.36-5.687a8.57 8.57 0 0 1 5.79-2.238c2.15 0 4.22.8 5.789 2.238A8.075 8.075 0 0 1 102.59 22a8.074 8.074 0 0 1-2.359 5.688 8.49 8.49 0 0 1-5.79 2.266 8.491 8.491 0 0 1-5.79-2.266h.001Zm8.837-2.454A5.197 5.197 0 0 0 98.623 22c0-1.17-.4-2.308-1.134-3.234a4.398 4.398 0 0 0-3.048-1.22c-1.14 0-2.234.439-3.047 1.22a5.197 5.197 0 0 0-1.134 3.234c0 1.17.4 2.309 1.134 3.234a4.398 4.398 0 0 0 3.047 1.219c1.14 0 2.235-.438 3.048-1.22Zm13.103-10.93a9.125 9.125 0 0 1 6.247 2.157 7.729 7.729 0 0 1 1.8 2.546 7.577 7.577 0 0 1 0 6.06 7.729 7.729 0 0 1-1.8 2.546 9.049 9.049 0 0 1-6.247 2.156h-5.561V14.305h5.561Zm-1.752 12.64h1.752a4.596 4.596 0 0 0 1.903-.294 4.5 4.5 0 0 0 1.602-1.044 4.913 4.913 0 0 0 1.295-3.569 4.91 4.91 0 0 0-1.295-3.568 4.498 4.498 0 0 0-1.602-1.044 4.594 4.594 0 0 0-1.903-.294h-1.752v9.813Zm22.473-12.713v2.9h-5.714v3.345h5.104v2.9H125.6v3.568h5.714v2.9h-9.599V14.23h9.598Zm7.237 9.516v6.022h-3.885V14.305h6.247a6.19 6.19 0 0 1 4.266 1.413c.486.418.874.933 1.137 1.51.263.578.395 1.204.387 1.836a4.75 4.75 0 0 1-.838 2.602 4.577 4.577 0 0 1-2.743 1.784l3.885 6.32h-4.418l-3.58-6.023h-.458Zm0-6.616v3.717h2.362a1.858 1.858 0 0 0 1.372-.52 1.82 1.82 0 0 0 .532-1.339 1.815 1.815 0 0 0-.533-1.338 1.867 1.867 0 0 0-1.371-.52h-2.362Zm16.608-.075a1.86 1.86 0 0 0-1.22.372 1.339 1.339 0 0 0-.363.505c-.08.193-.111.402-.093.61a1.531 1.531 0 0 0 .457 1.115c.32.31.712.539 1.143.67l1.523.445 1.676.52 1.524.744c.487.317.881.753 1.143 1.264.31.6.466 1.262.457 1.933a4.228 4.228 0 0 1-.45 1.859 4.337 4.337 0 0 1-1.226 1.487 6.424 6.424 0 0 1-4.343 1.412 6.901 6.901 0 0 1-4.342-1.263 4.337 4.337 0 0 1-1.278-1.588 4.23 4.23 0 0 1-.398-1.981h4.114c-.012.253.032.507.128.742a1.797 1.797 0 0 0 1.09 1.02c.245.084.504.117.762.097.475.02.94-.14 1.296-.447a1.375 1.375 0 0 0 .457-1.115 1.45 1.45 0 0 0-.457-1.115 2.979 2.979 0 0 0-1.143-.67l-1.524-.445-1.676-.52-1.523-.744a3.15 3.15 0 0 1-1.143-1.264 4 4 0 0 1-.305-1.86 4.159 4.159 0 0 1 .407-1.943c.294-.61.73-1.142 1.27-1.55a6.581 6.581 0 0 1 4.19-1.338 6.981 6.981 0 0 1 4.113 1.115c.547.42.985.964 1.278 1.588a4.21 4.21 0 0 1 .398 1.98h-4.19a2.056 2.056 0 0 0-.533-1.263 1.613 1.613 0 0 0-1.22-.372h.001Zm13.103 6.69v6.023h-3.885V14.305h6.247a6.19 6.19 0 0 1 4.266 1.413c.486.418.874.933 1.137 1.51.263.578.395 1.204.387 1.836a4.75 4.75 0 0 1-.838 2.602 4.577 4.577 0 0 1-2.743 1.784l3.885 6.32H172.3l-3.58-6.023h-.459Zm0-6.615v3.717h2.362a1.858 1.858 0 0 0 1.372-.52 1.82 1.82 0 0 0 .532-1.339 1.815 1.815 0 0 0-.533-1.338 1.867 1.867 0 0 0-1.371-.52h-2.362Zm21.331 12.638-.914-2.602h-5.714l-.914 2.602h-4.114l5.485-15.538h4.723l5.485 15.538h-4.037Zm-5.638-5.501h3.733l-1.828-5.428-1.905 5.428Zm22.018-10.037h3.885v15.538h-3.885l-6.476-9.813v9.813h-3.885V14.23h3.885l6.476 9.814V14.23Zm11.121 15.538h-3.885V14.305h3.885v6.766l5.257-6.766h5.104l-6.552 7.732 6.552 7.732h-4.952l-5.333-6.84-.076 6.84Zm15.77-2.007a1.982 1.982 0 0 1-.5 1.253c-.312.35-.734.584-1.197.664a2.1 2.1 0 0 1-1.359-.222 2.028 2.028 0 0 1-.91-1.01 1.966 1.966 0 0 1-.054-1.342c.141-.44.433-.82.827-1.076a2.096 2.096 0 0 1 2.583.246 1.969 1.969 0 0 1 .61 1.487Z"/>
  <path d="M235.301 29.769V14.305h3.885v15.464h-3.885Zm8.761-2.081A8.077 8.077 0 0 1 241.704 22c0-2.122.846-4.162 2.358-5.687a8.57 8.57 0 0 1 5.79-2.238c2.151 0 4.222.8 5.79 2.238A8.075 8.075 0 0 1 258 22a8.073 8.073 0 0 1-2.358 5.688 8.491 8.491 0 0 1-5.79 2.266 8.491 8.491 0 0 1-5.79-2.266Zm8.837-2.454A5.19 5.19 0 0 0 254.033 22c0-1.17-.399-2.308-1.134-3.234a4.397 4.397 0 0 0-3.047-1.22c-1.14 0-2.235.439-3.047 1.22a5.202 5.202 0 0 0-1.134 3.234c0 1.17.399 2.309 1.134 3.234a4.399 4.399 0 0 0 3.047 1.219c1.14 0 2.235-.438 3.047-1.22Z"/>
  <path d="M33.25.055 2.147 19.635c-1.465.886-2.18 1.878-2.146 2.977v2.98c.035 1.1.768 2.075 2.2 2.926l15.393 8.885a.726.726 0 0 0 1.047-.373l3.456-8.352-7.33-4.15a1.316 1.316 0 0 1-.697-.976 1.345 1.345 0 0 1 .644-1.365l13.457-8.247L33.721.428a.324.324 0 0 0-.104-.36.31.31 0 0 0-.369-.013h.002Z"/>
  <path d="M58.8 10.962 43.618 1.758a.726.726 0 0 0-1.047.32l-3.56 8.352 7.225 4.31c.208.113.381.282.502.488a1.347 1.347 0 0 1-.502 1.853l-13.56 7.98-5.76 13.407a.323.323 0 0 0 .131.515.311.311 0 0 0 .34-.09l9.948-6.011 3.927 5.64a.947.947 0 0 0 .785.425h9.425a.932.932 0 0 0 .832-.506.97.97 0 0 0-.047-.984l-6.388-9.79 12.933-7.82c1.466-.887 2.2-1.88 2.2-2.98V13.94c0-1.1-.734-2.092-2.2-2.98H58.8Z"/>
</svg>
