<svg xmlns="http://www.w3.org/2000/svg" viewBox="0 0 63 18">
  <path fill="currentColor" d="M12.848,8h-5.145a0.243,0.243,0,0,0,-0.242,0.243v2.527c0,0.137,0.11,0.242,0.242,0.242h2.008v3.14s-0.453,0.157,-1.7,0.157c-1.468,0,-3.523,-0.539,-3.523,-5.078c0,-4.54,2.137,-5.137,4.145,-5.137c1.742,0,2.488,0.309,2.965,0.457c0.152,0.047,0.289,-0.105,0.289,-0.238l0.573,-2.441a0.222,0.222,0,0,0,-0.09,-0.188c-0.195,-0.14,-1.375,-0.805,-4.36,-0.805c-3.435,0.001,-6.958,1.471,-6.958,8.528c-0.002,7.062,4.034,8.113,7.436,8.113c2.817,0,4.524,-1.207,4.524,-1.207c0.07,-0.04,0.078,-0.14,0.078,-0.184v-7.886a0.243,0.243,0,0,0,-0.242,-0.243m26.53,-6.273a0.241,0.241,0,0,0,-0.237,-0.246h-2.899a0.241,0.241,0,0,0,-0.238,0.246v5.625h-4.52v-5.625a0.241,0.241,0,0,0,-0.238,-0.246h-2.898a0.241,0.241,0,0,0,-0.239,0.246v15.234a0.24,0.24,0,0,0,0.239,0.243h2.898a0.24,0.24,0,0,0,0.238,-0.243v-6.515h4.52l-0.008,6.515a0.24,0.24,0,0,0,0.238,0.243h2.907a0.24,0.24,0,0,0,0.238,-0.243v-15.234m-21.059,1.996c0,-1.047,-0.84,-1.894,-1.87,-1.894c-1.032,0,-1.868,0.847,-1.868,1.894c0,1.05,0.836,1.899,1.867,1.899c1.031,0,1.871,-0.848,1.871,-1.899m-0.207,10.024v-7.032a0.243,0.243,0,0,0,-0.242,-0.242h-2.887c-0.132,0,-0.254,0.137,-0.254,0.27v10.074c0,0.297,0.184,0.383,0.422,0.383h2.606c0.285,0,0.355,-0.14,0.355,-0.387v-3.066m32.282,-7.25h-2.875a0.238,0.238,0,0,0,-0.239,0.242v7.468s-0.73,0.54,-1.77,0.54c-1.034,0,-1.312,-0.473,-1.312,-1.497v-6.51a0.238,0.238,0,0,0,-0.238,-0.242h-2.918a0.24,0.24,0,0,0,-0.242,0.242v7.008c0,3.027,1.683,3.77,3.996,3.77c1.894,0,3.426,-1.052,3.426,-1.052s0.074,0.555,0.105,0.617a0.248,0.248,0,0,0,0.211,0.133l1.86,-0.008c0.128,0,0.238,-0.109,0.238,-0.242v-10.226a0.24,0.24,0,0,0,-0.242,-0.242m6.726,8.238c-0.996,-0.031,-1.672,-0.485,-1.672,-0.485v-4.825s0.668,-0.41,1.485,-0.484c1.035,-0.094,2.035,0.223,2.035,2.703c0,2.617,-0.45,3.133,-1.848,3.09zm1.137,-8.582c-1.633,0,-2.746,0.73,-2.746,0.73v-5.157a0.241,0.241,0,0,0,-0.239,-0.246h-2.906a0.244,0.244,0,0,0,-0.242,0.246v15.234c0,0.133,0.11,0.243,0.242,0.243h2.016c0.09,0,0.16,-0.047,0.21,-0.13c0.052,-0.081,0.122,-0.702,0.122,-0.702s1.191,1.132,3.441,1.132c2.64,0,4.157,-1.347,4.157,-6.043c0,-4.695,-2.422,-5.308,-4.055,-5.308m-31.817,0.316h-2.171l-0.004,-2.883c0,-0.109,-0.059,-0.164,-0.184,-0.164h-2.96c-0.118,0,-0.18,0.051,-0.18,0.16v2.985s-1.485,0.36,-1.583,0.387a0.244,0.244,0,0,0,-0.175,0.234v1.871c0,0.137,0.109,0.242,0.242,0.242h1.515v4.508c0,3.348,2.34,3.68,3.918,3.68c0.72,0,1.582,-0.235,1.727,-0.29c0.086,-0.03,0.133,-0.12,0.133,-0.214l0.004,-2.063a0.245,0.245,0,0,0,-0.239,-0.242c-0.129,0,-0.453,0.05,-0.785,0.05c-1.07,0,-1.43,-0.5,-1.43,-1.144v-4.285h2.172a0.24,0.24,0,0,0,0.243,-0.242v-2.348a0.243,0.243,0,0,0,-0.243,-0.242"/>
</svg>
