<svg xmlns="https://www.w3.org/2000/svg" viewBox="0 0 63 18">
  <path fill="currentColor" d="M12.848 8H7.703a.243.243 0 0 0-.242.243v2.527c0 .137.11.242.242.242h2.008v3.14s-.453.157-1.7.157c-1.468 0-3.523-.539-3.523-5.078 0-4.54 2.137-5.137 4.145-5.137 1.742 0 2.488.309 2.965.457.152.047.289-.105.289-.238l.573-2.441a.222.222 0 0 0-.09-.188c-.195-.14-1.375-.805-4.36-.805C4.575.88 1.052 2.35 1.052 9.407c-.002 7.062 4.034 8.113 7.436 8.113 2.817 0 4.524-1.207 4.524-1.207.07-.04.078-.14.078-.184V8.243A.243.243 0 0 0 12.848 8m26.53-6.273a.241.241 0 0 0-.237-.246h-2.899a.241.241 0 0 0-.238.246v5.625h-4.52V1.727a.241.241 0 0 0-.238-.246h-2.898a.241.241 0 0 0-.239.246v15.234a.24.24 0 0 0 .239.243h2.898a.24.24 0 0 0 .238-.243v-6.515h4.52l-.008 6.515a.24.24 0 0 0 .238.243h2.907a.24.24 0 0 0 .238-.243V1.727M18.32 3.723c0-1.047-.84-1.894-1.87-1.894-1.032 0-1.868.847-1.868 1.894 0 1.05.836 1.899 1.867 1.899 1.031 0 1.871-.848 1.871-1.899m-.207 10.024V6.715a.243.243 0 0 0-.242-.242h-2.887c-.132 0-.254.137-.254.27v10.074c0 .297.184.383.422.383h2.606c.285 0 .355-.14.355-.387v-3.066m32.282-7.25H47.52a.238.238 0 0 0-.239.242v7.468s-.73.54-1.77.54c-1.034 0-1.312-.473-1.312-1.497V6.74a.238.238 0 0 0-.238-.242h-2.918a.24.24 0 0 0-.242.242v7.008c0 3.027 1.683 3.77 3.996 3.77 1.894 0 3.426-1.052 3.426-1.052s.074.555.105.617a.248.248 0 0 0 .211.133l1.86-.008a.243.243 0 0 0 .238-.242V6.74a.24.24 0 0 0-.242-.242m6.726 8.238c-.996-.031-1.672-.485-1.672-.485V9.426s.668-.41 1.485-.484c1.035-.094 2.035.223 2.035 2.703 0 2.617-.45 3.133-1.848 3.09zm1.137-8.582c-1.633 0-2.746.73-2.746.73V1.727a.241.241 0 0 0-.239-.246h-2.906a.244.244 0 0 0-.242.246v15.234c0 .133.11.243.242.243h2.016c.09 0 .16-.047.21-.13.052-.081.122-.702.122-.702s1.191 1.132 3.441 1.132c2.64 0 4.157-1.347 4.157-6.043 0-4.695-2.422-5.308-4.055-5.308m-31.817.316H24.27l-.004-2.883c0-.109-.059-.164-.184-.164h-2.96c-.118 0-.18.051-.18.16v2.985s-1.485.36-1.583.387a.244.244 0 0 0-.175.234v1.871a.24.24 0 0 0 .242.242h1.515v4.508c0 3.348 2.34 3.68 3.918 3.68.72 0 1.582-.235 1.727-.29.086-.03.133-.12.133-.214l.004-2.063a.245.245 0 0 0-.239-.242c-.129 0-.453.05-.785.05-1.07 0-1.43-.5-1.43-1.144V9.301h2.172a.24.24 0 0 0 .243-.242V6.711a.243.243 0 0 0-.243-.242"/>
</svg>
