<svg xmlns="http://www.w3.org/2000/svg" enable-background="new 0 0 55.2 14" version="1.1" viewBox="0 0 55.2 14" xml:space="preserve"  fill="currentColor">
  <title>LinkedIn logo</title>
  <polygon points="0 2.1 2.2 2.1 2.2 9.9 6.2 9.9 6.2 11.9 0 11.9"></polygon>
  <path d="m7.1 5.2h2.1v6.7h-2.1v-6.7zm1.1-3.3c0.7 0 1.2 0.5 1.2 1.2s-0.6 1.2-1.2 1.2-1.2-0.5-1.2-1.2 0.5-1.2 1.2-1.2"></path>
  <polygon points="17.9 2.1 19.9 2.1 19.9 8 22.3 5.2 24.8 5.2 22.1 8.3 24.8 11.9 22.2 11.9 20 8.6 19.9 8.6 19.9 11.9 17.9 11.9"></polygon>
  <path d="m10.3 5.2h2v0.9c0.4-0.7 1.2-1.1 2-1.1 2.1 0 2.5 1.4 2.5 3.2v3.7h-2.1v-3.2c0-0.8 0-1.8-1.1-1.8s-1.2 0.8-1.2 1.7v3.3h-2.1v-6.7z"></path>
  <path d="m29.2 7.8c0-0.7-0.5-1.3-1.2-1.3h-0.1c-0.8 0-1.4 0.5-1.5 1.3h2.8zm1.8 3c-0.7 0.8-1.7 1.3-2.8 1.3-2.1 0-3.7-1.4-3.7-3.5s1.5-3.6 3.6-3.6c1.9 0 3.2 1.4 3.2 3.5v0.7h-4.8c0.1 0.8 0.8 1.3 1.6 1.3 0.6 0 1.2-0.3 1.5-0.8l1.4 1.1z"></path>
  <path d="m35.6 6.9c-1 0-1.7 0.7-1.7 1.7s0.6 1.7 1.7 1.7 1.7-0.7 1.7-1.7-0.7-1.7-1.7-1.7m3.6 5h-1.9v-0.9c-0.5 0.7-1.2 1-2.1 1.1-2 0-3.3-1.4-3.3-3.5 0-1.9 1.1-3.6 3-3.6 0.9 0 1.7 0.2 2.1 0.9v-3.8h2.1l0.1 9.8z"></path>
  <path d="m54.2 0h-11.9c-0.6 0-1 0.4-1 1v12c0 0.6 0.5 1 1 1h11.9c0.6 0 1-0.4 1-1v-12c0-0.6-0.4-1-1-1zm-8.8 11.9h-2.1v-6.7h2.1v6.7zm-1-7.6c-0.7 0-1.2-0.5-1.2-1.2s0.5-1.2 1.2-1.2 1.2 0.5 1.2 1.2-0.6 1.2-1.2 1.2zm8.8 7.6h-2.1v-3.2c0-0.8 0-1.8-1.1-1.8s-1.2 0.8-1.2 1.7v3.3h-2.1v-6.7h2v0.9c0.4-0.7 1.2-1.1 2-1.1 2.1 0 2.5 1.4 2.5 3.2v3.7z"></path>
</svg>
