
<svg width="370" height="370" viewBox="0 0 370 370" fill="none" xmlns="https://www.w3.org/2000/svg" xmlns:xlink="https://www.w3.org/1999/xlink">
  <circle cx="185" cy="185" r="185" fill="#FECB00"/>
  <rect x="295.566" y="253.652" width="27.0996" height="22.4023" fill="#D6332C"/>
  <rect x="312.549" y="253.652" width="3.61328" height="22.4023" fill="white" fill-opacity="0.5"/>
  <rect x="317.969" y="253.652" width="2.5293" height="22.4023" fill="white" fill-opacity="0.5"/>
  <rect x="305.684" y="135.498" width="10.1172" height="118.154" fill="white"/>
  <rect x="311.104" y="135.498" width="4.69727" height="118.154" fill="#E5E5E5" fill-opacity="0.5"/>
  <circle cx="310.742" cy="135.498" r="15.5371" fill="#E10101"/>
  <path fill-rule="evenodd" clip-rule="evenodd" d="M305.322 149.229C313.903 149.229 320.859 142.272 320.859 133.691C320.859 127.848 317.633 122.758 312.865 120.105C320.442 121.14 326.279 127.637 326.279 135.498C326.279 144.079 319.323 151.035 310.742 151.035C308.005 151.035 305.433 150.327 303.199 149.085C303.894 149.18 304.602 149.229 305.322 149.229Z" fill="#CB0101"/>
  <circle cx="304.238" cy="130.801" r="3.61328" fill="white"/>
  <circle cx="185" cy="122.852" r="60.8789" fill="#F7941E" stroke="#F05929" stroke-width="30"/>
  <rect x="79.8535" y="115.264" width="210.293" height="139.473" fill="#3AA6D8"/>
  <rect x="104.727" y="142.305" width="160.547" height="85.3906" fill="white" stroke="#D0D2D4" stroke-width="10"/>
  <rect x="72.9883" y="92.5" width="224.023" height="22.7637" fill="#EA492C"/>
  <path d="M290.146 143.447C290.146 143.447 291.044 151.821 294.538 155.315C298.033 158.81 306.406 159.707 306.406 159.707C306.406 159.707 298.033 160.604 294.538 164.099C291.044 167.593 290.146 175.967 290.146 175.967C290.146 175.967 289.249 167.593 285.755 164.099C282.26 160.604 273.887 159.707 273.887 159.707C273.887 159.707 282.26 158.81 285.755 155.315C289.249 151.821 290.146 143.447 290.146 143.447Z" fill="white"/>
  <path d="M99.7266 55.2832C99.7266 55.2832 100.624 63.6569 104.118 67.1514C107.613 70.6458 115.986 71.543 115.986 71.543C115.986 71.543 107.613 72.4401 104.118 75.9346C100.624 79.4291 99.7266 87.8027 99.7266 87.8027C99.7266 87.8027 98.8294 79.4291 95.335 75.9346C91.8405 72.4401 83.4668 71.543 83.4668 71.543C83.4668 71.543 91.8405 70.6458 95.335 67.1514C98.8294 63.6569 99.7266 55.2832 99.7266 55.2832Z" fill="white"/>
  <rect x="103.34" y="92.8613" width="163.32" height="22.4023" fill="#D6332C"/>
  <rect x="115.986" y="92.8613" width="2.89062" height="22.4023" fill="white" fill-opacity="0.5"/>
  <rect x="122.129" y="92.8613" width="11.5625" height="22.4023" fill="white" fill-opacity="0.5"/>
  <rect x="243.174" y="92.8613" width="2.89062" height="22.4023" fill="white" fill-opacity="0.5"/>
  <rect x="249.316" y="92.8613" width="11.5625" height="22.4023" fill="white" fill-opacity="0.5"/>
  <circle cx="145.977" cy="104.062" r="7.58789" fill="#F9ED32"/>
  <circle cx="173.438" cy="104.062" r="7.58789" fill="#F9ED32" fill-opacity="0.75"/>
  <circle cx="200.898" cy="104.062" r="7.58789" fill="#F9ED32" fill-opacity="0.5"/>
  <circle cx="228.359" cy="104.062" r="7.58789" fill="#F9ED32" fill-opacity="0.25"/>
  <rect x="65.4004" y="245.703" width="240.283" height="46.6113" rx="23.3057" fill="#DA332C"/>
  <rect x="64.6777" y="241.367" width="240.283" height="46.6113" rx="23.3057" fill="#EA492C"/>
  <rect x="76.2402" y="250.762" width="217.158" height="27.8223" rx="13.9111" fill="white"/>
  <path fill-rule="evenodd" clip-rule="evenodd" d="M90.1514 250.762C82.4685 250.762 76.2402 256.99 76.2402 264.673C76.2402 264.733 76.2406 264.793 76.2414 264.854H293.397C293.398 264.793 293.398 264.733 293.398 264.673C293.398 256.99 287.17 250.762 279.487 250.762H90.1514Z" fill="#E5E5E5" fill-opacity="0.5"/>
  <rect x="212" y="160" width="36" height="47" fill="#E5E5E5" fill-opacity="0.25"/>
  <rect x="230" y="160" width="18" height="47" fill="#E5E5E5" fill-opacity="0.5"/>
  <rect x="167" y="160" width="36" height="47" fill="#E5E5E5" fill-opacity="0.25"/>
  <rect x="185" y="160" width="18" height="47" fill="#E5E5E5" fill-opacity="0.5"/>
  <rect x="122" y="160" width="36" height="47" fill="#E5E5E5" fill-opacity="0.25"/>
  <rect x="140" y="160" width="18" height="47" fill="#E5E5E5" fill-opacity="0.5"/>
</svg>
