P2
64 64
255
163 157 97 84 80 86 75 64 72 73 72 76 74 69 74 76 79 81 77 63 72 97 94 103 89 91 103 102 95 91 87 85 85 77 77 72 83 83 90 94 95 96 89 98 106 108 101 87 92 88 114 160 164 165 164 164 169 105 84 47 65 73 57 60 
225 214 107 81 71 75 73 75 78 81 86 80 88 91 81 80 87 80 72 62 74 94 93 89 94 102 92 102 100 91 97 103 87 79 79 74 84 89 88 100 96 85 91 99 91 96 94 80 80 81 106 155 163 163 164 163 173 118 87 60 61 78 57 57 
253 245 114 82 69 72 68 81 83 79 79 96 102 97 97 101 96 86 79 66 69 98 98 100 107 99 99 106 103 98 107 114 112 108 114 87 72 75 84 87 82 85 78 89 91 92 94 73 71 73 98 160 175 171 173 169 173 134 90 64 65 96 68 58 
248 235 110 80 72 78 62 69 82 82 88 85 88 85 81 80 85 77 71 59 79 113 107 106 101 94 101 100 98 96 88 97 104 106 109 90 77 77 62 64 70 70 68 86 91 94 95 71 71 70 95 206 247 236 238 236 186 150 92 72 49 78 68 56 
250 234 107 87 82 81 69 69 84 92 94 84 74 84 90 93 93 81 73 57 72 112 103 88 94 110 98 105 108 103 103 119 104 101 104 93 72 80 75 79 81 81 81 88 81 95 101 86 77 83 92 190 255 244 245 251 196 161 93 75 49 88 82 59 
251 230 105 83 86 87 71 68 72 77 74 90 85 77 89 95 83 80 81 64 59 91 90 96 100 86 102 111 113 120 125 126 123 120 115 113 95 88 91 88 86 88 88 91 83 90 95 87 87 94 89 167 255 242 242 250 201 166 101 80 52 91 96 72 
252 225 106 78 89 95 80 77 77 77 86 76 79 96 92 94 93 84 77 68 69 88 89 89 111 119 125 112 100 99 112 124 125 122 114 112 112 126 117 99 117 116 97 104 97 80 80 73 83 86 84 148 255 242 243 251 212 169 114 83 54 78 93 78 
253 219 107 77 71 82 76 75 85 85 80 82 76 86 99 94 89 78 88 95 61 95 101 115 116 117 108 95 95 85 93 110 114 117 113 106 109 105 127 112 114 121 108 91 91 83 72 66 67 73 75 131 251 244 243 250 225 174 128 86 60 65 81 68 
254 216 102 71 69 74 57 70 83 86 77 74 82 85 96 100 85 80 84 79 95 107 109 110 99 95 94 94 95 81 79 96 115 113 102 95 107 112 123 120 92 86 91 94 89 74 72 64 61 67 69 116 239 247 245 248 237 177 140 88 68 55 75 67 
254 211 97 78 85 87 76 74 80 84 89 78 73 83 83 82 83 75 81 106 103 104 115 113 104 95 85 89 109 114 123 129 85 49 64 94 132 150 143 109 104 100 80 81 99 98 68 61 64 87 83 103 225 248 243 245 245 183 150 91 76 50 76 73 
255 209 94 76 80 81 71 75 76 79 85 84 83 79 79 75 69 88 98 100 105 110 102 105 105 98 100 125 156 134 81 34 17 14 15 22 37 69 135 143 134 115 89 83 75 85 102 86 74 83 88 95 207 252 241 243 248 188 158 95 80 47 66 69 
240 185 88 64 77 90 66 66 85 84 85 81 80 85 87 83 80 86 96 94 112 110 95 114 127 127 118 82 30 8 4 4 5 5 4 4 4 5 11 27 79 137 134 102 75 56 75 99 69 72 84 84 186 255 240 241 249 198 163 104 83 51 76 76 
92 88 95 82 83 93 85 65 79 80 80 80 86 94 93 79 71 90 102 106 118 135 154 151 93 37 12 10 18 29 36 34 28 26 28 28 32 30 21 11 6 14 57 103 117 102 86 89 95 90 95 79 148 248 236 242 252 212 165 114 81 54 71 84 
30 36 40 36 35 36 34 50 71 75 73 77 84 78 75 61 74 88 100 126 144 142 89 23 8 20 44 49 30 16 11 8 7 7 7 8 10 17 27 39 45 28 10 8 37 87 128 116 110 102 85 84 73 85 89 91 97 94 84 74 74 65 64 83 
9 9 9 8 8 7 9 37 63 76 76 71 83 84 55 62 64 75 115 124 83 24 6 18 49 35 12 4 4 4 5 6 6 6 6 5 5 4 4 4 8 23 46 30 7 5 26 51 67 83 43 29 34 33 32 31 32 33 33 32 35 39 40 39 
32 31 28 28 31 31 42 67 85 87 97 104 109 78 42 54 69 84 66 29 6 8 38 33 9 4 5 6 6 6 7 7 8 8 8 7 7 7 7 6 5 4 4 14 44 22 4 6 13 27 24 7 7 7 7 8 8 8 8 8 8 8 7 7 
60 58 59 74 80 87 86 94 99 94 108 116 92 45 39 53 58 28 9 3 13 33 14 4 5 6 6 6 6 7 7 8 9 9 9 9 8 7 6 6 6 6 5 3 4 22 33 4 5 7 24 41 37 35 29 30 35 34 36 38 32 31 32 32 
81 78 83 86 83 89 94 92 98 104 98 104 73 36 41 27 10 5 3 19 24 5 4 6 6 6 6 7 7 8 8 9 9 9 10 10 9 8 7 6 6 5 5 5 4 3 10 22 4 4 8 64 78 72 75 73 72 65 68 67 62 59 64 68 
90 96 90 87 85 89 99 89 81 84 86 87 48 34 32 8 5 3 17 18 4 5 5 6 6 7 8 10 11 12 13 14 14 14 14 13 13 12 10 9 8 7 6 5 5 4 3 9 18 4 4 37 94 72 87 94 88 91 95 71 63 71 74 80 
89 97 83 76 75 80 81 85 82 89 103 76 36 41 19 5 3 16 16 4 4 5 6 7 8 10 12 14 16 20 21 23 22 22 22 21 23 21 18 17 15 11 8 7 6 4 3 3 10 9 3 16 88 91 91 90 104 96 84 92 85 75 77 76 
87 83 85 76 87 91 92 89 93 95 96 56 38 32 8 4 7 15 5 4 4 6 7 8 10 12 14 17 21 25 26 26 27 29 28 28 29 27 25 23 20 16 12 9 7 6 4 3 4 10 4 8 93 101 86 85 101 111 95 85 90 90 95 94 
96 92 87 93 92 90 91 92 94 103 107 44 42 15 4 4 11 5 4 4 6 7 8 9 11 11 10 11 14 19 24 27 29 32 33 30 31 28 23 17 14 13 12 11 9 9 6 3 4 8 5 6 86 109 97 78 67 73 70 64 76 91 88 77 
93 94 92 89 82 80 78 88 98 100 90 35 31 8 3 8 9 4 5 6 10 13 13 13 14 12 11 12 14 17 21 29 32 39 37 30 29 25 18 13 11 11 13 14 14 15 12 5 4 6 3 10 62 48 33 22 19 20 17 20 24 37 53 68 
116 116 118 120 119 100 97 112 118 113 95 34 17 5 4 8 5 6 9 14 25 23 24 27 27 26 22 19 19 22 24 32 46 53 50 43 32 23 19 17 17 20 24 26 25 31 36 12 4 3 3 18 45 34 52 46 35 37 26 30 33 22 24 31 
117 108 107 109 114 107 105 113 126 129 111 26 9 5 4 3 5 16 31 40 44 37 41 38 33 26 22 20 21 24 29 40 58 67 71 61 38 24 20 17 16 20 30 35 43 50 75 27 6 3 3 39 65 61 57 62 57 58 54 55 53 48 38 27 
98 80 76 84 85 88 86 93 90 88 98 23 5 5 3 4 8 37 74 70 57 45 39 35 18 12 11 18 20 25 33 46 76 93 92 84 45 24 18 16 11 9 14 32 42 48 85 48 16 3 14 64 57 57 56 58 54 56 61 64 58 55 53 29 
113 100 98 103 95 88 88 99 85 80 95 52 5 5 3 7 14 64 103 93 72 36 25 26 16 7 10 24 23 25 45 57 95 115 110 102 66 38 20 22 11 8 11 21 30 37 86 86 18 10 56 62 60 57 56 59 61 61 62 62 62 61 60 51 
97 97 104 93 97 99 89 76 92 90 78 90 22 2 3 9 26 94 122 112 76 42 41 55 39 28 27 34 36 42 62 75 104 133 135 127 89 71 50 34 29 27 35 50 52 67 107 126 28 42 66 61 61 56 59 63 61 63 62 61 61 58 58 65 
90 89 87 94 104 104 102 82 79 77 87 98 86 28 35 17 38 124 138 123 101 101 89 72 68 64 62 61 65 74 80 94 112 145 161 149 105 92 97 86 74 71 72 79 100 124 134 138 88 128 66 63 59 54 61 59 53 52 52 52 52 52 51 57 
103 98 97 103 99 88 92 85 75 77 80 80 94 84 55 49 55 149 150 153 136 119 110 96 94 92 93 96 102 104 102 110 119 149 165 153 118 109 113 113 112 114 117 121 128 142 154 155 105 96 77 64 60 54 56 55 51 51 52 51 49 50 50 52 
89 89 101 113 114 94 89 90 79 78 71 77 89 76 76 89 73 156 160 166 156 151 131 120 113 112 112 114 116 117 118 119 143 173 170 165 153 129 124 124 116 118 127 141 166 192 184 170 108 66 75 66 66 62 59 56 53 54 52 49 49 51 51 52 
60 89 97 91 87 95 96 80 72 78 74 73 77 81 131 94 82 151 158 168 193 191 175 157 144 137 128 126 121 120 122 133 157 160 158 161 158 142 129 123 126 125 132 150 173 194 199 171 133 72 62 66 66 61 61 57 55 53 51 52 51 51 51 54 
61 67 78 85 87 85 81 86 92 82 86 79 68 98 136 43 76 144 152 178 197 196 187 169 152 136 120 96 81 127 153 117 83 87 80 81 86 88 135 111 79 101 117 128 147 167 186 169 131 86 57 61 65 61 63 68 62 51 52 53 52 51 52 55 
83 54 69 87 82 81 85 85 92 82 79 83 74 110 112 56 87 132 155 174 177 173 160 140 117 98 70 42 58 83 59 34 25 36 33 32 41 27 45 84 49 40 68 87 106 128 145 162 122 108 61 55 61 65 69 70 67 55 53 52 52 53 52 54 
65 59 55 66 78 93 98 90 83 83 78 79 65 102 121 88 92 127 161 157 152 143 121 100 79 55 33 43 72 60 23 20 22 22 29 30 28 24 43 77 64 35 29 47 68 91 110 141 117 111 73 59 60 64 69 71 63 56 55 52 54 54 53 53 
59 60 60 58 76 92 94 97 85 84 84 85 73 107 159 98 67 126 164 138 127 112 91 63 41 30 34 55 63 59 41 38 30 22 21 23 30 42 48 60 65 49 27 22 41 69 86 106 108 119 87 71 66 65 71 77 73 57 58 54 55 52 53 54 
74 67 62 61 56 75 97 93 92 87 84 90 92 108 166 143 74 120 161 118 113 87 60 37 26 32 46 47 42 37 35 40 27 20 20 22 31 42 43 45 53 48 40 29 25 53 81 84 127 143 82 75 74 70 72 75 65 54 57 54 53 52 53 52 
69 73 61 66 64 57 71 90 99 103 100 86 88 98 155 160 87 115 155 101 111 80 49 31 41 44 43 45 44 38 38 35 30 27 31 31 32 40 46 51 49 35 40 45 43 49 85 89 118 125 77 78 74 71 72 61 54 52 54 56 57 52 52 52 
68 67 62 63 59 58 60 80 93 88 94 85 82 79 136 196 91 103 154 102 117 92 55 49 47 31 27 32 33 35 34 31 27 28 33 33 29 28 30 31 24 18 20 32 43 77 90 98 111 93 71 83 71 70 70 55 52 53 54 53 53 50 52 53 
68 58 64 66 56 60 61 60 79 90 83 89 86 82 94 160 87 81 151 113 115 101 71 48 29 17 12 11 17 27 33 35 45 46 44 62 53 50 45 11 5 10 14 16 25 68 93 98 117 72 66 77 67 66 61 57 54 52 53 51 51 49 51 54 
66 65 65 64 64 63 64 64 64 87 88 80 78 75 73 72 60 76 140 125 113 104 79 33 17 16 15 11 14 51 76 87 129 126 111 171 130 107 84 15 18 30 18 13 19 60 92 100 90 62 67 72 72 62 54 55 59 55 53 54 52 50 49 50 
67 67 66 62 65 67 65 66 69 76 81 75 64 63 73 62 64 63 119 124 111 103 77 30 16 17 32 54 54 66 90 107 136 130 118 135 121 106 94 78 82 56 23 16 34 74 90 84 64 63 64 70 73 58 57 58 60 61 56 55 53 49 48 48 
67 67 67 67 67 69 73 74 72 74 76 81 82 80 82 58 48 55 96 116 112 104 86 41 24 27 48 82 107 112 106 104 103 102 102 99 95 98 109 116 105 61 29 34 62 80 94 69 65 65 65 73 73 60 62 61 59 57 60 59 54 49 49 49 
69 69 69 70 69 68 70 71 73 73 76 72 89 90 80 59 63 52 59 101 111 105 84 53 35 40 67 92 109 114 106 85 66 64 67 66 70 90 112 119 108 70 44 58 76 84 82 62 62 59 68 78 67 60 61 64 61 55 58 60 53 50 50 49 
67 69 69 71 72 70 69 76 78 78 78 73 69 78 82 63 76 53 46 73 94 104 77 57 41 46 77 94 104 106 95 81 73 60 66 71 83 102 111 111 108 78 51 63 79 77 67 62 59 59 65 71 64 60 57 59 60 59 62 56 52 50 50 49 
68 70 71 72 72 73 77 83 78 72 75 75 68 77 88 64 70 80 38 54 84 72 49 41 40 42 68 93 100 94 86 81 80 70 73 67 78 92 102 109 115 80 43 52 65 54 53 56 58 57 60 57 59 63 61 56 57 59 60 55 54 51 50 49 
71 73 72 71 72 67 46 42 34 32 32 33 38 38 41 42 42 51 36 30 43 39 36 34 32 37 47 82 107 100 92 83 68 56 55 47 65 92 112 130 105 77 50 34 46 48 54 57 56 54 54 55 56 65 64 59 57 56 57 57 55 53 51 49 
71 71 71 70 74 58 27 23 22 23 19 20 20 20 23 26 28 25 27 16 26 24 27 21 23 29 41 53 102 130 117 87 59 43 38 35 63 94 130 128 78 54 41 26 29 49 56 55 53 52 52 53 55 58 59 59 59 55 52 56 56 55 52 48 
72 72 71 71 76 49 24 23 22 20 19 20 19 21 24 24 10 11 15 15 23 22 19 13 20 27 27 36 67 108 122 93 55 40 37 39 65 95 99 100 64 36 30 21 28 52 58 55 55 54 55 55 56 56 55 60 62 60 55 56 57 53 52 49 
73 73 72 71 80 29 7 10 11 14 16 17 17 17 19 16 6 3 5 11 19 24 12 10 11 17 22 34 46 65 85 79 57 41 39 44 65 91 80 76 44 30 31 18 30 55 52 57 55 57 58 58 56 54 54 58 60 61 57 56 55 53 52 52 
74 73 75 73 84 20 2 4 4 4 5 7 10 12 12 12 13 9 3 3 8 18 10 9 9 15 20 28 39 48 68 58 50 43 42 38 57 93 74 60 40 22 17 12 10 19 44 56 58 62 61 61 58 54 62 62 61 60 58 57 54 54 53 52 
75 75 76 74 84 28 3 12 13 11 8 6 5 5 6 6 8 13 12 7 3 5 12 8 8 13 14 31 37 40 49 39 38 41 39 39 56 85 53 32 34 19 9 6 5 19 41 53 57 59 60 61 61 61 67 66 65 61 59 60 53 52 52 50 
76 77 76 75 85 44 8 34 30 31 26 22 16 9 5 3 3 6 10 14 13 7 9 7 9 7 7 19 31 26 25 22 32 35 33 40 49 54 33 20 18 12 7 5 12 22 33 58 54 58 61 66 68 65 63 64 63 61 58 60 54 49 47 47 
76 75 77 77 81 64 29 39 40 34 25 24 25 24 21 14 8 4 3 4 7 9 8 5 6 7 6 13 18 15 14 17 21 21 25 29 29 41 23 10 7 7 6 7 14 18 52 69 63 58 63 69 66 62 61 62 59 58 54 59 55 50 46 46 
76 76 78 78 78 81 40 22 10 11 23 28 22 16 16 19 21 20 15 10 7 6 6 8 5 4 5 6 8 10 10 9 9 10 17 20 15 21 13 11 15 32 7 12 15 42 67 66 69 65 62 61 60 60 58 64 60 54 52 57 57 53 45 44 
76 78 79 78 77 84 49 10 6 40 81 72 54 40 24 13 9 10 15 19 21 20 17 13 8 4 3 3 5 6 5 5 5 7 8 12 6 5 6 18 17 17 18 11 24 73 64 68 66 71 73 65 59 56 59 65 62 53 52 55 55 55 51 47 
74 77 77 78 78 85 48 10 22 69 63 43 51 53 45 33 23 15 9 8 11 12 14 14 11 7 4 2 3 3 3 3 3 4 4 5 3 3 3 8 5 7 13 8 33 66 67 66 69 72 79 81 67 55 56 55 57 56 54 59 55 53 55 51 
64 69 79 81 86 60 9 9 47 56 22 23 39 40 41 38 35 28 24 20 16 13 14 14 13 10 7 4 3 3 2 4 4 3 3 3 3 3 3 6 12 13 8 18 66 65 69 60 65 74 76 82 70 57 54 53 56 57 58 61 56 51 51 50 
56 56 59 61 63 32 32 56 59 26 16 51 46 43 42 42 32 32 36 29 23 18 14 12 12 12 11 8 4 3 3 3 3 3 3 3 3 3 3 13 13 11 14 48 71 68 68 56 64 78 75 76 75 69 58 54 57 57 57 61 54 51 52 50 
56 56 54 53 47 44 40 46 49 18 20 27 34 46 48 38 32 43 42 38 35 33 29 25 22 18 17 16 13 6 3 3 3 3 3 3 3 3 11 9 10 14 28 65 72 70 63 55 62 69 69 74 79 73 58 56 55 55 56 57 53 54 53 51 
58 56 50 50 52 49 36 22 35 44 27 24 16 23 41 33 37 35 32 32 31 29 28 27 24 20 17 15 14 13 8 5 4 4 4 4 3 10 14 5 7 17 67 70 74 71 63 51 59 57 62 76 74 68 64 63 55 54 55 64 58 55 51 50 
56 56 52 47 47 50 51 37 17 38 50 62 59 31 28 36 40 34 32 33 31 24 17 14 12 10 9 9 11 11 13 11 7 4 4 3 7 20 11 6 9 31 75 70 75 75 69 59 62 58 56 65 71 71 69 62 63 59 55 64 63 55 53 51 
52 53 50 45 42 47 48 44 23 17 40 40 45 49 32 31 29 30 29 24 21 14 12 13 12 12 15 20 19 18 17 14 12 7 5 4 19 15 8 13 10 43 78 69 73 71 72 69 63 56 57 58 62 69 68 64 69 62 55 60 62 53 51 50 
44 52 49 44 39 41 45 42 30 15 24 38 38 43 41 38 31 23 19 16 18 18 20 18 16 23 24 24 21 20 15 14 13 13 10 10 24 27 18 18 20 42 77 72 74 70 66 63 58 56 61 56 54 58 65 68 68 61 58 57 59 51 48 49 
