P2
16 16
255
232 249 249 249 249 249 249 249 249 244 236 235 245 249 249 249 
230 251 249 250 251 251 250 249 251 245 234 232 243 250 251 251 
222 225 247 226 216 212 229 247 221 219 215 220 245 229 214 219 
187 200 244 192 172 165 198 244 181 187 186 191 241 201 170 175 
233 251 248 225 217 214 227 247 223 239 251 251 249 231 218 215 
233 238 249 244 241 235 242 249 244 241 237 237 249 247 239 244 
250 251 249 250 251 250 251 250 249 250 250 250 250 249 251 251 
206 204 240 230 205 209 204 231 239 218 213 209 229 241 206 208 
173 187 237 218 171 173 184 226 233 189 180 186 222 237 176 176 
220 241 250 241 223 223 239 250 243 223 225 233 250 247 228 225 
235 231 249 248 238 242 226 245 249 240 242 227 244 249 241 245 
251 251 249 250 251 251 251 249 251 252 251 251 250 249 251 252 
193 200 240 220 202 201 205 245 213 192 194 197 226 233 195 193 
186 187 240 218 187 183 183 239 205 191 212 215 233 230 186 207 
230 226 247 242 229 227 224 246 239 240 249 244 249 244 231 245 
234 228 248 246 238 233 229 249 247 237 239 223 246 249 239 236 
