P2
16 16
255
232 249 248 248 248 248 248 248 248 244 235 234 244 248 248 248 
230 250 248 250 250 251 250 248 250 244 234 232 242 250 251 250 
222 224 246 226 216 212 228 247 221 219 215 220 245 229 213 219 
187 199 243 193 172 165 198 244 181 187 186 191 241 201 171 175 
233 250 248 225 217 214 226 246 223 238 251 250 249 230 220 217 
231 237 249 244 240 235 242 249 243 240 237 237 248 247 239 244 
249 250 249 249 251 249 250 249 248 250 250 250 249 249 250 250 
207 207 240 229 207 211 204 230 239 217 213 209 229 240 208 208 
173 190 237 217 173 175 185 225 232 190 182 186 222 237 180 179 
219 240 250 240 222 223 239 250 242 224 225 233 249 247 228 225 
235 231 248 248 238 242 226 245 249 240 242 227 243 249 241 245 
251 251 249 250 251 251 250 248 250 251 251 250 249 249 251 251 
196 202 240 220 202 201 205 245 213 193 195 197 225 233 195 193 
190 189 240 218 189 184 187 240 206 192 213 215 232 232 187 207 
231 227 247 242 230 228 228 246 239 241 248 244 249 245 231 245 
234 227 248 246 238 233 228 248 247 237 238 223 245 248 239 236 
