P2
16 16
255
227 243 243 243 243 243 243 243 243 239 234 232 239 243 243 243 
230 249 247 248 249 249 248 247 248 244 236 233 242 248 249 249 
215 221 244 220 211 209 226 245 219 216 213 217 243 226 212 218 
179 196 241 187 167 163 196 243 180 181 185 190 239 198 168 172 
230 248 246 223 217 210 222 244 220 235 249 248 247 229 215 210 
227 232 247 240 233 228 235 247 241 234 229 229 246 242 235 240 
247 248 247 247 248 247 248 248 246 247 247 247 248 246 248 248 
204 201 236 229 204 208 202 227 238 217 209 203 226 239 206 205 
176 188 235 217 173 176 184 224 231 192 181 185 221 233 179 179 
224 241 248 237 223 224 237 248 241 225 226 235 248 243 227 226 
231 228 245 243 236 239 225 242 246 236 237 227 241 247 240 240 
249 248 247 248 249 249 248 247 248 249 249 248 247 247 249 249 
190 197 237 219 200 200 202 242 210 190 194 193 225 231 194 193 
183 188 237 213 184 183 184 238 206 192 209 209 231 230 188 205 
229 229 245 239 228 226 227 243 237 240 245 244 247 242 231 242 
232 230 246 241 236 231 230 246 243 235 232 226 243 245 235 231 
