P2
16 16
255
13 13 22 27 24 18 14 13 13 14 28 33 22 13 13 13 
13 13 20 22 22 22 17 13 13 14 23 27 18 13 13 13 
13 13 16 16 19 20 16 13 14 14 19 22 16 13 13 13 
13 16 16 15 17 16 14 14 17 17 15 14 14 14 13 13 
13 13 13 12 13 13 13 13 13 13 13 13 13 13 13 13 
13 13 13 14 14 13 13 13 13 13 18 21 16 13 13 13 
13 13 13 13 14 13 13 13 13 16 22 22 21 15 13 13 
13 13 13 13 13 13 13 13 13 16 19 20 19 15 13 13 
13 14 14 14 14 14 15 14 15 15 15 17 15 14 13 13 
13 14 14 14 14 13 14 14 15 14 14 14 14 14 13 13 
13 13 13 13 18 31 43 54 53 50 55 20 13 13 13 13 
13 13 13 13 28 58 49 58 51 51 71 27 13 13 13 13 
13 13 13 13 24 40 34 34 34 34 38 23 13 13 13 13 
13 13 13 13 20 14 12 12 12 12 12 18 13 13 13 13 
13 13 13 13 28 65 55 53 58 64 67 25 13 13 13 13 
13 13 13 13 34 165 166 165 172 161 140 28 13 13 13 13 
