P2
16 16
255
8 8 13 15 13 11 9 8 8 8 20 27 14 8 8 8 
8 8 12 14 15 15 11 8 7 8 14 16 11 8 8 8 
8 8 10 9 11 12 9 8 8 8 12 12 10 8 8 8 
8 10 10 10 10 9 9 9 11 11 9 9 8 8 8 8 
8 8 8 8 8 7 8 8 8 8 7 8 8 8 8 8 
8 8 8 8 8 8 8 8 8 8 12 14 10 8 8 8 
8 8 8 8 8 8 8 8 8 10 14 13 12 9 7 8 
8 8 8 8 8 8 8 7 7 9 12 13 12 9 7 8 
8 8 9 9 10 9 8 8 9 9 10 11 9 8 8 8 
8 9 9 9 9 8 8 8 10 8 8 8 8 8 8 8 
8 7 7 7 11 20 28 34 34 32 33 13 7 8 8 8 
8 8 8 7 17 40 36 39 36 36 44 17 7 8 8 8 
8 8 8 7 15 26 22 22 22 22 25 15 7 8 8 8 
8 8 8 7 13 8 7 7 7 7 7 12 8 8 8 8 
8 8 8 7 19 49 41 38 34 39 43 16 7 8 8 8 
8 8 8 7 19 87 86 85 85 113 111 18 7 8 8 8 
