P2
16 16
255
255 255 255 255 255 255 255 255 255 255 255 255 255 255 255 255 
255 255 255 255 255 255 255 255 255 255 255 255 255 255 255 255 
251 251 251 251 251 251 251 251 251 251 251 251 251 251 251 251 
145 145 167 234 240 238 238 243 253 253 253 253 253 253 253 253 
138 133 144 160 169 161 160 187 251 252 252 252 252 252 252 252 
185 172 172 171 172 121 116 117 121 120 120 120 120 120 120 120 
180 196 196 196 206 190 188 180 134 183 188 187 187 187 187 187 
239 250 250 250 249 250 251 245 228 249 250 250 250 250 250 250 
247 250 250 250 250 250 250 246 235 253 253 251 250 250 250 250 
246 251 251 251 251 251 251 245 196 189 196 233 251 251 251 251 
248 250 250 250 250 250 250 248 212 183 190 230 251 250 249 239 
242 255 255 255 255 255 255 255 255 255 255 255 255 255 249 150 
242 246 246 246 246 246 246 246 246 246 246 246 246 246 245 217 
252 252 252 252 252 252 252 252 252 252 252 252 252 252 252 254 
255 255 255 255 255 255 255 255 255 255 255 255 255 255 255 255 
255 255 255 255 255 255 255 255 255 255 255 255 255 255 255 255 
