P2
16 16
255
255 255 255 255 255 255 255 255 255 255 255 255 255 255 255 255 
255 255 255 255 255 255 255 255 255 255 255 255 255 255 255 255 
244 240 246 247 247 247 247 246 245 245 245 245 245 245 245 245 
70 66 97 211 221 216 219 226 251 252 251 251 252 251 251 251 
64 60 72 89 98 89 90 123 244 249 249 248 248 250 249 250 
121 103 105 103 108 70 52 46 51 49 65 71 65 53 50 51 
114 142 141 140 158 140 132 116 61 120 134 146 139 128 127 127 
215 246 244 244 243 245 246 233 194 241 245 244 244 245 245 245 
237 245 244 244 244 244 245 235 210 249 251 246 244 244 244 244 
231 241 242 239 239 240 244 231 140 130 142 206 241 240 243 243 
236 239 239 238 239 239 239 237 167 121 132 200 241 238 238 216 
225 254 254 254 254 254 254 255 255 255 255 255 254 255 242 75 
227 236 236 236 236 236 236 236 236 236 236 236 236 236 231 168 
249 248 248 248 248 248 248 248 248 248 248 248 248 248 248 252 
255 255 255 255 255 255 255 255 255 255 255 255 255 255 255 255 
255 255 255 255 255 255 255 255 255 255 255 255 255 255 255 255 
