P2
16 16
255
255 255 255 255 255 255 255 255 255 255 255 255 255 255 255 255 
255 255 255 255 255 255 255 255 255 255 255 255 255 255 255 255 
255 255 255 255 255 255 255 255 255 255 255 255 255 255 255 255 
247 247 249 254 254 254 254 254 255 255 255 255 255 255 255 255 
247 246 247 248 249 248 248 250 255 255 255 255 255 255 255 255 
248 249 249 249 250 247 246 246 246 246 247 247 247 246 246 246 
248 251 251 251 252 251 251 250 247 250 251 251 251 251 250 250 
254 255 255 255 255 255 255 254 253 255 255 255 255 255 255 255 
254 255 255 255 255 255 255 254 253 255 255 255 255 255 255 255 
254 254 254 254 254 254 254 254 250 250 251 253 255 254 255 255 
254 254 254 254 254 254 254 254 252 250 250 253 254 254 254 244 
254 255 255 255 255 255 255 255 255 255 255 255 255 255 249 175 
254 254 254 254 254 254 254 254 254 254 254 254 254 254 253 231 
255 255 255 255 255 255 255 255 255 255 255 255 255 255 255 255 
255 255 255 255 255 255 255 255 255 255 255 255 255 255 255 255 
255 255 255 255 255 255 255 255 255 255 255 255 255 255 255 255 
