P2
16 16
255
59 59 59 59 59 59 59 59 59 59 59 59 59 59 59 59 
59 58 58 58 58 58 59 59 59 59 58 58 58 58 58 59 
60 61 61 61 61 61 62 59 59 61 61 61 61 61 61 60 
63 65 55 55 58 56 54 60 61 55 55 58 56 56 66 66 
43 11 6 17 5 7 19 21 21 20 6 7 19 5 14 49 
42 8 8 50 7 17 90 64 65 89 13 9 66 8 11 47 
45 8 9 24 30 49 49 40 43 38 23 11 36 8 11 48 
44 8 8 29 91 90 55 24 32 27 20 11 34 8 11 49 
42 8 6 14 9 12 32 89 85 27 6 3 21 6 11 47 
44 9 5 8 5 21 27 26 22 33 20 6 16 6 11 48 
46 9 5 12 6 27 14 17 30 58 103 28 20 6 11 50 
45 8 4 20 9 38 31 33 36 38 40 9 28 5 11 49 
43 17 8 12 8 8 28 59 56 24 8 8 13 8 19 47 
67 73 66 67 68 66 64 66 66 64 66 67 67 66 73 67 
59 59 59 59 59 59 59 59 59 59 59 59 59 59 59 59 
59 59 59 59 59 59 59 59 59 59 59 59 59 59 59 59 
