P2
16 16
255
60 60 60 60 60 60 60 60 60 60 60 60 60 60 60 60 
60 60 60 60 60 60 60 61 61 60 60 60 60 60 60 60 
61 62 63 63 63 63 64 67 68 63 63 63 63 63 62 61 
60 62 59 59 62 60 63 69 67 58 61 62 60 60 62 61 
43 11 5 17 6 7 20 21 21 20 6 7 20 5 14 46 
42 8 7 46 7 17 91 63 64 91 13 9 60 6 10 46 
46 8 7 21 28 46 55 43 46 40 23 11 30 7 11 48 
46 9 8 27 94 88 64 27 31 27 20 12 29 7 11 49 
41 8 6 13 9 11 33 85 82 26 6 3 20 6 11 47 
44 9 5 8 6 21 27 26 23 32 19 6 16 6 11 47 
48 8 5 13 7 27 13 16 29 59 104 27 19 5 11 50 
44 8 4 32 11 40 35 36 39 40 42 11 30 4 10 49 
42 16 8 14 9 8 30 63 60 26 8 9 15 8 19 46 
63 69 70 71 72 70 68 69 69 68 70 72 71 70 67 62 
60 60 61 61 61 61 61 61 61 61 61 61 61 61 60 60 
60 60 60 60 60 60 60 60 60 60 60 60 60 60 60 60 
