P2
16 16
255
59 59 59 59 59 59 59 59 59 59 59 59 59 59 59 59 
59 59 59 59 59 59 60 60 60 59 59 59 59 59 59 59 
61 62 62 62 62 62 63 60 60 62 62 62 62 62 62 61 
64 66 55 56 58 57 54 60 60 55 55 58 57 56 67 67 
43 11 6 18 5 7 20 21 21 20 6 7 19 5 14 49 
42 8 9 51 7 17 90 64 65 89 13 9 66 8 11 48 
46 8 9 24 30 49 51 42 43 38 23 11 36 8 11 49 
45 8 9 29 91 90 56 24 32 27 20 11 34 8 11 50 
42 8 6 14 9 12 33 89 85 27 6 3 21 6 11 47 
44 9 5 8 5 21 27 26 23 33 20 6 17 6 11 48 
47 9 5 12 6 27 14 17 30 59 103 28 20 6 11 51 
45 8 4 20 9 38 31 33 36 38 40 9 28 5 11 49 
44 17 8 12 8 8 28 59 56 24 8 8 13 8 19 48 
67 73 67 67 69 67 64 66 66 64 66 68 68 67 73 68 
59 60 60 60 60 60 60 60 60 60 60 60 60 60 60 59 
59 59 59 59 59 59 59 59 59 59 59 59 59 59 59 59 
