P2
16 16
255
6 6 5 6 5 4 4 4 4 4 4 4 4 5 6 6 
176 148 138 164 169 169 169 168 168 168 173 176 176 176 177 177 
242 187 159 167 197 224 228 226 228 229 242 253 253 253 253 253 
239 155 121 129 211 239 238 238 244 249 248 248 248 248 248 248 
249 247 231 230 235 233 241 237 236 247 248 248 248 248 247 243 
248 246 223 219 219 218 221 242 245 248 248 248 248 248 248 247 
248 245 210 199 217 226 232 247 248 248 248 248 248 248 248 248 
248 246 225 219 222 223 227 246 248 248 248 248 248 248 248 248 
248 246 208 198 213 221 230 247 250 249 249 249 249 248 248 248 
248 246 226 226 222 227 232 231 228 229 229 228 235 248 248 248 
248 245 208 198 215 225 227 227 225 225 225 225 233 248 248 248 
248 247 227 222 225 227 238 248 250 249 249 249 249 248 248 248 
248 245 200 194 213 211 224 245 248 248 248 248 248 248 248 248 
248 247 218 211 213 217 243 249 248 248 248 248 248 248 248 248 
248 246 219 211 218 222 220 242 248 248 248 248 248 248 248 248 
248 245 210 199 219 231 240 246 248 248 248 248 248 248 248 248 
