P2
16 16
255
235 235 235 235 235 235 235 235 235 235 235 235 235 235 235 235 
235 235 235 235 235 235 235 235 235 235 235 235 235 235 235 235 
235 235 235 235 235 235 235 235 235 235 235 235 235 235 235 235 
235 235 235 235 235 235 235 235 235 235 235 235 235 235 235 235 
235 235 235 235 235 235 235 235 235 235 235 235 235 235 235 235 
235 235 235 235 235 235 235 235 235 235 235 235 235 235 235 235 
235 235 235 235 235 235 235 235 235 235 235 235 235 235 235 235 
235 235 235 235 235 235 235 235 235 235 235 235 235 235 235 235 
235 235 235 235 235 235 235 235 235 235 235 235 235 235 235 235 
235 235 235 235 235 235 235 235 235 235 235 235 235 235 235 235 
235 235 235 235 235 235 235 235 235 235 235 235 235 235 236 238 
235 235 235 235 235 235 235 235 235 235 235 235 235 236 223 175 
235 235 235 235 235 235 235 235 235 235 235 235 235 235 228 199 
235 235 235 235 235 235 235 235 235 235 235 235 235 235 229 206 
235 235 235 235 235 235 235 235 235 235 235 235 235 235 235 233 
235 235 235 235 235 235 235 235 235 235 235 235 235 235 235 235 
