P2
16 16
255
16 16 15 16 16 14 14 14 14 14 14 14 14 14 17 17 
183 156 147 172 176 176 176 175 175 176 180 183 183 183 184 184 
239 189 165 173 200 223 227 225 227 229 240 250 250 250 250 250 
237 165 132 142 215 236 235 236 242 247 246 246 246 246 246 246 
246 245 234 233 235 232 239 237 235 245 246 246 246 246 246 244 
246 244 227 223 226 226 230 241 243 246 246 246 246 246 246 245 
246 244 213 204 221 229 237 245 246 246 246 246 246 246 246 246 
246 245 227 222 223 225 230 244 246 246 246 246 246 246 246 246 
246 244 213 206 217 226 231 245 247 247 247 247 246 246 246 246 
246 244 227 229 226 232 232 233 232 232 232 229 236 245 246 246 
246 243 212 204 217 226 227 229 229 229 229 227 234 245 246 246 
246 245 229 225 227 231 237 246 247 247 247 247 247 246 246 246 
246 244 211 201 215 217 225 243 246 246 246 246 246 246 246 246 
246 245 227 220 217 225 243 246 246 246 246 246 246 246 246 246 
246 243 219 215 223 226 228 241 246 246 246 246 246 246 246 246 
246 244 212 204 221 232 240 245 246 246 246 246 246 246 246 246 
