P2
16 16
255
5 7 5 7 6 5 5 5 5 5 5 5 5 5 6 7 
168 144 132 160 164 163 166 162 165 163 166 169 167 169 168 169 
241 195 161 167 200 223 226 222 230 232 239 247 246 246 246 246 
236 152 115 124 206 226 224 224 234 242 242 241 241 241 241 241 
242 241 226 223 229 222 230 230 226 241 241 241 241 241 241 238 
241 240 219 213 220 219 223 236 238 241 241 241 241 241 241 240 
242 239 203 196 214 224 229 240 242 241 241 241 241 241 241 241 
241 241 218 212 216 217 223 239 242 241 241 241 241 241 241 241 
241 240 211 198 217 224 228 241 242 242 242 242 242 241 241 241 
241 241 231 228 226 230 229 229 230 228 228 229 233 241 241 241 
242 238 200 193 211 218 222 223 224 223 222 222 228 241 241 241 
241 240 219 218 220 223 230 241 242 242 243 242 242 241 241 241 
242 239 205 199 216 215 217 238 242 241 241 241 241 241 241 241 
241 241 233 235 235 235 240 242 241 241 241 241 241 241 241 241 
241 240 213 207 215 218 219 236 242 241 241 241 241 241 241 241 
242 239 202 196 211 222 234 240 242 241 241 241 241 241 241 241 
