P2
64 64
255
161 163 90 80 86 85 68 70 73 73 75 76 70 65 69 78 78 80 74 62 78 94 89 109 95 96 98 100 93 84 82 86 82 78 73 71 77 89 92 90 97 96 89 100 103 104 110 87 86 94 115 158 169 161 174 160 167 106 79 51 61 76 52 60 
226 215 107 78 72 74 66 75 78 79 84 91 92 85 83 86 85 84 75 59 74 92 85 96 92 92 96 101 101 99 101 108 86 86 84 79 79 86 92 94 92 92 87 97 98 96 99 76 79 83 99 145 162 151 161 155 174 119 85 59 63 87 58 61 
246 238 114 74 67 70 68 83 83 82 86 93 98 95 89 88 90 86 75 58 74 102 94 94 104 100 98 102 102 100 101 106 101 107 105 92 79 76 79 82 80 83 80 91 91 90 92 71 73 75 93 158 194 175 178 179 182 137 90 66 59 94 62 56 
243 227 110 77 72 74 66 75 88 86 85 86 87 87 88 89 87 83 74 58 75 114 111 100 107 101 100 101 99 95 93 94 108 113 109 92 76 70 69 70 70 74 73 84 86 89 95 76 69 73 97 186 251 226 220 230 190 152 91 69 50 93 65 53 
245 227 110 83 83 82 62 61 82 86 87 84 81 83 88 93 86 79 74 58 71 109 112 97 95 94 98 105 107 105 106 111 103 105 100 89 81 79 76 73 77 79 76 85 87 91 103 85 76 78 94 185 253 250 242 248 197 161 93 71 47 92 77 63 
247 228 107 82 88 90 71 67 69 78 85 85 82 84 88 92 91 78 77 62 64 93 97 86 99 100 106 112 114 114 120 130 118 117 111 102 99 99 96 89 96 96 89 94 90 90 101 84 91 90 90 163 254 248 243 247 209 165 103 77 51 88 94 76 
247 222 103 78 85 91 78 79 72 78 81 79 80 86 92 91 92 77 83 71 65 87 96 92 111 113 113 112 104 100 109 122 128 128 122 113 111 112 110 105 112 111 101 101 90 85 90 71 86 87 82 145 247 250 239 247 219 168 115 83 56 76 95 76 
246 221 105 77 79 85 72 77 89 88 81 75 79 90 97 96 90 76 89 81 72 92 107 111 113 114 110 103 90 84 96 110 109 112 112 107 106 113 117 118 116 116 105 104 89 79 80 61 65 72 72 135 247 251 238 245 227 169 120 83 56 62 86 67 
250 210 99 73 78 64 67 65 82 83 75 73 83 90 94 102 81 84 83 81 94 107 107 101 105 93 93 99 93 79 81 92 115 110 105 101 101 108 119 128 98 88 83 92 92 75 65 68 61 76 64 111 254 241 246 247 245 172 143 76 69 56 83 67 
238 196 102 78 88 79 79 76 84 88 87 80 79 82 84 83 93 62 80 109 93 100 127 116 91 94 91 87 96 119 135 139 76 57 52 81 137 168 138 100 97 107 83 72 100 101 69 58 68 86 79 103 235 250 242 244 248 186 159 93 78 56 77 67 
252 213 104 71 83 84 80 73 75 83 91 84 75 81 86 77 69 90 93 93 107 107 94 92 114 104 103 128 163 146 76 29 16 15 16 22 39 73 122 163 124 112 101 78 67 89 109 88 72 90 90 88 205 251 246 235 234 171 148 91 74 49 68 69 
220 169 89 61 79 86 70 58 76 82 90 84 77 91 96 80 75 93 78 85 131 116 92 126 129 121 108 75 30 7 4 6 5 5 4 4 4 7 13 20 93 145 135 97 84 58 57 103 66 75 84 73 174 251 246 247 252 201 163 104 79 52 68 84 
100 98 83 76 96 97 75 72 84 86 85 79 81 92 92 77 63 89 118 112 105 133 155 143 95 39 12 11 23 33 34 33 25 25 27 30 32 29 21 16 4 12 50 98 97 94 98 85 96 95 100 82 162 231 229 244 238 195 158 111 85 58 66 84 
23 32 40 36 38 36 33 53 72 77 70 70 82 83 70 68 78 87 97 119 154 151 76 24 8 22 44 41 26 14 11 10 7 8 9 9 11 16 24 30 39 34 12 11 46 90 100 118 99 95 83 55 80 91 93 97 101 96 87 76 74 62 63 77 
10 10 12 8 7 7 9 30 63 79 71 73 95 76 52 59 60 79 103 122 86 22 8 22 45 32 15 6 3 4 5 4 8 5 3 3 4 6 6 5 8 23 40 24 5 4 23 61 70 79 60 33 35 29 35 30 26 31 30 31 40 41 37 44 
36 27 27 25 32 35 36 73 76 102 92 94 115 75 41 54 67 78 76 27 4 11 35 30 8 5 3 5 7 6 6 8 7 8 9 8 7 6 5 5 5 3 4 17 39 24 7 4 13 26 18 7 7 5 12 7 8 11 7 6 9 9 6 7 
60 57 59 71 83 90 90 89 93 104 101 113 106 40 37 53 53 31 6 3 18 29 13 5 6 6 6 6 6 7 7 7 8 8 8 9 8 7 6 6 5 6 6 3 4 22 26 6 4 10 17 45 35 30 27 34 35 35 38 41 38 31 30 34 
78 79 79 82 86 90 92 90 94 95 101 104 72 36 35 25 11 3 7 19 15 7 5 4 5 5 6 7 8 8 9 9 10 10 10 10 9 8 7 7 6 5 6 5 3 5 12 16 3 3 9 57 87 81 76 77 69 69 68 66 60 58 65 74 
91 98 95 87 84 89 92 91 85 82 94 89 44 36 33 9 3 5 16 20 7 4 6 6 6 6 8 9 11 12 13 13 14 14 14 13 14 13 10 9 8 5 5 7 5 2 4 8 18 6 5 31 85 77 83 88 93 95 87 73 64 64 70 76 
81 86 84 74 72 81 85 82 83 85 92 77 38 35 23 4 4 17 14 3 3 5 6 6 10 10 12 15 17 19 21 21 21 21 21 21 22 22 18 15 15 12 7 7 8 6 3 2 9 6 4 16 99 94 94 101 94 100 96 85 81 86 85 80 
88 90 85 79 82 92 95 92 92 101 94 62 40 25 9 2 9 11 5 3 6 7 5 8 11 11 13 16 20 23 27 29 28 28 28 29 30 31 27 21 20 21 14 8 7 6 4 4 5 10 4 5 95 98 79 77 102 103 97 87 88 94 89 78 
96 93 88 88 89 92 93 93 96 106 93 44 39 15 4 4 13 4 4 7 6 8 11 8 8 9 10 12 15 20 24 27 29 32 32 29 29 28 24 19 14 13 12 10 9 7 5 4 4 11 4 5 96 116 93 83 76 71 67 66 74 86 91 90 
92 88 87 90 87 78 78 85 102 99 97 31 29 8 4 7 7 4 5 7 7 12 17 11 13 12 12 12 14 18 23 26 35 39 38 32 28 25 19 15 11 9 12 16 16 17 12 4 3 4 3 10 59 48 33 20 18 16 17 21 28 37 48 59 
120 114 118 125 115 96 98 113 118 100 109 27 20 4 5 7 5 8 8 13 27 26 21 29 27 24 21 18 19 22 27 30 46 51 50 39 31 26 21 15 18 19 25 24 21 33 34 13 6 1 4 19 43 35 50 50 37 33 30 29 25 22 26 33 
115 115 110 107 111 118 115 105 117 138 101 28 11 3 4 3 4 19 30 39 46 38 38 42 32 27 21 20 22 24 31 38 59 68 74 62 38 22 19 22 16 20 21 38 40 54 74 27 4 5 2 33 82 51 61 66 54 56 56 55 56 50 37 26 
94 78 73 82 83 76 79 92 92 87 90 22 3 8 4 4 9 39 64 70 61 41 36 35 16 12 11 17 22 24 33 46 75 88 93 75 46 25 17 15 12 12 15 32 36 48 83 53 17 3 20 52 51 59 55 55 55 56 57 57 57 54 44 35 
119 102 96 103 102 90 91 103 98 75 97 56 4 3 2 8 15 68 107 97 66 38 30 27 15 10 10 18 25 28 39 60 93 113 122 98 64 39 25 18 10 8 10 27 29 39 83 82 19 6 48 70 51 68 55 54 59 61 62 62 62 61 57 52 
89 97 96 90 91 94 86 73 85 83 84 96 25 2 4 8 23 89 131 106 73 49 45 43 38 28 25 32 38 42 56 76 99 129 147 123 88 67 52 41 31 26 30 49 52 64 113 123 29 50 56 64 70 57 56 65 59 61 61 60 60 61 62 62 
88 95 98 95 103 111 99 81 73 85 78 87 82 34 29 18 38 110 147 125 103 88 86 82 70 65 61 60 64 73 83 91 108 142 163 139 109 95 90 84 76 74 77 91 96 115 150 143 82 129 65 56 69 45 55 69 53 53 53 52 51 51 54 58 
100 91 89 99 103 95 88 85 84 74 88 82 112 79 55 57 62 134 161 147 137 122 112 98 87 92 95 93 98 106 109 103 127 154 168 150 125 114 113 114 102 106 111 116 128 155 163 141 114 97 76 65 59 56 57 59 53 51 50 49 48 47 49 54 
99 98 103 110 106 94 89 90 83 65 74 81 81 71 70 83 80 145 164 161 165 148 133 114 110 111 114 117 119 119 119 119 147 158 167 162 145 130 123 121 120 123 134 140 162 191 186 168 109 58 70 76 62 68 64 54 57 52 49 51 51 49 50 53 
59 83 102 96 90 96 92 79 74 89 61 82 65 94 144 86 84 143 160 171 190 187 178 162 147 131 124 128 124 114 117 129 157 157 164 171 164 144 129 122 119 119 134 147 172 195 188 185 132 75 62 73 64 59 65 59 55 51 48 50 51 49 49 51 
62 66 73 81 85 85 86 87 91 77 92 78 73 100 128 41 82 127 155 182 193 195 186 170 141 153 123 80 86 135 152 123 77 101 76 77 97 101 117 116 75 94 120 130 141 175 184 162 128 93 56 58 64 61 68 67 60 53 49 51 54 53 52 52 
75 62 64 83 90 80 77 85 90 81 81 80 65 106 127 55 90 137 163 167 176 178 165 148 117 95 64 54 65 76 55 31 26 35 34 36 35 28 47 87 46 47 64 89 103 123 153 172 122 99 60 58 64 62 68 70 64 56 50 50 52 52 52 54 
67 56 55 71 86 89 89 95 86 83 74 86 63 113 130 77 86 134 167 150 150 146 126 103 79 49 36 48 65 55 31 17 21 22 28 30 27 25 38 84 55 34 30 45 68 94 120 132 116 113 71 59 67 64 69 75 67 59 51 51 52 52 54 56 
58 62 58 56 70 96 106 96 82 84 80 89 77 111 137 105 73 121 168 133 129 114 84 59 41 31 34 52 64 52 40 39 26 19 23 22 30 45 42 56 73 45 28 26 38 70 95 92 119 125 83 66 71 67 71 78 67 60 54 54 53 53 53 55 
69 74 68 55 58 78 91 89 91 89 91 85 92 103 152 146 75 114 166 116 114 91 58 37 30 30 38 49 47 38 36 43 30 18 21 22 31 49 44 46 55 47 39 30 29 47 79 92 124 129 91 75 75 69 73 74 63 58 56 56 56 53 52 54 
78 70 65 64 60 57 70 89 101 99 94 80 95 91 152 181 90 112 162 103 105 83 52 35 40 41 43 43 42 37 33 33 32 22 28 34 33 35 41 53 43 36 37 42 43 54 79 97 126 114 86 81 75 68 74 65 57 55 55 57 56 52 52 53 
70 61 60 67 62 53 60 82 91 100 87 84 87 83 126 181 92 101 155 100 113 90 57 43 43 35 29 29 34 38 36 34 27 25 29 38 31 26 32 27 26 21 22 32 48 73 92 90 121 89 73 83 71 67 74 55 54 52 52 54 54 51 52 56 
61 64 66 64 59 55 58 64 74 94 76 93 80 78 99 162 82 86 148 104 129 101 64 50 27 18 11 12 19 26 32 34 41 49 45 53 53 52 45 14 6 10 14 15 27 67 101 90 117 73 62 82 69 64 73 48 53 51 50 51 51 50 53 58 
60 67 67 65 68 63 58 61 59 81 93 83 73 75 79 75 57 84 140 123 115 107 84 30 15 15 14 12 17 45 78 81 127 128 97 160 134 105 74 19 24 27 20 12 19 55 94 100 84 67 64 74 77 63 53 52 60 57 53 51 52 52 50 48 
68 70 64 62 68 67 65 69 65 78 82 73 69 72 68 58 59 67 120 132 105 103 86 30 18 19 30 46 55 68 92 108 133 135 116 150 115 108 106 65 72 50 26 19 37 77 96 86 68 60 62 73 73 60 54 58 60 58 55 53 52 51 50 49 
70 72 63 61 68 69 67 72 73 78 78 74 80 87 78 62 58 48 87 131 96 105 91 38 23 26 51 90 106 103 105 109 103 99 99 105 83 102 120 117 111 61 30 30 56 85 83 67 61 61 67 75 72 61 59 65 60 59 57 55 53 50 50 50 
64 69 66 66 71 71 67 72 71 73 71 72 80 88 78 61 60 46 59 108 100 112 86 53 32 39 62 93 112 121 108 84 74 61 72 70 70 101 107 115 113 68 45 56 81 89 78 70 61 63 68 74 71 61 59 63 59 60 60 58 53 50 50 51 
63 70 71 69 73 72 72 81 82 81 79 75 79 83 76 64 70 61 46 76 102 106 66 59 44 49 69 92 105 109 98 77 73 58 73 65 77 106 102 111 107 71 53 66 80 75 65 65 59 59 61 64 65 62 58 56 59 59 60 57 53 50 51 50 
68 74 72 69 73 72 71 79 70 72 71 69 70 74 73 67 70 71 42 47 80 77 45 47 43 43 66 98 102 91 87 87 77 65 78 61 75 96 104 120 116 74 49 50 58 59 53 51 56 57 56 58 62 65 63 57 58 58 58 57 54 52 50 50 
72 76 71 70 73 64 50 47 34 35 35 34 36 39 43 42 47 49 34 27 45 44 33 30 32 32 51 83 100 102 97 86 66 57 55 44 68 86 110 125 112 75 46 38 45 55 57 55 55 56 56 55 60 67 65 60 56 56 55 55 56 54 51 49 
70 72 70 71 74 56 30 20 22 22 20 19 19 22 24 23 26 26 26 17 25 26 29 21 24 28 39 59 97 141 125 78 56 45 36 33 69 93 125 127 73 56 35 26 30 43 54 56 51 55 55 51 53 60 61 57 57 55 54 54 56 55 52 48 
71 69 69 70 81 41 30 23 22 20 18 18 19 20 22 24 11 11 12 15 22 26 20 15 20 26 25 37 70 109 123 91 56 37 34 41 67 97 94 96 66 30 30 21 34 51 59 51 55 52 52 56 58 57 56 57 65 58 54 55 55 53 49 49 
74 70 73 71 81 29 9 9 12 13 14 16 20 23 20 17 5 5 6 10 18 21 13 7 11 19 22 32 48 68 88 79 59 44 40 41 62 92 84 78 43 27 33 21 28 44 60 59 59 58 58 59 57 53 55 60 64 59 56 57 56 54 51 52 
75 72 77 73 85 23 1 5 3 5 5 5 7 11 11 10 11 6 3 4 10 16 13 7 8 15 19 30 38 46 61 61 49 43 41 38 58 90 77 58 36 24 20 8 10 23 45 53 60 61 62 62 57 54 58 66 63 60 58 59 57 54 52 54 
75 73 78 75 90 28 1 13 11 12 11 9 6 5 6 7 11 13 13 8 4 5 8 11 10 12 13 26 39 40 44 40 38 38 40 35 54 81 58 33 36 21 10 4 7 19 39 51 56 57 60 63 62 60 63 69 63 61 60 60 56 52 50 52 
75 75 78 75 89 45 9 35 35 28 23 21 15 8 5 5 3 5 8 10 10 10 8 6 9 8 8 20 30 28 28 23 32 33 37 34 46 61 34 14 16 11 5 6 11 21 37 55 55 56 58 64 67 65 64 65 63 60 58 58 55 50 47 47 
77 79 76 76 80 64 27 41 40 31 25 27 27 23 19 17 7 5 4 5 9 12 8 4 6 6 6 13 17 14 16 15 20 21 27 27 34 38 21 11 9 10 5 8 12 22 42 66 62 59 60 65 67 64 60 59 63 58 55 56 55 51 46 44 
79 82 74 80 75 79 43 22 8 15 22 22 22 21 19 16 18 21 18 10 5 4 6 9 6 6 4 7 9 7 9 8 10 10 15 17 17 17 13 14 14 23 10 11 18 39 63 78 68 66 65 65 63 58 58 60 62 55 52 54 57 54 47 44 
77 82 74 87 72 90 50 9 6 36 81 76 49 36 24 15 9 12 15 19 23 23 18 13 7 5 2 3 5 5 7 4 7 6 10 11 8 6 6 15 13 27 11 13 27 63 73 61 71 69 68 65 59 56 58 65 61 53 49 54 59 56 50 45 
72 80 78 74 88 88 42 10 17 80 63 40 60 56 38 30 23 16 9 8 9 12 14 15 10 7 4 3 3 3 3 3 3 5 4 3 5 3 3 7 4 9 9 8 36 63 69 62 63 72 81 79 68 57 54 55 53 55 56 55 53 53 53 53 
61 66 83 98 81 43 17 9 56 50 24 25 36 34 42 46 33 30 25 20 18 15 14 12 14 10 6 4 3 3 3 4 3 4 3 3 3 2 3 8 11 10 12 19 55 64 63 60 64 72 80 80 70 60 55 54 55 57 58 57 55 53 52 51 
57 51 56 64 51 33 34 51 58 23 18 45 53 46 49 39 31 33 34 30 23 17 13 12 14 12 10 6 4 3 3 3 3 3 3 3 3 2 5 10 14 9 17 40 79 69 64 61 64 70 77 79 74 65 57 52 57 57 57 58 56 53 50 49 
56 54 53 51 49 45 42 41 45 21 18 29 31 38 47 35 36 39 42 40 36 31 29 28 21 21 19 16 11 7 5 4 3 3 3 3 3 5 9 11 10 10 30 57 83 67 65 56 63 66 71 76 76 71 62 55 56 55 55 58 57 53 49 48 
57 58 54 48 50 50 35 19 38 35 32 23 20 28 35 36 33 33 33 33 31 29 25 23 22 20 18 17 14 11 7 5 4 4 3 3 4 10 12 7 7 21 58 68 72 66 67 49 61 61 65 70 76 73 67 60 57 54 56 60 60 55 50 50 
58 53 46 43 45 50 48 43 21 33 53 54 49 38 27 33 41 38 35 34 31 27 20 16 11 10 9 10 12 12 11 10 6 6 4 3 8 15 12 6 7 34 79 70 72 71 75 58 59 58 59 64 70 72 69 65 63 57 57 62 63 57 52 53 
51 55 55 52 49 48 47 45 20 18 37 50 50 42 30 38 30 27 23 21 19 16 13 10 12 13 13 16 18 19 18 18 11 9 5 6 16 20 13 10 11 40 75 65 78 74 76 71 59 57 56 58 63 67 68 67 68 59 57 62 62 56 50 50 
42 53 52 39 36 44 46 39 33 15 25 35 36 44 41 41 28 25 21 19 18 19 19 19 19 21 25 25 23 18 14 12 16 12 6 10 27 26 16 19 20 45 67 62 83 67 62 68 61 58 55 55 59 63 66 67 69 59 56 59 59 51 46 47 
