P2
64 64
255
145 146 148 148 153 155 156 158 161 173 174 160 156 157 164 164 179 200 218 214 199 176 176 200 207 200 200 191 180 176 171 170 166 166 167 169 172 181 188 181 179 184 197 201 195 189 182 175 175 175 177 181 184 190 195 199 200 200 200 197 194 191 188 186 
139 141 143 146 148 149 156 165 172 180 182 173 171 174 185 195 199 214 224 219 207 192 185 194 199 197 197 192 190 189 185 186 180 175 174 175 177 185 200 198 192 194 206 211 200 201 191 175 175 174 175 177 180 184 189 193 192 191 189 187 185 186 184 184 
139 143 145 147 149 150 158 166 170 179 188 187 188 187 197 205 210 214 213 211 204 192 187 186 185 193 192 186 184 186 183 183 182 176 174 174 175 176 194 209 209 204 211 212 206 201 198 192 185 183 182 181 183 185 187 189 190 189 188 189 192 195 192 190 
154 152 145 145 149 153 156 156 161 170 176 179 182 186 197 197 199 202 203 196 182 176 174 172 173 176 178 174 173 175 174 172 171 169 169 169 170 178 199 217 212 207 211 207 201 200 200 202 196 192 190 190 190 186 186 188 189 188 189 189 191 193 194 192 
142 139 137 140 144 155 154 149 154 156 161 168 173 179 187 187 183 183 184 176 166 165 164 161 160 161 162 163 165 167 170 169 165 163 163 165 167 182 205 210 202 201 204 200 193 193 195 197 198 197 196 194 193 186 185 188 184 180 183 186 184 188 189 188 
128 132 136 140 141 149 152 151 149 147 150 157 168 179 182 180 178 175 169 167 166 165 166 169 173 166 163 164 166 166 167 168 167 165 164 165 165 184 203 204 195 192 188 187 186 188 192 191 192 189 186 187 187 183 184 189 185 176 176 177 177 181 185 184 
124 132 133 135 142 148 147 153 154 144 144 146 152 162 169 171 172 173 173 169 166 170 170 170 170 167 165 164 160 159 159 161 166 167 163 163 162 178 200 199 197 192 180 177 178 178 177 176 180 182 179 177 176 177 179 178 176 172 170 169 170 176 182 183 
138 149 152 141 153 153 145 139 141 140 140 139 140 143 147 151 154 155 160 162 159 157 153 149 148 149 150 152 152 151 151 152 156 158 159 168 170 189 198 186 186 185 177 170 169 168 165 165 167 174 175 173 173 174 174 171 168 166 166 166 168 171 177 184 
146 156 165 160 158 149 147 139 134 134 134 136 137 140 142 144 145 146 148 155 161 166 176 174 167 156 148 145 145 145 145 146 148 151 155 159 164 175 181 179 172 168 163 163 164 163 162 162 162 165 165 164 165 166 166 167 167 166 167 168 167 168 174 175 
106 121 137 146 154 151 150 147 143 138 134 134 132 135 139 143 146 150 153 157 163 168 173 172 169 163 156 148 143 142 143 144 147 151 155 163 165 171 171 175 175 170 165 168 172 173 174 173 169 166 161 160 160 160 161 163 163 166 168 169 169 168 167 166 
88 88 92 97 110 126 136 143 143 141 140 137 135 134 133 134 138 141 143 146 147 150 152 155 159 162 163 162 157 155 153 152 154 162 166 176 175 172 171 171 171 170 167 168 173 173 172 170 168 167 163 160 158 157 158 159 161 163 164 163 163 162 162 162 
85 87 88 90 91 94 101 109 122 129 129 128 130 136 139 138 137 140 143 145 148 152 154 158 162 162 163 162 161 158 158 156 157 159 164 167 169 168 165 164 164 163 163 163 163 162 161 161 163 163 161 157 150 150 152 153 154 154 156 157 156 156 154 154 
83 82 85 88 92 94 100 99 97 98 99 97 98 105 116 127 133 139 143 143 144 146 149 150 153 152 153 153 154 153 151 151 152 152 152 153 154 155 154 153 153 151 150 151 150 149 150 150 150 150 149 145 142 143 143 144 144 145 146 147 147 146 144 145 
96 92 86 87 86 93 96 99 100 99 101 100 95 93 93 96 102 109 123 132 135 136 137 139 141 142 142 144 145 146 144 144 144 144 144 143 144 144 144 144 144 142 140 141 142 140 140 140 141 141 141 142 141 141 142 142 140 139 140 139 138 138 139 139 
104 105 89 89 98 96 96 96 99 101 101 102 101 100 98 95 93 94 97 102 108 117 123 126 126 129 134 135 135 136 137 137 137 137 137 137 137 137 137 136 137 137 136 136 136 135 135 135 136 138 138 138 137 138 140 141 139 137 136 136 137 136 135 134 
83 86 92 89 90 93 95 94 98 107 102 103 107 103 99 92 87 89 93 94 92 95 102 109 114 115 117 125 130 132 132 134 133 132 133 133 133 133 133 133 134 133 129 128 130 129 135 136 133 132 130 130 129 129 133 136 136 134 134 133 132 131 130 130 
68 73 79 84 87 88 94 95 93 94 101 107 105 101 108 102 94 89 89 92 95 93 93 95 100 104 107 110 115 121 126 130 135 137 137 134 136 132 128 128 128 128 131 130 129 130 132 133 128 127 128 127 126 125 126 128 131 129 127 127 127 128 130 130 
67 79 74 73 76 92 91 86 93 92 95 102 101 100 103 99 96 96 95 95 96 97 92 87 86 89 90 91 92 90 91 92 97 103 118 130 129 121 123 122 122 124 126 124 123 124 126 127 126 124 124 124 128 128 127 127 124 126 129 128 129 130 130 129 
58 61 67 78 75 80 73 69 71 76 74 75 89 107 100 96 95 99 101 103 103 97 93 103 104 96 101 105 94 96 116 110 101 103 108 113 127 138 131 130 122 119 118 118 120 127 129 127 123 122 125 135 136 133 126 128 129 130 131 129 127 126 126 125 
56 64 68 69 67 65 67 69 71 69 68 67 72 76 79 85 90 97 95 99 99 101 119 130 135 115 134 141 132 120 135 164 162 140 128 118 128 145 148 134 143 142 132 117 121 148 139 130 129 133 128 122 124 121 113 119 121 117 115 118 120 123 129 126 
57 58 59 71 64 63 64 66 82 73 68 69 76 78 77 81 86 84 77 76 76 81 121 134 152 144 115 119 113 117 125 117 118 113 101 110 114 107 111 102 117 130 127 130 124 124 123 126 139 125 115 126 112 123 127 113 120 129 122 116 114 113 112 110 
55 56 55 61 67 65 65 67 75 73 72 73 74 71 68 72 76 80 83 82 73 85 102 128 124 113 111 126 125 119 107 111 113 122 105 101 102 103 96 97 108 121 141 134 134 135 131 160 150 158 151 155 143 124 144 134 139 165 155 152 138 140 143 145 
52 52 60 61 61 55 63 73 71 69 76 85 86 75 70 68 66 69 93 91 80 87 92 91 96 87 87 116 139 119 94 101 100 103 107 108 107 110 135 129 101 124 126 128 140 142 152 175 155 170 173 147 148 139 137 143 146 141 122 133 137 150 171 164 
67 69 68 59 58 74 71 71 79 86 90 102 96 80 94 105 97 84 112 103 100 98 89 88 96 91 80 83 84 93 93 97 98 95 93 87 101 98 119 120 100 102 98 87 96 110 124 119 127 121 124 123 118 119 114 106 109 106 103 107 109 117 121 104 
77 71 85 83 87 82 76 78 80 83 87 104 101 117 112 129 128 102 79 101 91 89 102 112 100 96 94 90 90 98 93 83 97 102 93 88 97 111 113 100 101 106 106 108 117 131 169 149 104 92 100 118 133 134 146 134 115 143 157 117 112 121 127 127 
85 81 90 98 106 89 76 76 88 89 91 90 78 92 96 89 105 97 94 94 105 103 132 106 94 102 95 117 119 123 124 124 136 150 151 166 130 142 168 152 147 145 151 165 173 168 153 182 132 124 134 148 166 185 168 158 141 154 182 155 123 112 137 160 
76 82 84 81 82 78 81 97 97 90 87 97 104 95 107 88 108 106 129 151 116 111 123 139 131 118 122 137 119 127 122 134 145 151 155 154 152 156 167 178 184 157 166 166 142 139 135 139 133 129 138 158 161 153 144 156 156 143 137 149 126 87 110 113 
99 102 93 92 93 112 108 97 121 128 114 105 150 137 118 126 108 124 125 151 141 145 143 149 130 141 166 151 136 120 146 134 142 171 161 142 133 149 157 137 129 141 168 140 160 158 150 140 157 124 127 120 117 113 103 106 112 116 105 116 121 111 129 137 
114 103 120 118 149 165 109 69 125 140 128 138 132 125 135 141 134 140 142 138 127 131 139 134 152 141 121 134 180 152 159 160 129 147 159 145 128 130 122 128 142 164 133 132 108 133 106 96 102 89 88 85 107 125 118 120 138 147 145 148 148 151 151 138 
133 129 108 139 136 133 112 94 88 127 141 107 98 92 95 94 95 90 134 93 92 102 111 135 141 143 127 111 126 133 119 127 127 104 114 110 126 125 94 114 89 84 67 81 103 121 139 132 136 135 139 145 142 136 135 135 128 125 121 120 119 118 119 118 
99 108 105 94 87 104 104 130 100 100 125 109 109 106 102 88 88 75 90 108 107 104 105 111 149 165 116 113 145 111 126 107 76 63 82 81 72 80 93 96 76 74 82 99 129 124 133 132 123 115 110 108 107 106 104 102 103 103 102 102 102 103 104 105 
54 68 70 86 78 72 79 95 68 54 78 68 76 76 87 85 72 70 68 90 106 73 115 115 145 123 80 96 83 73 114 80 53 64 70 92 72 90 105 100 121 127 117 110 108 108 104 102 100 98 98 98 98 97 97 94 93 92 92 92 93 93 94 94 
50 42 55 57 55 49 62 66 49 43 49 64 52 45 54 67 72 68 71 62 49 55 63 55 77 76 49 76 83 111 87 54 58 90 88 114 106 116 119 125 121 108 106 106 103 101 100 98 96 94 93 92 92 90 91 91 90 90 90 90 90 91 91 91 
56 56 61 66 50 46 48 49 46 46 37 40 45 40 37 57 57 43 37 41 38 42 39 61 47 35 36 64 65 63 52 63 81 109 109 119 117 113 113 112 106 103 101 99 98 96 95 93 92 90 90 90 89 89 89 89 88 88 87 87 87 88 87 88 
79 89 68 64 58 51 60 57 46 39 43 28 36 34 28 37 32 34 39 25 27 28 26 44 97 93 96 57 44 37 64 89 102 109 91 95 95 97 99 100 99 99 99 97 96 94 93 91 90 89 88 87 87 86 86 86 85 85 85 85 85 86 86 86 
51 49 51 35 58 70 67 55 57 53 49 45 40 30 32 32 23 30 33 25 23 26 25 46 103 95 92 43 43 60 81 83 78 77 78 92 93 93 92 93 92 92 91 90 90 89 88 88 88 87 85 85 85 84 84 84 84 84 83 82 83 83 82 82 
49 53 60 65 73 60 72 68 68 61 68 37 30 29 30 25 26 27 30 29 30 38 31 32 30 41 49 46 59 50 63 77 84 83 72 73 83 90 97 94 93 92 88 86 87 86 85 85 84 84 84 83 82 83 82 82 83 83 82 82 81 80 80 80 
67 81 63 58 57 67 80 58 52 56 33 26 23 17 18 17 18 21 22 24 28 28 28 33 28 40 65 60 41 40 61 85 90 62 66 63 54 57 63 75 86 87 87 86 79 82 85 82 82 82 79 80 81 80 81 83 85 84 83 81 81 81 82 82 
72 65 58 56 74 87 88 72 58 61 32 24 35 37 26 20 21 23 21 25 24 20 24 24 33 74 90 41 28 33 54 65 61 58 59 60 57 56 49 49 58 58 55 59 61 56 60 66 69 71 80 77 77 83 68 67 64 70 74 80 80 81 82 83 
50 60 88 48 79 78 60 52 48 42 27 34 42 45 40 39 45 32 26 27 28 23 21 25 36 51 38 22 31 46 54 55 72 67 73 72 73 78 80 79 81 80 73 70 42 52 66 64 60 51 55 67 57 56 54 54 53 49 57 81 81 81 82 84 
35 62 93 69 53 61 71 64 53 33 30 40 37 40 39 48 33 20 25 26 24 20 22 35 48 29 31 37 37 49 47 53 57 67 71 77 79 80 81 82 82 82 81 83 58 68 83 75 76 75 66 63 69 71 71 75 79 77 78 78 79 80 80 81 
74 80 97 97 64 63 81 71 50 30 54 47 43 46 46 44 48 76 45 36 39 27 37 51 54 32 26 32 53 49 36 36 39 40 43 49 61 74 75 75 76 76 76 76 74 76 76 77 76 75 75 75 76 76 76 75 75 76 77 78 80 80 80 81 
84 62 83 86 77 72 97 61 24 49 57 48 39 51 33 20 50 82 52 47 70 44 56 50 49 35 30 46 64 49 50 37 34 26 26 33 62 74 75 75 75 76 76 75 74 75 76 75 75 74 74 74 74 74 74 75 76 77 77 78 79 80 86 87 
58 77 89 105 59 35 32 20 33 46 44 40 32 25 18 30 25 17 19 29 44 43 52 64 44 31 41 57 51 62 56 40 40 33 41 57 63 71 72 73 73 74 75 75 74 74 75 74 73 73 73 73 73 74 74 75 75 76 77 76 79 73 57 77 
42 43 61 95 50 45 26 25 54 38 31 34 32 18 21 38 42 43 45 31 29 37 46 40 37 24 38 59 53 54 31 35 39 36 37 38 63 72 71 71 70 71 71 72 71 71 72 72 72 71 71 71 71 71 72 73 74 74 76 77 75 53 44 34 
48 54 68 79 69 66 65 71 68 74 73 76 59 42 36 46 65 54 30 22 48 37 41 39 38 25 29 55 59 84 62 39 37 42 36 45 53 66 73 72 71 71 70 69 70 70 71 71 71 70 70 70 70 70 69 71 73 74 76 79 75 34 41 51 
66 76 51 56 55 55 71 65 91 73 49 58 58 53 48 48 61 42 54 57 43 24 47 52 41 34 58 72 72 75 68 34 40 50 44 45 41 51 65 70 69 68 68 68 68 69 70 70 70 68 70 71 70 68 70 72 67 73 75 75 77 71 70 81 
41 73 39 34 25 26 69 39 39 33 30 66 67 42 71 57 50 54 59 62 58 53 60 50 52 48 42 58 61 67 67 60 33 28 36 31 22 30 52 62 67 68 68 68 67 67 67 68 59 55 66 71 68 48 50 68 41 52 67 74 72 70 71 72 
16 22 16 13 13 13 34 39 27 40 40 39 38 35 34 33 18 13 36 54 54 31 42 48 41 39 25 37 38 35 50 60 55 46 30 36 41 29 31 51 60 67 66 66 66 65 65 61 50 53 51 65 43 33 38 51 43 38 44 75 74 73 73 73 
14 12 12 14 20 14 19 20 19 50 34 22 21 30 19 24 15 9 15 22 37 17 34 38 38 27 23 31 27 31 38 37 44 41 47 58 67 51 34 41 62 62 66 66 65 63 63 60 51 43 35 34 31 24 23 37 38 37 42 57 38 60 70 67 
11 10 10 13 19 20 20 12 12 21 32 25 32 40 33 41 15 17 25 25 41 24 18 18 17 24 21 18 25 87 120 74 50 37 30 45 48 27 30 73 58 50 56 55 57 61 62 43 22 14 27 23 28 27 27 33 22 20 31 43 28 46 71 64 
9 13 12 10 18 22 15 9 11 16 16 42 18 12 16 31 27 41 30 21 54 49 19 33 28 31 30 29 97 130 97 134 121 60 59 50 42 20 29 46 57 64 71 54 46 56 66 39 24 21 21 21 20 21 23 23 17 18 22 35 45 29 47 61 
10 12 16 12 10 13 13 12 11 12 13 17 15 14 15 14 16 21 23 16 27 34 35 35 40 22 15 76 59 59 49 72 87 39 40 36 31 24 11 16 25 27 22 26 44 46 67 78 51 30 20 17 16 15 16 17 17 22 30 35 36 25 27 38 
11 13 13 12 12 10 8 9 10 10 13 13 15 12 13 17 14 16 20 31 35 41 40 37 38 34 31 37 12 31 43 64 101 67 32 31 34 45 25 10 13 24 17 18 29 46 25 29 32 16 18 15 14 15 16 15 16 20 26 30 23 28 29 28 
13 13 10 9 13 11 9 12 11 12 15 14 10 9 11 16 15 20 19 25 37 41 27 29 32 32 39 31 26 56 75 110 138 134 60 56 60 67 53 32 19 39 47 40 36 39 22 15 23 19 14 12 13 16 17 19 13 12 14 14 14 14 21 16 
7 7 6 6 10 10 10 13 12 10 11 13 11 7 10 12 12 19 17 21 21 24 23 23 33 45 49 57 39 41 111 81 59 86 82 51 67 50 75 81 66 26 28 26 25 23 42 37 36 18 13 12 10 11 12 19 15 12 10 16 14 11 12 15 
6 7 5 5 7 8 8 8 8 8 9 10 12 10 10 9 10 16 15 16 18 18 19 20 80 98 80 77 65 31 31 54 68 56 102 83 45 74 67 57 65 73 45 34 24 25 31 37 29 18 13 13 9 11 12 15 14 14 12 14 11 9 11 13 
11 11 4 4 5 6 5 5 7 7 10 10 11 13 12 10 11 15 16 15 14 16 17 23 49 65 30 22 33 33 11 55 76 43 63 51 49 63 64 29 27 55 41 25 26 34 29 22 22 15 12 12 10 12 14 14 12 13 13 10 9 8 9 12 
10 9 8 8 9 11 10 11 11 10 12 15 15 17 15 10 11 13 12 16 16 16 19 15 10 18 26 29 46 19 6 19 73 71 71 46 21 60 56 29 30 45 34 21 20 28 29 34 21 11 8 10 12 11 12 14 11 12 13 9 9 13 12 11 
11 14 15 8 16 13 11 16 10 8 11 13 15 15 13 9 8 12 14 16 14 19 27 7 12 42 36 19 16 8 9 16 32 100 110 75 21 33 91 26 45 61 30 18 18 23 19 19 19 14 9 10 9 6 9 11 10 13 13 12 8 12 12 15 
12 13 11 12 13 12 14 15 9 6 12 14 14 15 12 7 11 18 15 11 13 18 16 17 20 23 14 17 16 16 18 13 13 36 44 51 28 9 49 36 27 36 21 17 14 16 16 11 17 20 10 10 11 7 6 8 11 11 11 11 9 8 8 11 
8 12 10 12 12 12 12 16 9 9 14 17 17 16 14 13 14 14 13 12 12 16 15 19 22 15 15 19 19 20 16 13 11 20 23 24 19 13 25 21 27 27 16 18 16 13 12 9 13 16 10 12 11 9 8 7 10 13 13 13 12 8 5 7 
8 10 8 9 14 11 10 16 12 9 14 17 18 17 16 16 18 15 14 12 11 11 12 10 12 15 19 19 16 14 20 19 17 17 12 14 13 15 17 17 16 14 15 13 12 11 9 14 14 11 9 11 8 6 8 9 12 13 12 13 10 9 5 7 
8 11 9 8 12 8 12 18 22 16 17 17 16 19 15 12 15 13 11 10 10 9 7 8 12 15 14 14 14 16 19 19 18 15 14 11 12 12 12 13 10 9 15 21 8 9 8 14 15 14 11 9 7 5 6 8 10 10 6 9 14 10 5 6 
