P2
64 15
255
177 177 177 177 177 177 177 177 177 177 0 0 0 0 0 0 0 0 0 0 0 0 0 0 0 177 177 177 177 177 177 177 177 177 177 177 0 0 0 0 0 0 0 0 0 0 0 0 0 0 0 0 0 0 0 0 0 0 0 0 0 0 0 0 
177 177 177 177 177 177 177 177 177 177 0 0 0 0 0 0 0 0 0 0 0 177 177 177 177 177 177 177 177 177 177 177 177 177 177 177 177 177 177 177 177 0 0 0 0 0 0 0 0 0 0 0 0 0 0 0 0 0 0 0 0 0 0 0 
177 177 177 177 177 177 177 177 177 177 0 0 0 0 0 0 0 0 0 0 177 177 177 177 177 177 177 177 177 177 177 177 177 177 177 177 177 177 177 177 177 177 0 0 0 0 0 0 0 0 0 0 0 0 0 0 0 0 0 0 0 0 0 0 
177 177 177 177 177 177 177 177 177 177 0 0 0 0 0 0 0 0 177 177 177 177 177 177 177 177 177 177 177 177 177 177 177 177 177 177 177 177 177 177 177 177 177 177 0 0 0 0 0 0 0 0 177 177 177 177 177 177 0 0 0 0 0 0 
177 177 177 177 177 177 177 177 177 177 0 0 0 0 0 0 0 177 177 177 177 177 177 177 177 177 177 177 177 177 177 177 177 177 177 177 177 177 177 177 177 177 177 177 0 0 0 0 0 0 177 177 177 177 177 177 177 177 177 177 177 177 177 177 
177 177 177 177 177 177 177 177 177 177 0 0 0 0 0 0 0 177 177 177 177 177 177 177 177 177 177 177 177 177 177 177 177 177 177 177 177 177 177 177 177 177 177 177 0 0 0 0 177 177 177 177 177 177 177 177 177 177 177 177 177 177 177 177 
177 177 177 177 177 177 177 177 177 177 0 0 0 0 0 0 0 177 177 177 177 177 177 177 177 177 177 177 177 177 177 177 177 177 177 177 177 177 177 177 177 177 177 177 0 0 0 177 177 177 177 177 177 177 177 177 177 177 177 177 177 177 177 177 
177 177 177 177 177 177 177 177 177 0 0 0 0 0 0 0 0 177 177 177 177 177 177 177 177 177 177 177 177 177 177 177 177 177 177 177 177 177 177 177 177 177 177 177 0 0 0 177 177 177 177 177 177 177 177 177 177 177 177 177 177 177 177 177 
177 177 177 177 177 177 177 177 177 0 0 0 0 0 0 0 0 177 177 177 177 177 177 177 177 177 177 177 177 177 177 177 177 177 177 177 177 177 177 177 177 177 177 177 0 0 0 177 177 177 177 177 177 177 177 177 177 177 177 177 177 177 177 177 
177 177 177 177 177 177 177 177 0 0 0 0 0 0 0 0 0 177 177 177 177 177 177 177 177 177 177 177 177 177 177 177 177 177 177 177 177 177 177 177 177 177 177 177 0 0 0 177 177 177 177 177 177 177 177 177 177 177 177 177 177 177 177 177 
0 0 0 0 0 0 0 0 0 0 0 0 0 0 0 0 0 177 177 177 177 177 177 177 177 177 177 177 177 177 177 177 177 177 177 177 177 177 177 177 177 177 177 177 0 0 0 177 177 177 177 177 177 177 177 177 177 177 177 177 177 177 177 177 
0 0 0 0 0 0 0 0 0 0 0 0 0 0 0 0 0 177 177 177 177 177 177 177 177 177 177 177 177 177 177 177 177 177 177 177 177 177 177 177 177 177 177 177 0 0 0 177 177 177 177 177 177 177 177 177 177 177 177 177 177 177 177 177 
0 0 0 0 0 0 0 0 0 0 0 0 0 0 0 0 0 0 177 177 177 177 177 177 177 177 177 177 177 177 177 177 177 177 177 177 177 177 177 177 177 177 177 0 0 0 0 177 177 177 177 177 177 177 177 177 177 177 177 177 177 177 177 177 
0 0 0 0 0 0 0 0 0 0 0 0 0 0 0 0 0 0 0 177 177 177 177 177 177 177 177 177 177 177 177 177 177 177 177 177 177 177 177 177 177 0 0 0 0 0 0 177 177 177 177 177 177 177 177 177 177 177 177 177 177 177 177 177 
0 0 0 0 0 0 0 0 0 0 0 0 0 0 0 0 0 0 0 177 177 177 177 177 177 177 177 177 177 177 177 177 177 177 177 177 177 177 177 177 0 0 0 0 0 0 0 0 177 177 177 177 177 177 177 177 177 177 177 177 177 177 177 0 
