P2
16 16
255
132 133 136 135 134 163 195 194 194 194 194 194 194 193 194 194 
121 124 137 143 147 174 195 194 194 194 194 194 194 194 194 194 
179 176 168 183 191 194 196 194 195 196 195 194 194 194 194 194 
192 185 186 196 192 189 170 104 103 141 183 196 195 195 195 195 
103 102 114 160 153 133 71 28 39 46 90 166 170 166 161 165 
33 35 39 51 68 58 39 40 57 53 32 77 105 111 127 129 
28 25 26 28 29 29 40 40 41 43 39 44 40 44 85 104 
16 15 15 16 16 22 40 39 37 32 43 39 29 29 56 98 
10 12 12 11 10 16 21 18 24 12 28 47 27 27 43 62 
4 5 6 5 4 8 22 22 36 28 37 39 18 15 17 18 
4 4 4 4 3 5 26 25 27 17 20 25 12 11 11 11 
4 4 4 4 3 3 12 18 17 20 17 24 16 11 8 9 
3 3 3 3 5 10 25 42 18 16 16 28 47 78 27 12 
7 6 9 43 112 89 73 72 15 11 22 15 22 153 89 37 
26 36 114 183 173 85 87 54 11 14 22 6 28 147 98 17 
32 131 174 140 112 82 110 58 6 13 10 4 42 122 108 23 
