P2
16 16
255
131 133 136 135 136 168 195 194 194 194 194 191 187 194 194 194 
123 126 137 143 149 176 194 194 194 194 194 194 194 194 194 194 
179 177 169 182 191 194 196 194 195 196 195 194 194 194 194 194 
192 186 186 196 193 191 170 104 103 140 184 196 195 195 195 195 
103 101 116 161 157 135 70 28 40 47 90 169 173 170 164 166 
33 35 41 52 66 57 39 40 57 53 32 76 105 112 129 129 
29 26 27 25 28 29 40 40 41 42 38 43 40 45 82 104 
14 15 16 16 16 22 40 39 37 32 44 39 28 29 54 95 
8 10 10 9 9 15 21 17 24 12 28 47 28 27 43 60 
5 6 6 5 5 9 22 22 36 28 36 38 19 15 16 17 
4 4 4 4 4 5 26 24 27 16 20 24 11 10 11 11 
4 4 4 4 3 3 13 19 17 20 18 24 16 11 9 10 
3 3 3 3 5 10 26 43 19 16 16 27 47 77 27 12 
7 6 9 43 112 90 73 71 15 12 21 14 22 154 91 37 
25 36 113 182 174 84 86 53 12 16 21 5 27 146 98 17 
32 133 177 139 111 81 107 55 6 13 10 3 40 120 107 22 
