P2
16 16
255
128 130 135 135 134 152 180 180 180 180 179 173 170 179 180 180 
118 121 134 138 142 161 180 180 180 180 179 179 179 180 180 180 
167 163 158 168 177 180 181 180 180 181 180 180 180 180 180 180 
176 171 170 181 177 174 160 105 105 131 169 182 181 180 180 180 
112 109 122 154 145 129 77 36 48 56 96 157 158 154 152 155 
51 56 59 65 77 69 46 45 64 61 41 85 110 114 125 127 
32 34 33 30 30 35 45 45 45 47 45 55 44 54 96 105 
28 28 28 28 28 32 45 44 42 39 51 46 30 30 67 103 
24 26 26 26 24 29 31 27 33 22 39 53 33 31 53 72 
15 16 17 15 14 18 32 32 42 36 41 44 29 25 28 29 
13 13 13 13 13 15 34 32 34 26 27 32 22 20 23 23 
13 13 13 13 13 12 23 29 27 29 27 33 27 20 18 18 
13 13 13 13 15 22 38 53 30 29 24 34 55 82 37 20 
18 16 21 56 114 92 78 77 25 23 28 24 35 147 92 47 
36 45 114 170 161 89 91 65 22 28 30 15 41 141 101 30 
41 128 162 136 114 88 110 69 16 27 23 13 54 120 108 35 
