P2
16 16
255
255 255 255 255 255 255 250 240 241 250 255 255 255 255 255 255 
255 255 255 255 232 183 160 156 157 159 185 235 255 255 255 255 
255 255 255 198 147 187 226 209 205 223 188 152 203 255 255 255 
255 255 197 158 215 202 248 192 192 255 223 223 155 202 255 255 
255 228 148 226 243 206 247 221 227 255 225 249 222 150 232 255 
255 176 183 178 223 255 255 210 220 254 244 239 209 187 179 255 
244 158 224 202 226 248 255 196 193 202 236 249 239 229 157 247 
230 159 212 243 247 239 239 166 108 212 255 255 248 218 155 235 
229 159 199 239 255 255 255 206 192 221 252 255 240 199 156 234 
241 156 236 251 254 255 255 255 255 255 255 255 254 230 157 245 
255 168 199 193 246 255 255 255 255 255 255 247 209 196 173 255 
255 218 150 214 251 242 254 255 255 253 239 251 213 151 223 255 
255 255 181 173 236 216 254 226 234 250 198 233 166 186 255 255 
255 255 250 181 155 201 241 214 221 238 197 153 184 252 255 255 
255 255 255 254 214 165 156 159 159 156 168 218 255 255 255 255 
255 255 255 255 255 254 236 221 222 237 254 255 255 255 255 255 
