P2
16 16
255
255 255 255 255 255 255 243 223 224 244 255 255 255 255 255 255 
255 255 255 255 206 121 89 83 85 89 123 211 255 255 255 255 
255 255 254 144 76 127 192 163 156 188 127 80 152 255 255 255 
255 255 142 87 173 150 240 137 135 255 188 188 84 151 255 255 
255 197 75 194 229 157 237 185 196 255 193 241 184 76 205 255 
255 110 121 115 190 255 255 165 183 252 231 220 161 129 115 255 
230 86 190 151 196 238 255 141 137 151 215 241 220 200 86 238 
203 87 168 229 238 220 220 98 39 168 255 255 240 179 84 211 
199 87 147 220 255 255 255 158 135 186 248 255 222 146 83 209 
224 85 214 248 254 255 255 255 255 255 255 255 253 202 85 232 
255 99 145 138 236 255 255 255 255 255 255 237 163 140 107 255 
255 179 78 173 246 226 252 255 255 250 220 245 169 78 188 255 
255 254 118 105 213 175 253 195 212 244 144 207 97 125 255 255 
255 255 245 116 82 150 223 172 185 218 141 80 122 248 255 255 
255 255 255 253 171 96 84 88 89 85 100 178 255 255 255 255 
255 255 255 255 255 252 215 184 184 216 253 255 255 255 255 255 
