P2
16 16
255
231 223 164 125 174 188 170 56 27 15 9 8 7 24 182 234 
232 207 58 19 119 135 132 29 24 12 3 2 2 3 119 239 
232 197 102 55 33 25 115 26 22 11 8 3 2 3 111 240 
232 199 55 17 58 58 126 52 52 29 9 5 3 3 112 240 
232 205 122 77 122 149 143 45 53 57 34 12 9 6 112 239 
231 203 221 228 228 237 138 25 34 41 48 33 20 16 117 239 
231 203 222 232 231 228 119 15 18 20 20 22 21 24 121 238 
232 202 209 217 200 173 102 6 8 10 11 8 4 5 112 239 
232 193 179 181 175 152 92 4 2 2 3 2 3 4 111 239 
233 187 153 160 155 155 93 4 2 2 2 3 5 6 114 239 
233 187 147 151 151 154 90 4 2 2 4 4 6 3 111 240 
233 183 137 142 140 137 79 3 2 4 3 4 3 3 109 240 
233 179 121 124 122 119 69 3 3 4 4 4 2 3 109 240 
234 173 100 100 98 95 60 6 9 8 4 2 2 3 109 240 
234 173 89 89 89 90 59 9 8 2 2 2 2 3 118 239 
233 203 104 85 85 84 70 19 10 6 6 6 6 24 184 234 
