P2
16 16
255
252 236 157 124 182 192 163 56 26 14 8 7 5 22 196 255 
253 216 56 17 127 146 129 29 24 11 3 2 1 2 124 255 
253 212 107 53 32 23 109 26 21 10 5 4 2 2 115 255 
253 212 53 16 56 56 120 52 53 28 7 4 4 3 118 255 
253 211 120 77 128 148 131 45 56 58 35 10 6 5 119 255 
253 203 210 242 241 218 122 25 33 40 48 33 19 14 126 255 
253 202 187 207 204 197 118 14 17 19 20 22 21 24 132 255 
253 208 185 191 189 174 107 6 6 9 9 7 5 5 119 255 
253 209 185 192 180 148 102 4 3 3 3 3 3 3 116 255 
253 209 186 192 191 194 104 2 1 1 1 2 4 6 119 255 
254 201 169 179 169 153 80 2 1 1 3 4 6 4 119 255 
255 185 118 123 119 119 72 2 1 3 2 3 5 4 119 255 
255 185 114 116 116 120 72 2 2 4 3 4 2 2 116 255 
255 185 114 116 115 113 66 6 9 7 3 1 1 2 115 255 
255 178 83 83 80 76 51 8 8 1 1 1 1 2 124 255 
254 216 94 74 76 76 65 18 10 5 5 5 5 23 199 255 
