P2
16 16
255
13 13 21 24 20 19 15 13 13 14 28 33 20 13 13 13 
13 13 20 22 22 23 17 13 13 13 22 25 17 13 13 13 
13 13 16 16 19 21 15 13 13 13 19 19 15 13 13 13 
13 16 16 16 15 15 14 14 16 16 15 14 13 13 13 13 
13 13 13 13 13 13 13 13 13 13 13 13 13 13 13 13 
13 13 13 13 14 13 13 13 13 13 18 21 16 13 13 13 
13 13 13 13 14 13 13 13 13 16 23 21 20 14 13 13 
13 13 13 13 14 14 13 13 13 16 20 21 20 14 13 13 
13 14 14 15 15 14 14 13 14 14 15 17 15 14 13 13 
13 15 15 14 15 13 13 13 16 14 13 13 14 13 13 13 
13 13 13 13 18 30 42 54 54 50 54 19 13 13 13 13 
13 13 13 13 27 61 53 65 55 55 77 27 13 13 13 13 
13 13 13 13 24 40 33 34 34 33 40 24 13 13 13 13 
13 13 13 13 19 14 12 12 12 12 13 19 13 13 13 13 
13 13 13 13 27 68 59 57 62 68 74 26 13 13 13 13 
13 13 13 12 33 166 166 165 172 161 141 28 13 13 13 13 
