P2
16 16
255
212 212 212 212 212 212 211 211 211 211 212 212 212 212 212 212 
212 212 212 212 211 212 212 212 212 212 212 211 212 212 212 212 
212 212 212 212 212 212 212 212 212 212 212 212 212 212 212 212 
212 212 212 212 212 212 212 212 212 212 212 212 212 212 212 212 
212 211 212 212 212 212 212 212 212 212 212 212 212 212 211 212 
212 212 212 212 212 212 212 212 212 212 212 212 212 212 212 212 
211 212 212 212 212 212 212 212 212 212 212 212 212 212 212 211 
211 212 212 212 212 212 212 212 212 212 212 212 212 212 212 211 
211 212 212 212 212 212 212 212 212 212 212 212 212 212 212 211 
211 212 212 212 212 212 212 212 212 212 212 212 212 212 212 211 
212 212 212 212 212 212 212 212 212 212 212 212 212 212 212 212 
212 211 212 212 212 212 212 212 212 212 212 212 212 212 211 212 
212 212 212 212 212 212 212 212 212 212 212 212 212 212 212 212 
212 212 212 212 212 212 212 212 212 212 212 212 212 212 212 212 
212 212 212 212 211 212 212 212 212 212 212 211 212 212 212 212 
212 212 212 212 212 212 211 211 211 211 212 212 212 212 212 212 
