P2
16 16
255
0 0 0 0 212 212 212 212 212 212 212 212 0 0 0 0 
0 0 212 212 212 212 212 212 212 212 212 212 212 212 0 0 
0 212 212 212 212 212 212 212 212 212 212 212 212 212 212 0 
0 212 212 212 212 212 212 212 212 212 212 212 212 212 212 0 
212 212 212 212 212 212 212 212 212 212 212 212 212 212 212 212 
212 212 212 212 212 212 212 212 212 212 212 212 212 212 212 212 
212 212 212 212 212 212 212 212 212 212 212 212 212 212 212 212 
212 212 212 212 212 212 212 212 212 212 212 212 212 212 212 212 
212 212 212 212 212 212 212 212 212 212 212 212 212 212 212 212 
212 212 212 212 212 212 212 212 212 212 212 212 212 212 212 212 
212 212 212 212 212 212 212 212 212 212 212 212 212 212 212 212 
212 212 212 212 212 212 212 212 212 212 212 212 212 212 212 212 
0 212 212 212 212 212 212 212 212 212 212 212 212 212 212 0 
0 212 212 212 212 212 212 212 212 212 212 212 212 212 212 0 
0 0 212 212 212 212 212 212 212 212 212 212 212 212 0 0 
0 0 0 0 212 212 212 212 212 212 212 212 0 0 0 0 
