P2
16 16
255
21 21 21 21 21 21 21 21 21 21 21 21 21 21 22 23 
21 21 20 24 39 42 44 45 47 49 48 49 52 50 46 44 
20 20 20 28 66 74 68 75 91 91 74 70 84 71 29 14 
19 20 20 31 90 89 87 94 104 107 109 105 91 74 42 39 
20 20 20 29 83 88 88 94 88 91 98 109 101 62 63 74 
19 20 20 26 64 75 72 71 71 79 61 51 63 16 11 23 
20 20 20 21 22 30 38 29 32 39 35 35 40 20 19 30 
20 20 20 22 28 37 46 51 66 69 65 53 26 17 14 16 
21 20 20 22 33 37 37 60 68 60 61 67 24 9 9 9 
21 21 20 22 25 25 26 27 30 29 34 31 19 14 14 15 
21 21 21 21 24 25 26 23 21 21 24 24 24 21 21 21 
20 20 21 21 23 25 25 23 21 21 26 31 31 28 30 22 
20 20 21 20 23 31 33 29 22 20 21 30 33 34 29 21 
21 21 21 21 23 25 27 23 21 21 22 30 36 30 22 21 
21 21 21 21 22 23 23 21 20 21 29 38 29 21 21 21 
20 21 21 20 20 19 20 20 20 21 20 20 20 20 20 20 
