P2
16 16
255
19 19 19 20 20 20 20 20 20 20 20 20 20 20 21 23 
19 19 19 24 49 53 52 50 52 53 53 53 55 54 46 43 
19 19 19 28 70 75 70 74 89 92 78 72 84 76 32 14 
19 19 19 32 91 88 87 93 102 106 107 103 90 79 46 41 
19 19 19 31 85 88 88 94 87 90 97 107 99 65 63 73 
19 19 19 26 61 74 69 72 76 83 66 53 61 17 11 23 
19 19 20 18 20 33 40 32 34 40 35 34 36 20 20 29 
19 19 19 22 29 38 46 42 41 44 46 40 17 15 14 15 
19 19 19 21 34 37 37 42 44 44 46 45 21 10 10 10 
19 19 19 21 24 24 25 26 28 28 32 29 20 15 15 16 
19 19 19 20 24 25 26 24 20 20 24 24 23 20 20 20 
19 19 19 21 29 31 28 27 22 20 30 35 33 30 31 22 
19 19 19 20 28 34 29 28 22 20 25 34 33 35 30 20 
19 19 19 21 27 26 26 23 20 19 21 29 35 29 21 22 
19 19 19 20 22 23 22 21 19 20 27 35 28 21 21 21 
19 19 19 19 19 19 19 19 19 19 19 19 19 19 19 19 
