P2
16 16
255
18 18 18 19 19 19 19 19 19 19 19 19 19 19 20 21 
18 18 18 21 31 32 31 34 33 32 31 31 32 31 37 43 
18 18 18 24 53 58 52 61 75 76 61 53 52 48 26 14 
18 18 18 28 79 77 74 83 98 104 104 99 87 66 36 37 
18 18 18 28 82 86 85 91 86 87 92 104 93 56 56 68 
18 18 18 24 59 73 69 68 70 71 57 49 55 16 11 21 
18 18 18 19 21 30 37 29 30 35 31 31 36 19 18 27 
18 18 18 20 26 34 43 46 57 59 55 45 22 15 14 16 
18 18 18 20 30 34 34 53 56 47 49 56 24 10 10 10 
18 18 18 20 22 22 23 24 25 25 31 29 20 14 14 15 
18 18 18 19 22 22 22 21 19 19 21 21 21 19 19 19 
18 18 18 20 27 29 25 25 20 19 26 29 28 26 26 20 
18 18 18 19 26 29 25 23 20 18 23 29 27 28 25 19 
18 18 18 20 24 22 23 21 19 18 20 27 32 26 19 19 
18 18 18 19 20 21 21 19 18 19 26 35 26 19 19 19 
18 18 18 18 18 18 18 18 18 18 18 18 18 18 18 18 
