P2
16 16
255
6 24 37 19 17 17 18 17 18 17 21 13 5 5 5 5 
6 22 35 15 14 13 14 13 13 13 15 11 6 6 6 6 
9 8 8 7 7 7 7 7 7 7 7 7 8 8 8 8 
9 8 7 7 8 9 14 12 13 7 8 7 8 33 44 59 
10 4 3 3 4 4 4 4 5 3 3 3 5 53 76 122 
17 2 12 5 6 4 6 6 8 5 7 2 2 34 66 119 
18 2 25 13 13 8 11 15 21 9 19 3 2 22 62 118 
18 2 2 2 1 1 1 1 1 1 1 1 2 17 69 118 
28 3 22 19 15 15 15 10 15 12 11 9 2 34 85 118 
36 3 4 5 4 4 5 4 5 4 4 4 2 30 64 86 
37 3 1 1 1 1 1 1 1 1 1 1 1 5 8 8 
38 4 2 3 3 2 2 2 3 3 3 2 2 2 2 2 
54 9 9 10 9 12 14 13 11 9 10 10 6 8 10 10 
81 11 9 8 8 13 18 17 10 8 8 9 6 11 18 17 
84 11 16 17 14 16 15 14 15 16 9 6 6 9 12 12 
84 11 12 12 10 8 6 7 14 16 16 9 6 8 13 11 
