P2
16 16
255
7 27 44 20 18 18 19 17 19 18 23 15 6 6 6 6 
8 24 38 16 15 14 15 14 14 14 17 12 7 7 7 7 
10 8 7 7 7 7 7 7 7 7 7 8 8 8 8 8 
13 8 7 7 7 9 16 12 12 7 7 7 8 30 40 51 
13 4 3 3 3 4 5 4 4 3 3 3 5 46 67 93 
15 4 15 8 9 7 8 9 11 7 11 4 4 35 63 106 
21 4 28 16 18 11 15 19 27 13 24 5 4 24 68 137 
22 4 4 3 2 3 2 2 2 2 2 2 3 18 76 148 
22 4 30 22 19 18 19 14 18 15 14 13 4 38 99 149 
29 4 6 7 7 7 7 6 7 7 7 6 4 34 73 104 
41 5 2 2 2 2 2 2 2 2 2 2 3 7 10 10 
58 6 3 3 3 3 3 3 3 3 3 3 3 3 3 3 
62 9 9 9 9 11 13 13 10 9 9 9 5 8 9 9 
63 10 9 8 8 13 19 17 10 8 8 8 5 11 17 17 
65 10 17 17 13 15 14 13 14 15 8 6 5 8 11 12 
69 10 11 11 8 7 5 7 12 14 15 9 5 7 12 10 
