P2
16 16
255
10 29 41 24 22 22 23 22 23 22 27 18 10 10 10 10 
10 25 37 18 17 17 17 16 16 16 19 14 9 9 9 9 
10 9 9 9 9 9 9 9 9 9 9 9 9 9 9 9 
10 9 9 9 10 12 16 14 15 9 9 9 10 38 48 62 
16 6 5 5 5 6 6 6 6 5 5 5 7 57 79 121 
22 5 16 9 10 8 9 10 12 8 12 4 5 39 68 118 
22 5 30 17 18 12 16 19 27 14 25 6 5 26 66 118 
23 5 5 4 3 3 3 3 3 3 3 3 4 21 72 118 
23 5 28 24 20 20 20 15 19 16 15 14 5 38 86 118 
28 5 8 8 8 8 8 7 9 8 8 7 5 35 66 87 
38 6 3 3 3 3 3 3 3 3 3 3 4 9 11 12 
42 7 5 5 5 5 5 5 5 5 5 5 5 4 4 4 
66 13 12 13 13 15 17 16 14 13 13 12 8 10 13 13 
83 13 13 13 13 18 23 22 15 13 13 12 8 14 21 20 
83 14 19 20 17 19 18 17 18 18 11 9 8 11 15 15 
84 14 16 15 12 10 8 10 16 19 19 12 8 11 15 13 
