P2
16 16
255
2 3 2 3 6 12 11 4 2 3 3 3 14 14 16 15 
2 6 8 6 8 9 9 7 6 3 3 3 7 7 8 6 
3 6 9 6 5 4 5 8 10 6 4 3 7 7 7 7 
4 4 5 4 3 2 4 6 7 10 7 2 4 4 5 4 
4 3 2 2 2 2 2 2 3 10 6 3 8 10 10 10 
5 3 2 2 2 2 3 7 10 8 5 3 9 9 9 10 
6 3 2 2 2 2 2 3 3 3 3 3 9 9 10 10 
7 4 4 5 3 2 5 26 29 27 7 2 7 9 5 3 
8 5 5 7 5 2 6 42 50 45 8 2 2 2 2 2 
10 5 8 7 8 5 5 20 22 20 6 2 2 2 2 2 
12 6 11 9 10 7 22 25 33 34 8 2 2 2 2 2 
13 5 7 5 4 3 8 20 50 62 12 2 2 2 2 2 
16 5 7 5 3 3 5 14 18 19 9 2 2 2 2 2 
18 4 6 6 3 2 15 37 22 3 4 2 2 2 2 2 
19 2 2 2 2 2 2 2 2 2 3 2 2 2 2 2 
19 3 4 4 2 2 4 14 18 15 5 2 2 2 2 2 
