P2
16 16
255
2 5 5 5 8 14 13 6 5 5 4 3 13 13 15 14 
2 7 9 7 8 9 9 8 7 3 3 2 7 6 7 6 
3 6 9 5 4 3 4 7 9 6 3 2 6 7 7 7 
3 5 5 4 2 2 3 4 6 9 6 2 4 4 5 4 
5 3 2 2 2 2 1 1 2 9 5 2 8 10 10 10 
5 3 2 2 2 2 3 7 10 7 4 2 9 9 9 10 
6 3 2 2 2 2 2 3 3 2 3 3 9 9 10 10 
8 4 4 5 3 2 4 28 32 30 6 2 7 9 5 3 
8 5 5 7 5 2 5 41 46 42 7 2 2 2 2 2 
8 5 8 8 9 6 5 18 20 18 5 2 2 2 2 2 
11 6 11 9 11 7 21 24 31 32 7 2 2 2 2 2 
13 5 7 5 4 2 6 18 47 62 10 2 2 2 2 2 
16 5 7 5 3 2 3 12 17 18 7 2 2 2 2 2 
20 4 5 5 3 2 14 35 20 3 3 2 2 2 2 2 
21 3 2 2 2 2 2 2 2 2 3 2 2 2 2 2 
20 4 3 4 2 2 3 14 16 15 5 2 2 2 2 2 
