P2
16 16
255
9 13 15 14 19 29 26 17 15 15 12 10 23 24 26 24 
9 15 20 17 18 20 19 17 17 11 10 9 15 14 16 14 
9 14 18 13 12 10 12 16 19 14 10 8 14 15 16 16 
10 11 12 10 8 7 11 13 14 20 15 8 11 11 12 11 
13 9 7 7 7 7 7 6 8 19 13 8 16 18 18 18 
14 9 7 7 7 7 9 15 20 17 12 9 17 18 17 19 
14 9 8 8 7 7 8 9 9 8 10 9 17 17 18 18 
14 11 12 12 9 7 10 27 30 28 13 8 15 17 12 10 
16 12 13 15 12 7 11 37 42 39 14 7 8 8 7 7 
22 13 17 16 17 13 11 22 26 24 12 7 7 7 7 7 
28 14 22 18 20 15 32 35 41 42 16 7 7 7 7 7 
29 12 15 13 10 8 15 33 66 74 22 7 7 7 7 7 
29 12 16 13 10 9 10 24 31 33 18 7 7 7 7 7 
29 11 13 13 10 8 24 49 33 10 11 7 7 7 7 7 
30 9 7 7 7 7 7 7 7 8 10 8 7 7 7 7 
29 10 10 11 8 7 9 15 21 15 12 7 7 7 7 7 
