P2
16 16
255
28 28 28 28 28 25 25 28 27 27 28 27 27 28 28 26 
218 218 218 218 214 169 175 216 182 163 215 208 204 217 205 165 
112 113 113 114 105 96 99 108 89 85 108 102 102 104 98 87 
15 14 12 10 10 9 10 18 14 17 19 12 5 5 5 5 
17 15 8 6 7 7 7 12 10 11 12 10 7 7 6 4 
8 14 14 13 12 8 8 17 15 15 11 15 14 11 9 4 
5 28 57 95 80 16 7 12 10 7 4 8 8 5 4 4 
5 11 12 36 54 15 7 11 8 5 4 8 9 6 4 4 
5 17 14 10 17 11 5 5 5 4 4 7 9 8 6 4 
4 5 6 6 6 7 5 7 5 4 4 4 4 4 4 4 
4 7 37 42 41 13 5 6 5 4 4 4 4 4 4 4 
4 8 50 60 59 16 4 4 4 4 4 5 5 5 4 4 
7 8 47 55 54 15 5 5 4 4 4 9 11 12 6 4 
8 10 14 15 15 9 5 6 4 4 4 9 12 13 9 6 
6 44 85 68 74 20 6 9 9 9 8 10 11 10 11 10 
6 55 96 57 47 17 8 16 14 14 10 4 4 4 4 4 
