P2
16 16
255
22 22 22 22 21 19 19 21 21 20 23 22 21 23 22 20 
233 233 233 234 218 168 178 223 181 169 230 217 211 232 217 177 
116 116 116 117 110 96 100 112 92 89 110 102 103 109 100 91 
13 12 10 9 9 8 10 18 14 16 20 13 5 5 5 5 
17 15 8 7 7 7 8 13 11 12 13 11 8 8 7 5 
9 15 15 15 14 8 9 18 15 15 12 15 14 12 10 5 
5 30 62 105 90 17 7 11 9 7 5 8 8 5 5 5 
6 10 9 37 58 16 7 11 9 5 5 8 9 6 5 5 
6 18 14 8 16 11 5 5 6 5 5 8 9 8 6 5 
5 6 7 7 7 7 6 8 6 5 5 5 5 5 5 5 
5 7 28 32 32 12 5 6 5 5 5 5 5 5 5 5 
5 7 32 39 36 13 5 5 5 5 5 6 6 6 5 5 
7 8 30 39 35 12 6 6 5 5 5 9 10 11 6 5 
8 10 14 15 15 9 6 7 5 5 5 9 11 12 9 6 
7 49 90 73 80 21 6 8 8 8 8 9 10 9 9 9 
7 61 103 62 51 18 9 17 15 15 12 5 5 5 5 5 
