P2
16 16
255
28 28 28 28 26 24 24 26 26 25 28 27 26 28 27 25 
234 234 234 234 219 169 180 224 182 171 231 218 213 233 218 183 
121 121 122 123 115 101 105 117 97 94 114 107 109 114 105 96 
17 17 14 12 12 11 14 22 18 19 23 16 8 8 8 8 
22 19 11 9 9 10 11 17 15 16 17 14 11 11 10 8 
11 18 19 18 18 11 12 22 19 20 16 18 19 16 14 8 
8 34 68 110 95 20 9 15 13 10 7 11 11 8 7 7 
8 13 14 43 64 19 9 14 12 8 7 11 12 9 7 7 
8 23 18 12 21 14 8 8 8 8 7 10 12 11 9 7 
7 8 10 10 10 10 9 10 8 7 7 8 8 8 8 7 
7 10 31 36 35 15 8 9 8 7 7 7 7 7 7 7 
8 10 37 43 43 16 7 7 7 7 7 8 8 8 8 7 
10 10 36 44 41 16 8 9 8 7 7 11 13 15 9 7 
11 13 18 19 19 12 8 9 8 8 8 12 14 15 13 9 
10 55 95 78 86 25 9 11 11 11 10 12 13 12 12 12 
10 67 107 65 54 21 12 21 19 19 15 7 7 7 7 7 
