P2
16 16
255
255 99 37 38 38 38 37 38 38 37 38 37 38 38 38 38 
255 100 37 37 37 37 36 36 37 37 37 37 37 38 38 38 
255 101 38 37 37 38 37 37 37 37 37 37 38 38 37 38 
214 101 38 41 24 17 14 14 14 16 16 15 16 16 16 25 
243 182 139 141 134 131 127 129 130 132 130 131 132 130 129 132 
248 209 196 199 203 199 190 200 204 196 199 205 208 198 195 194 
247 229 240 243 245 243 242 243 241 241 243 243 242 243 243 243 
247 230 200 190 189 212 253 251 251 251 251 249 199 184 184 182 
248 227 167 150 153 181 215 243 249 250 251 250 218 190 188 190 
247 228 173 157 162 157 158 172 207 251 250 251 221 169 171 171 
247 229 177 157 160 163 183 198 224 251 250 251 222 170 175 199 
247 232 234 230 230 231 243 253 251 250 250 251 223 173 174 185 
247 233 251 252 252 252 251 250 250 250 250 251 216 171 167 176 
247 233 250 250 250 250 250 250 250 250 250 250 220 189 187 184 
247 233 250 250 250 250 250 250 250 250 251 250 241 236 238 239 
247 233 250 250 250 250 250 250 250 250 251 248 189 158 162 160 
