P2
16 16
255
254 120 49 49 49 49 49 50 49 49 50 49 49 50 50 50 
254 121 48 47 50 49 47 47 47 47 48 46 49 52 51 52 
254 121 51 51 51 51 50 51 51 50 51 50 51 51 51 51 
217 122 59 65 46 33 30 28 30 32 32 31 33 32 32 40 
243 191 159 161 153 148 144 145 147 149 147 148 149 147 147 150 
248 215 207 210 217 216 205 212 217 214 212 220 224 214 208 207 
247 229 242 245 246 246 245 245 243 244 245 246 245 246 245 245 
247 229 214 206 205 222 252 251 251 251 251 250 212 196 196 198 
247 227 183 164 165 192 222 246 250 250 250 250 226 202 201 203 
247 227 187 171 179 174 178 191 218 251 250 251 226 185 188 187 
247 228 197 183 185 188 203 215 232 251 250 251 226 189 192 209 
247 231 239 237 236 237 245 252 251 250 250 251 227 187 187 196 
247 232 251 251 251 251 251 250 250 250 250 250 222 187 183 187 
247 232 250 250 250 250 250 250 250 250 250 250 225 200 200 198 
247 232 250 250 250 250 250 250 250 250 250 250 243 239 240 241 
247 232 250 250 250 250 250 250 250 250 251 248 197 171 176 176 
