P2
16 16
255
251 97 37 38 38 37 37 38 38 38 38 37 38 38 38 38 
251 97 36 37 37 37 36 36 37 37 37 36 37 38 38 38 
250 97 37 37 37 37 37 37 37 37 37 36 37 37 37 37 
214 97 38 39 23 14 12 10 11 13 13 12 13 13 12 23 
239 178 136 135 129 124 118 118 122 123 122 122 125 123 119 127 
244 212 198 199 207 204 192 204 209 203 205 212 218 205 196 194 
242 229 238 240 242 242 240 241 238 239 241 241 240 241 241 241 
243 228 201 191 190 210 248 247 247 247 247 246 198 183 185 183 
243 226 168 148 150 177 213 241 246 246 246 246 219 191 190 190 
243 225 172 157 163 157 162 178 208 247 246 247 219 172 178 176 
243 226 178 164 163 165 184 200 222 247 246 247 219 176 177 197 
242 230 232 229 228 229 239 249 247 246 246 247 221 175 172 184 
242 232 248 248 248 248 247 246 246 246 246 247 211 174 170 176 
242 231 247 246 246 246 246 246 246 246 246 246 215 186 188 187 
242 231 247 246 246 246 246 246 246 246 246 246 237 233 235 235 
242 231 247 246 246 246 246 246 246 246 247 244 183 156 163 160 
