P2
16 16
255
54 54 54 54 55 51 45 38 44 53 54 94 93 54 89 241 
54 55 55 49 37 25 21 23 41 41 51 81 62 51 91 243 
54 47 34 23 20 21 27 31 36 37 34 41 51 52 91 243 
52 36 28 33 41 47 50 49 46 50 52 53 55 56 91 243 
142 141 141 143 144 144 144 144 144 143 144 144 144 142 170 245 
255 255 255 255 231 224 221 220 238 255 255 255 255 255 249 246 
253 253 253 253 225 212 208 207 221 241 239 239 250 253 245 246 
253 253 253 253 217 203 210 202 218 230 232 229 248 253 245 246 
253 253 253 253 212 193 201 209 228 242 254 254 253 253 245 246 
253 253 253 253 238 229 229 242 253 253 253 253 253 253 245 246 
253 253 253 253 254 254 254 253 253 253 253 253 253 253 245 246 
253 253 253 253 253 253 253 253 253 253 253 253 253 253 245 246 
253 253 253 253 253 253 253 253 253 253 253 253 253 253 245 246 
253 253 253 253 253 253 253 253 253 253 253 253 253 253 245 246 
253 253 253 253 253 253 253 253 253 253 253 253 253 253 245 246 
253 253 253 253 253 253 253 253 253 253 253 253 253 253 245 246 
