P2
16 16
255
41 41 41 41 42 37 30 23 30 38 32 62 63 38 61 229 
42 43 43 37 23 12 8 10 28 25 25 50 41 37 63 237 
42 35 20 10 7 8 13 18 23 23 17 23 35 38 63 236 
40 23 14 19 28 34 37 36 33 37 38 39 40 41 63 236 
122 122 121 123 124 124 124 125 123 122 123 125 124 124 152 240 
255 255 255 255 221 210 206 208 233 255 255 255 255 255 245 242 
253 253 253 253 213 196 189 190 209 237 236 234 249 254 240 242 
253 253 253 253 207 188 193 188 208 221 226 220 247 254 240 242 
253 253 253 253 203 178 187 195 221 239 255 254 253 253 240 242 
253 253 253 253 235 225 225 239 254 253 253 253 253 253 240 242 
253 253 253 253 254 255 255 254 253 253 253 253 253 253 240 242 
253 253 253 253 253 253 253 253 253 253 253 253 253 253 240 242 
253 253 253 253 253 253 253 253 253 253 253 253 253 253 240 242 
253 253 253 253 253 253 253 253 253 253 253 253 253 253 240 242 
253 253 253 253 253 253 253 253 253 253 253 253 253 253 240 242 
253 253 253 253 253 253 253 253 253 253 253 253 253 253 240 242 
