P2
16 16
255
40 40 40 40 41 37 29 23 29 37 31 61 64 38 61 234 
42 43 43 37 23 12 8 10 27 25 25 51 42 38 63 235 
42 34 20 10 7 8 13 17 22 23 16 23 36 38 63 235 
40 23 14 19 28 35 37 36 33 38 39 40 40 42 63 235 
129 129 128 130 131 131 132 132 130 129 129 129 129 128 153 239 
255 255 255 255 222 208 203 207 232 255 255 255 255 255 245 242 
253 253 253 253 213 195 188 189 210 239 238 235 249 254 240 242 
253 253 253 253 206 187 197 189 211 225 229 222 246 254 240 242 
253 253 253 253 200 180 190 199 223 240 255 254 253 253 240 242 
253 253 253 253 236 226 225 241 254 253 253 253 253 253 240 242 
253 253 253 253 254 255 255 254 253 253 253 253 253 253 240 242 
253 253 253 253 253 253 253 253 253 253 253 253 253 253 240 242 
253 253 253 253 253 253 253 253 253 253 253 253 253 253 240 242 
253 253 253 253 253 253 253 253 253 253 253 253 253 253 240 242 
253 253 253 253 253 253 253 253 253 253 253 253 253 253 240 242 
253 253 253 253 253 253 253 253 253 253 253 253 253 253 240 242 
