P2
16 16
255
252 146 50 49 49 49 49 49 50 49 50 49 49 50 50 50 
252 147 50 47 49 50 47 47 47 47 48 47 49 52 51 52 
252 147 52 50 51 51 50 50 51 52 52 50 50 51 51 51 
221 140 41 34 33 34 33 34 40 67 58 33 33 33 33 37 
243 201 154 151 150 151 150 151 153 162 160 151 152 150 151 152 
246 234 249 249 249 249 249 249 249 248 248 249 249 249 249 249 
246 231 209 186 188 186 188 186 191 195 195 195 195 195 195 195 
246 231 211 204 211 211 210 210 212 214 214 214 214 214 214 214 
246 232 206 215 244 248 248 248 248 248 248 248 247 248 248 248 
246 232 208 184 219 248 247 247 247 247 247 247 246 247 247 247 
246 232 219 206 242 247 247 247 247 247 247 247 246 247 247 247 
246 232 239 238 240 245 248 248 248 248 248 248 246 247 247 247 
246 231 207 197 195 217 237 236 236 236 236 236 238 247 247 247 
246 231 218 221 232 233 234 234 234 234 234 233 234 246 247 247 
246 232 221 212 242 246 246 246 246 246 246 246 245 247 247 247 
246 232 244 248 247 247 247 247 247 247 247 247 246 247 247 247 
