P2
16 16
255
247 124 35 34 35 34 35 35 35 34 35 35 35 35 36 36 
246 125 35 32 34 34 32 32 32 32 33 32 33 37 37 37 
246 125 36 35 36 36 36 35 35 36 36 35 36 36 36 36 
212 119 19 11 11 12 11 11 16 40 31 12 12 11 11 16 
235 187 128 126 127 127 125 127 131 143 140 127 126 124 124 128 
238 223 244 245 245 246 248 246 244 241 242 243 243 243 242 242 
239 225 219 187 187 186 188 181 205 229 228 230 229 229 228 227 
239 226 213 200 211 206 207 208 217 228 225 230 227 225 230 228 
239 223 196 202 236 241 240 240 240 239 239 239 239 239 239 239 
238 222 201 165 206 240 239 239 239 239 239 239 239 239 239 239 
238 222 205 191 234 240 239 239 239 239 239 239 239 239 239 239 
238 221 230 227 230 235 239 239 239 239 239 239 239 239 239 239 
239 223 204 189 188 216 240 239 239 239 239 239 234 238 239 239 
239 224 205 212 224 226 226 225 226 227 226 225 220 236 239 239 
238 223 208 196 232 236 236 236 236 236 236 236 237 239 239 239 
238 221 237 240 239 239 239 239 239 239 239 239 239 239 239 239 
