P2
16 16
255
255 126 37 37 37 37 36 37 37 37 37 37 36 37 37 37 
255 126 36 35 36 36 35 35 36 35 35 36 35 37 37 37 
255 125 37 36 36 36 36 36 36 36 36 36 36 36 36 36 
216 119 21 14 13 15 14 14 17 36 30 14 14 13 13 19 
243 193 134 132 131 132 131 131 133 140 138 131 132 131 131 132 
247 233 251 252 252 252 252 252 251 251 251 251 251 251 251 251 
247 231 200 170 173 168 170 166 181 191 191 191 191 191 191 191 
247 231 203 191 202 200 200 198 207 212 211 211 211 211 211 211 
247 231 196 203 238 243 243 243 243 242 242 242 243 249 249 249 
247 231 202 172 211 246 245 245 245 245 245 245 240 247 248 248 
247 231 206 194 242 249 248 248 248 248 248 248 246 248 248 248 
247 230 231 236 240 245 249 249 249 249 249 249 242 247 248 248 
247 230 199 185 185 209 237 236 236 236 236 236 237 248 248 248 
247 230 213 217 231 233 233 233 233 233 233 233 233 247 248 248 
247 231 211 203 241 247 247 247 247 247 247 247 244 248 248 248 
247 231 234 239 239 239 239 239 239 239 239 239 237 247 248 248 
