P2
16 16
255
2 3 6 3 3 2 3 2 2 2 2 2 2 2 2 2 
1 3 18 5 4 3 4 3 2 1 2 2 2 2 2 2 
46 47 49 47 47 47 47 47 46 47 47 47 48 48 48 48 
158 132 133 133 133 135 138 140 132 120 129 175 146 130 124 123 
43 17 15 11 11 14 15 16 12 6 10 67 24 6 3 3 
40 14 15 12 11 13 14 14 11 5 18 71 45 9 9 17 
41 14 16 12 10 12 14 14 10 6 33 63 94 17 25 63 
42 15 15 9 10 12 14 14 10 5 33 75 107 34 59 76 
41 13 12 10 10 12 14 15 11 5 28 79 116 36 60 84 
41 15 14 10 11 13 14 14 11 5 29 108 112 21 31 73 
40 15 14 9 10 12 14 14 10 5 23 88 57 17 15 32 
135 109 107 103 106 109 110 111 105 91 86 98 88 86 89 92 
220 198 198 202 199 200 218 238 237 237 222 189 193 193 216 238 
187 113 124 148 184 183 192 209 199 218 213 177 181 176 189 201 
204 168 141 123 175 190 186 190 185 217 222 201 200 201 201 202 
214 207 189 162 195 208 207 222 224 229 221 197 194 199 215 214 
