P2
16 16
255
7 8 12 8 8 8 8 7 7 7 7 7 7 7 7 7 
6 9 26 10 9 9 9 8 6 6 6 7 7 7 7 6 
52 53 55 54 54 54 53 54 53 53 53 53 54 54 54 54 
148 127 129 129 129 130 132 133 128 118 126 164 140 128 123 123 
50 23 21 17 17 18 24 25 18 9 13 72 29 11 7 7 
48 18 20 18 16 17 22 22 17 8 21 78 53 14 15 25 
49 20 22 19 16 17 22 24 17 8 35 69 104 20 32 69 
50 22 22 16 16 17 23 24 17 8 36 77 110 38 66 82 
48 18 18 17 18 19 24 26 17 8 32 84 114 41 65 89 
48 19 19 16 16 17 22 23 17 8 31 108 117 26 36 78 
48 19 20 15 15 17 22 23 16 8 26 86 63 22 21 38 
131 107 107 104 104 105 109 109 104 91 88 97 85 88 95 95 
198 181 187 187 182 183 197 214 213 214 204 180 181 177 198 215 
170 113 128 143 172 168 178 192 185 197 196 167 164 161 175 181 
181 165 142 123 168 180 178 180 177 200 198 180 180 180 180 189 
188 186 179 155 181 188 191 204 204 208 202 194 188 190 199 201 
