P2
16 16
255
4 5 9 5 4 4 5 4 4 4 4 4 4 4 4 4 
3 6 22 6 5 5 5 4 3 3 3 4 4 4 4 4 
51 52 54 52 52 52 52 52 51 52 51 50 51 52 52 52 
152 125 127 130 132 132 132 132 128 118 127 172 148 129 125 125 
41 15 13 12 15 16 16 16 11 6 12 66 25 7 5 5 
39 11 13 13 13 15 16 16 11 6 20 72 47 10 12 19 
39 12 15 14 14 14 14 15 10 6 35 66 100 20 29 63 
39 13 15 11 14 14 14 14 10 6 36 77 113 37 61 78 
39 11 13 12 14 15 15 15 11 6 29 80 115 37 58 88 
40 13 13 11 14 14 15 16 11 6 32 118 118 22 31 74 
38 13 14 11 13 14 14 15 10 6 26 90 58 17 16 34 
129 102 103 101 105 106 106 108 100 91 87 100 90 82 89 93 
211 190 194 195 193 192 210 229 229 229 214 184 188 186 209 229 
176 107 121 145 182 178 188 202 194 211 204 170 177 170 185 193 
196 171 144 124 176 189 186 188 183 211 213 194 195 195 194 198 
203 198 184 159 192 200 199 215 216 221 215 195 188 194 210 211 
