P2
16 16
255
8 10 15 16 17 17 17 16 16 15 15 15 16 16 16 17 
8 8 9 18 23 22 18 12 9 12 12 10 9 9 9 12 
8 8 8 17 24 21 16 14 14 19 30 20 8 8 8 8 
8 8 8 16 23 22 18 17 17 20 37 24 8 8 8 8 
8 8 8 17 23 21 17 17 17 20 37 24 8 8 8 8 
8 8 8 16 23 20 17 17 17 20 38 25 8 8 8 8 
8 8 8 16 22 21 17 17 17 20 38 25 8 8 8 8 
8 8 8 16 22 21 17 17 17 21 38 25 8 8 8 8 
8 8 8 18 25 16 12 12 12 14 21 16 8 8 8 8 
8 8 8 17 26 20 13 12 12 14 19 15 8 8 8 8 
8 8 8 18 24 22 17 16 15 13 18 14 8 8 8 8 
8 8 8 17 24 22 20 21 18 15 24 18 8 8 8 8 
8 8 8 15 20 20 16 16 17 21 39 25 8 8 8 8 
8 8 8 9 10 10 10 11 16 26 31 22 8 8 8 10 
8 8 8 8 8 8 8 8 9 10 10 9 8 8 8 11 
8 8 8 8 8 8 8 8 8 8 8 8 8 8 8 8 
