P2
16 16
255
4 5 8 9 9 10 10 9 9 8 8 8 8 8 9 10 
4 4 4 12 17 16 13 6 4 6 7 5 4 4 4 7 
4 4 4 12 20 16 11 9 9 14 28 15 4 4 4 4 
4 4 4 13 21 19 13 11 12 16 37 21 4 4 4 4 
4 4 4 13 21 16 12 11 12 15 37 21 4 4 4 4 
4 4 4 12 20 16 11 11 12 16 37 21 4 4 4 4 
4 4 4 12 20 17 11 11 12 16 37 21 4 4 4 4 
4 4 4 12 19 18 11 11 12 16 37 21 4 4 4 4 
4 4 4 13 21 11 7 7 7 9 16 11 4 4 4 4 
4 4 4 12 21 14 7 7 7 8 14 10 4 4 4 4 
4 4 4 12 20 17 11 10 9 8 13 9 4 4 4 4 
4 4 4 13 20 19 15 14 12 10 20 13 4 4 4 4 
4 4 4 11 18 17 10 10 11 17 38 22 4 4 4 4 
4 4 4 5 5 5 4 5 11 23 29 18 4 4 4 5 
4 4 4 4 4 4 4 4 4 5 5 5 4 4 4 6 
4 4 4 4 4 4 4 4 4 4 4 4 4 4 4 4 
