P2
16 16
255
2 4 8 9 9 9 9 9 8 8 8 8 8 8 8 9 
2 3 5 12 17 15 12 7 5 7 7 5 5 5 5 8 
2 2 3 11 19 14 9 7 8 13 27 14 3 3 3 3 
2 2 2 12 20 17 11 9 10 14 35 19 2 2 2 2 
2 2 2 12 19 15 9 9 10 14 35 19 2 2 2 2 
2 2 2 11 18 14 9 9 9 14 36 19 2 2 2 2 
2 2 2 11 18 15 9 9 9 14 36 20 2 2 2 2 
2 2 2 11 18 16 9 9 10 15 36 19 2 2 2 2 
2 2 2 12 20 10 6 6 6 8 15 9 2 2 2 2 
2 2 2 11 20 13 6 5 5 7 14 8 2 2 2 2 
2 2 2 11 18 16 10 9 8 7 13 8 2 2 2 2 
2 2 2 11 18 17 12 13 10 9 19 11 2 2 2 2 
2 2 2 10 18 16 9 9 10 16 37 20 2 2 2 2 
2 2 2 3 4 4 3 4 10 22 29 17 2 2 2 4 
2 2 2 2 2 2 2 2 3 4 4 3 2 2 2 5 
2 2 2 2 2 2 2 2 2 2 2 2 2 2 2 2 
