P2
16 16
255
13 13 13 13 13 13 14 17 18 18 16 13 13 13 13 13 
12 15 16 10 9 9 10 12 12 13 14 12 12 12 12 10 
18 22 29 12 9 9 9 9 8 47 102 106 106 109 116 67 
18 22 30 12 9 9 9 9 9 55 128 122 125 125 129 76 
18 22 30 12 9 9 9 9 9 36 81 85 89 90 75 48 
18 22 30 12 9 9 9 9 9 30 40 38 57 107 86 39 
19 22 30 12 9 9 9 9 9 28 38 35 62 134 96 35 
18 21 28 12 9 9 9 9 9 28 38 36 59 118 111 49 
14 15 17 11 9 9 9 9 9 27 35 34 61 99 50 36 
13 14 16 11 9 9 9 9 9 28 32 38 61 86 65 44 
15 14 17 10 9 9 9 9 9 27 30 42 75 77 93 60 
17 21 35 13 9 9 9 9 9 47 101 98 117 117 126 71 
21 33 41 14 9 9 9 9 9 13 18 17 17 17 17 14 
18 25 25 13 9 9 9 16 18 18 19 18 18 15 15 16 
9 9 9 9 9 9 9 13 15 15 14 14 14 11 10 10 
9 9 9 9 9 9 9 9 9 9 9 9 9 9 9 9 
