P2
16 16
255
2 2 1 2 2 2 2 3 3 3 3 2 1 1 1 2 
2 3 4 1 1 1 1 1 1 2 3 2 2 2 2 1 
5 10 20 3 1 1 1 1 1 29 83 90 92 93 101 49 
6 10 22 3 1 1 1 1 1 34 103 96 99 100 105 52 
6 10 22 3 1 1 1 1 1 17 63 66 68 67 54 26 
6 10 22 3 1 1 1 1 1 11 24 23 41 87 66 20 
6 10 22 3 1 1 1 1 1 10 19 18 45 124 81 16 
5 9 19 3 1 1 1 1 1 10 20 18 42 107 99 28 
2 3 6 2 1 1 1 1 1 9 17 16 44 87 33 18 
2 3 5 1 1 1 1 1 1 9 15 20 39 69 43 21 
3 3 6 1 1 1 1 1 1 9 13 23 56 57 71 35 
5 8 17 3 1 1 1 1 1 24 84 82 96 98 108 47 
6 17 27 3 1 1 1 1 1 2 5 4 4 4 4 3 
4 9 9 2 1 1 1 3 5 4 5 5 5 4 3 4 
1 1 1 1 1 1 1 2 2 2 3 2 2 1 1 1 
1 1 1 1 1 1 1 1 1 1 1 1 1 1 1 1 
