P2
16 16
255
1 1 1 1 1 1 1 2 2 2 2 1 1 1 1 1 
2 4 5 1 1 1 1 2 2 3 4 3 3 2 2 2 
3 8 20 3 1 1 1 1 1 29 83 90 93 96 104 51 
3 8 21 3 1 1 1 1 1 36 106 100 102 103 108 55 
3 8 21 3 1 1 1 1 1 19 64 68 70 69 55 27 
3 8 21 3 1 1 1 1 1 13 25 23 41 87 67 21 
3 8 21 3 1 1 1 1 1 11 21 18 46 124 83 18 
3 7 17 3 1 1 1 1 1 12 21 19 43 107 100 30 
2 3 6 2 1 1 1 1 1 11 18 17 45 87 34 19 
1 3 6 2 1 1 1 1 1 11 17 21 41 68 45 24 
2 3 6 2 1 1 1 1 1 11 16 23 56 56 72 37 
2 7 19 3 1 1 1 1 1 27 86 83 97 97 108 48 
4 15 27 4 1 1 1 1 1 3 5 5 5 5 5 3 
4 9 10 2 1 1 1 4 6 5 6 5 5 4 4 4 
1 1 1 1 1 1 1 2 3 3 3 2 3 2 1 1 
1 1 1 1 1 1 1 1 1 1 1 1 1 1 1 1 
