P2
16 16
255
119 139 161 163 170 175 177 179 179 178 176 173 165 162 155 129 
137 159 164 172 172 169 190 191 190 192 175 168 175 166 162 152 
159 163 173 175 116 103 165 175 172 172 138 91 152 177 166 161 
162 169 175 118 83 146 154 157 159 156 162 112 80 169 174 164 
164 175 158 87 121 144 163 185 203 170 153 157 99 121 180 169 
167 179 118 137 178 176 161 171 160 168 159 175 171 107 172 174 
170 182 100 146 213 203 118 126 136 112 143 220 197 105 159 177 
172 175 115 170 218 200 126 169 196 136 143 221 201 138 165 177 
170 113 171 194 213 206 137 182 176 159 147 228 199 194 139 139 
172 110 119 200 201 227 158 99 52 115 181 213 190 188 87 148 
165 152 72 186 197 220 195 146 108 166 210 199 196 135 86 171 
162 171 80 123 152 114 114 179 212 154 110 139 177 81 124 167 
157 166 118 48 76 67 79 96 135 109 66 77 65 55 157 162 
134 159 159 150 173 158 136 118 120 136 175 181 154 141 162 151 
119 136 159 164 168 174 178 179 180 179 174 170 165 163 149 124 
118 119 135 157 162 163 165 167 167 166 164 162 161 145 123 118 
