P2
16 16
255
148 150 160 169 170 171 173 176 177 174 172 170 169 165 154 149 
150 158 168 171 171 168 187 188 188 190 173 166 172 170 165 154 
158 168 171 173 114 102 166 173 169 172 137 90 150 173 169 163 
167 170 173 117 80 143 153 157 157 154 159 111 79 167 171 169 
169 173 157 85 119 141 161 185 202 169 151 153 99 120 176 169 
169 177 117 136 178 174 158 167 157 162 153 174 171 107 170 170 
169 180 100 146 212 194 110 133 142 112 131 216 196 104 157 173 
169 172 114 170 214 196 141 179 197 153 147 216 199 135 162 173 
169 108 168 190 208 208 156 183 175 172 161 223 193 190 134 135 
173 107 118 197 196 223 165 97 55 123 183 206 185 186 84 145 
170 149 71 185 194 215 190 145 111 163 204 194 192 132 83 172 
164 171 77 121 149 111 114 180 214 155 108 133 173 78 122 172 
157 170 118 46 75 62 77 96 135 109 65 75 63 53 160 164 
149 158 164 150 170 157 134 118 121 136 173 179 152 144 166 154 
148 151 159 168 170 171 175 176 177 176 171 170 170 166 154 149 
148 148 150 157 164 169 169 169 169 169 170 166 160 151 149 148 
