P2
16 16
255
146 146 150 159 162 166 169 171 172 171 167 164 161 154 147 146 
146 150 159 164 165 164 175 175 175 175 166 164 166 161 154 147 
149 159 164 169 118 107 162 169 164 164 137 97 149 168 161 153 
155 163 170 122 89 143 153 155 152 149 156 113 84 164 165 161 
161 168 156 95 125 143 153 167 179 157 149 154 103 123 172 162 
162 172 122 139 169 160 147 149 142 146 146 166 166 111 164 165 
163 173 104 146 197 174 104 113 126 98 130 196 188 108 152 168 
162 166 117 163 194 172 112 158 179 126 130 194 188 136 157 168 
162 109 161 183 189 175 123 170 186 149 133 195 184 182 131 132 
165 108 115 189 185 191 135 107 81 114 153 190 180 176 86 140 
162 144 73 175 185 196 172 139 105 150 184 187 185 128 85 164 
155 164 79 116 146 114 113 172 200 149 109 136 166 80 120 163 
148 161 115 51 79 74 88 102 134 115 74 80 67 58 153 154 
146 150 156 146 166 157 138 119 122 136 167 173 148 139 155 147 
146 146 150 158 162 165 169 171 172 171 166 163 161 154 147 146 
146 146 146 147 153 159 162 162 162 162 161 156 150 146 146 146 
