P2
16 16
255
99 100 102 102 100 101 107 138 150 147 147 140 138 139 138 140 
103 111 102 89 136 148 162 160 215 247 244 228 218 220 219 221 
105 106 71 116 171 179 167 131 114 234 241 218 216 226 236 236 
105 89 112 157 170 183 168 164 132 177 242 206 200 219 220 223 
104 81 196 196 97 113 92 175 210 145 247 200 168 176 198 210 
96 123 209 200 125 167 125 183 216 177 227 217 190 185 203 198 
90 146 220 215 137 80 116 199 212 174 179 250 247 246 245 245 
156 121 210 212 170 138 159 204 217 124 215 234 228 237 246 246 
180 149 101 91 102 176 126 89 112 124 247 233 230 242 246 246 
176 229 196 193 157 146 168 209 189 213 247 233 232 241 245 246 
175 249 249 249 250 249 250 248 249 248 245 232 229 230 241 245 
175 248 246 246 246 246 246 246 246 246 245 228 226 227 226 232 
175 248 246 246 246 246 246 246 246 246 245 225 206 212 206 210 
171 241 240 240 240 240 240 240 240 240 240 237 231 233 231 231 
122 135 134 134 134 134 127 120 122 121 122 120 121 120 120 121 
110 109 102 98 98 98 95 93 95 93 93 91 92 93 93 93 
