P2
16 16
255
127 131 132 133 132 132 137 163 169 168 169 166 164 165 162 164 
131 140 135 124 161 171 183 185 226 250 247 232 223 225 228 231 
133 137 112 149 193 198 189 160 146 241 247 229 227 234 244 244 
133 122 146 183 196 202 193 189 159 195 248 218 212 227 227 228 
132 115 212 210 126 136 122 198 222 172 252 217 191 198 215 222 
124 148 221 209 145 191 148 196 224 195 234 228 207 203 218 213 
118 163 228 222 156 118 139 207 221 187 190 254 251 250 250 249 
181 140 220 220 185 155 173 214 224 142 224 240 237 244 250 250 
202 164 121 118 136 200 154 114 131 142 251 238 236 247 250 250 
197 235 206 213 188 173 192 223 201 222 251 239 237 246 249 250 
197 252 253 252 253 252 253 252 253 252 249 238 236 237 246 250 
197 251 250 250 250 250 250 250 250 250 249 238 236 237 236 238 
197 252 250 250 250 250 250 250 250 251 250 234 222 224 219 222 
194 246 245 245 245 245 245 246 245 245 246 243 240 241 239 240 
149 161 160 160 160 160 156 153 153 153 153 152 153 152 152 152 
139 138 132 128 129 129 127 126 127 126 125 124 125 126 126 126 
