P2
16 16
255
99 101 103 103 102 102 108 138 148 144 142 136 134 137 136 139 
104 111 102 88 133 146 165 168 222 253 249 224 217 219 220 224 
107 106 72 114 167 173 168 129 114 239 246 218 218 228 244 245 
108 89 114 162 172 187 172 164 127 179 245 208 204 224 226 227 
107 80 194 197 102 114 96 181 210 147 254 206 172 180 205 214 
99 122 209 202 126 164 125 186 218 180 233 222 189 185 209 202 
92 148 219 216 138 84 116 200 210 178 183 255 253 252 252 251 
155 124 211 211 176 139 161 203 214 129 221 239 234 243 253 252 
179 152 103 91 101 165 124 93 114 128 253 237 235 248 253 252 
175 235 200 197 158 146 174 217 193 217 254 236 235 245 251 253 
174 255 255 255 255 255 255 254 255 255 252 232 228 227 244 252 
174 254 252 252 252 252 252 252 252 252 251 232 229 229 224 235 
174 254 253 253 253 253 253 253 253 253 252 231 210 214 206 209 
170 247 246 246 246 246 246 246 246 246 246 242 237 238 236 236 
120 133 133 133 133 133 125 119 121 120 120 118 120 119 119 120 
110 109 102 98 96 97 95 92 95 93 93 92 93 94 94 94 
