P2
16 16
255
35 39 41 40 39 39 42 69 87 86 86 76 72 74 72 75 
76 112 107 115 156 156 169 232 248 248 247 232 225 214 211 225 
99 124 95 126 237 255 255 254 253 253 253 254 251 202 191 228 
89 137 88 133 217 255 253 253 253 253 253 253 253 253 253 253 
106 186 158 187 243 253 253 253 253 253 253 253 253 253 253 253 
110 255 255 255 254 254 254 254 253 253 253 253 253 253 253 254 
109 254 255 235 211 213 214 216 216 233 253 253 255 254 228 209 
110 226 212 214 162 208 242 237 240 246 253 252 208 230 192 168 
111 167 154 220 167 183 211 252 254 253 253 246 129 200 192 166 
110 235 231 234 206 208 225 253 253 253 253 252 227 241 220 206 
109 255 255 235 197 199 214 241 252 253 253 253 255 254 214 199 
110 206 187 230 172 168 173 185 247 253 253 250 174 214 199 162 
111 181 171 218 155 167 196 251 254 254 254 247 144 209 181 148 
103 230 229 227 212 214 222 236 236 236 236 236 228 232 219 210 
54 68 68 67 68 68 63 55 57 56 57 55 55 55 55 57 
48 48 43 38 38 38 37 35 36 36 37 36 35 36 36 36 
