P2
16 16
255
35 40 41 41 40 40 42 72 89 89 88 77 76 76 74 78 
76 113 106 114 155 154 168 232 248 248 247 232 229 214 208 225 
99 128 94 129 239 255 255 254 253 253 253 254 251 204 184 224 
90 140 88 134 218 255 253 253 253 253 253 253 253 253 253 253 
106 188 160 187 243 253 253 253 253 253 253 253 253 253 253 253 
110 255 255 255 254 254 254 254 253 253 253 253 253 253 253 254 
110 254 255 235 210 211 212 216 219 234 253 253 255 254 227 210 
111 226 213 216 167 207 241 236 239 245 253 252 208 229 193 170 
112 166 155 224 173 189 212 252 253 253 253 245 130 199 193 170 
110 236 231 237 211 213 228 252 253 253 253 253 228 241 222 210 
110 255 255 235 199 196 212 241 252 253 253 253 255 254 213 196 
111 203 187 229 173 174 179 190 248 253 253 250 176 214 203 165 
112 178 170 222 160 172 203 251 254 254 254 248 146 208 187 154 
104 231 229 229 214 216 224 236 236 236 236 236 228 231 221 212 
52 67 67 67 67 67 62 53 55 54 55 52 53 53 52 54 
45 44 40 37 37 36 35 34 35 35 35 35 34 35 35 35 
