P2
16 16
255
128 131 133 133 132 132 134 155 166 166 168 163 160 160 158 160 
159 184 178 182 204 204 212 244 251 250 250 244 242 237 236 241 
175 199 170 192 246 255 255 253 253 253 253 253 253 233 228 242 
163 186 166 184 230 254 253 253 253 253 253 253 253 253 253 253 
177 215 213 213 246 253 253 253 253 253 253 253 253 253 253 253 
181 255 254 255 254 253 253 253 253 253 253 253 253 253 253 253 
180 253 254 245 233 235 235 236 238 245 253 253 254 254 242 234 
181 240 234 239 220 237 247 245 247 250 253 252 232 242 232 222 
182 209 202 242 222 229 241 253 253 253 253 250 189 227 232 224 
181 245 243 247 237 238 245 253 253 253 253 253 241 247 242 238 
180 254 254 246 230 230 236 249 253 253 253 253 255 254 235 228 
181 229 220 245 227 227 229 233 251 253 253 252 215 235 235 223 
182 215 210 242 217 222 232 252 253 253 253 251 198 232 230 216 
177 242 241 242 237 237 240 245 245 245 245 245 241 243 240 236 
144 155 154 154 154 154 151 145 146 146 146 144 146 146 145 146 
139 139 135 131 131 130 129 129 130 129 130 129 129 129 129 129 
