P2
16 16
255
27 29 41 38 42 38 30 31 31 28 24 21 17 28 103 118 
27 49 103 112 115 115 110 113 113 102 93 92 92 106 161 98 
27 84 218 211 200 175 180 181 181 196 209 216 218 212 203 158 
33 98 195 177 164 160 163 161 167 168 171 191 197 166 138 158 
40 43 26 29 31 31 31 32 31 32 29 26 26 25 25 33 
41 28 6 7 9 9 9 10 9 10 8 6 6 6 7 7 
41 20 5 7 4 6 4 5 7 6 4 5 4 6 5 4 
37 18 10 12 7 6 6 6 7 6 6 6 6 6 6 5 
29 17 11 12 9 6 6 6 6 6 6 6 6 6 6 6 
28 17 14 18 22 28 29 30 30 31 32 32 32 35 37 37 
28 20 27 32 37 55 68 86 129 76 68 69 73 86 86 85 
28 19 26 31 38 44 57 68 97 66 47 46 45 48 46 44 
28 17 31 53 63 37 38 52 62 48 33 18 14 9 5 7 
27 17 50 66 65 46 40 56 69 42 22 18 17 10 8 4 
24 17 58 69 78 68 31 50 113 113 40 6 27 14 7 3 
16 14 40 52 60 50 26 44 114 90 32 5 31 16 14 7 
