P2
16 16
255
22 29 41 39 39 40 32 32 32 28 23 21 17 29 103 122 
23 49 105 111 114 115 110 114 114 102 93 92 91 106 165 103 
28 85 218 211 200 176 182 182 181 197 209 216 218 212 204 163 
33 98 195 177 165 161 165 161 168 171 172 192 197 168 141 159 
40 43 26 28 31 30 30 32 31 32 29 26 26 24 26 36 
41 27 6 7 9 9 9 9 9 9 8 6 6 6 7 7 
38 19 6 7 4 6 4 5 7 6 4 5 4 6 6 4 
37 18 11 13 7 6 6 6 7 6 6 6 6 6 6 5 
32 18 11 12 9 6 6 6 6 6 6 6 6 6 6 6 
28 17 15 19 22 23 27 28 29 29 31 31 33 34 36 37 
28 20 29 36 38 55 68 87 128 75 68 70 76 85 85 84 
28 19 27 33 40 44 57 67 99 66 47 48 46 46 45 44 
28 18 34 51 61 37 38 52 63 47 32 17 13 9 6 10 
26 17 48 65 67 45 40 57 68 41 22 17 16 10 9 6 
20 17 57 69 77 65 30 51 103 111 41 7 28 15 8 4 
15 13 41 52 60 51 26 42 101 91 33 6 31 16 15 8 
