P2
16 16
255
14 29 40 37 31 30 29 30 31 29 22 17 15 27 88 122 
20 45 80 81 82 82 77 81 85 76 73 73 72 82 122 110 
29 68 149 147 145 140 141 138 140 143 146 148 149 145 141 132 
31 80 137 130 127 126 127 129 127 127 128 134 136 119 107 118 
36 39 21 23 25 25 25 26 25 26 24 21 21 20 21 25 
35 23 6 7 8 9 9 9 8 9 8 6 6 6 6 7 
31 15 5 7 4 5 4 5 6 5 4 5 4 6 5 5 
31 16 11 12 7 6 5 6 6 6 5 6 5 6 6 5 
31 18 11 11 9 5 5 5 5 5 6 6 6 5 5 6 
31 19 16 18 18 18 20 23 24 23 24 28 29 29 29 29 
30 21 33 37 36 46 61 75 96 56 52 65 68 68 68 67 
30 19 32 36 35 38 52 62 84 59 46 43 41 38 36 36 
29 17 32 36 40 30 32 47 57 40 26 15 11 8 5 10 
28 16 33 47 61 42 34 51 63 35 19 14 15 9 8 6 
18 14 46 64 66 53 28 45 89 86 32 8 25 13 7 4 
9 10 40 50 50 42 24 39 88 91 34 6 29 17 14 7 
