P2
16 16
255
5 6 7 7 7 7 7 7 7 7 6 5 5 5 5 5 
5 6 8 9 9 8 9 7 6 7 6 5 6 6 5 5 
5 6 8 9 9 8 8 8 8 8 8 8 8 8 7 6 
5 6 8 9 9 9 9 9 9 9 8 8 8 7 8 8 
5 6 7 8 8 7 7 7 7 7 6 5 5 5 5 5 
6 5 7 7 7 6 5 5 5 5 5 5 5 5 5 5 
4 4 5 5 5 5 5 5 5 5 5 5 5 5 5 5 
0 26 113 109 109 109 109 109 110 103 92 105 110 110 110 109 
0 57 255 255 255 255 255 255 194 126 124 241 255 255 254 255 
0 55 255 251 246 186 127 158 158 142 86 166 162 161 198 252 
0 54 253 246 239 189 160 172 148 132 101 139 152 178 211 248 
0 11 39 34 28 29 30 29 27 26 36 29 26 25 26 28 
0 1 3 1 0 0 0 0 1 3 3 1 1 0 0 0 
0 1 2 1 1 0 0 0 1 2 2 2 1 1 1 0 
0 1 1 1 1 0 0 0 1 2 2 2 1 1 1 0 
0 0 0 0 0 0 0 0 1 2 2 1 1 0 0 0 
