P2
16 16
255
5 5 7 7 7 7 7 7 7 7 5 5 5 5 5 5 
5 5 8 9 9 8 9 7 6 6 6 5 5 5 5 5 
5 5 8 9 9 8 8 8 8 8 8 8 8 8 7 6 
5 5 8 9 9 9 9 9 9 9 8 8 8 8 8 8 
5 5 7 8 7 7 7 7 7 7 5 5 5 5 5 5 
5 5 6 7 7 6 5 5 5 5 5 5 5 5 5 5 
4 4 4 4 4 4 4 4 4 4 4 4 4 4 4 4 
0 26 112 109 109 109 109 109 109 103 92 105 109 109 109 109 
0 56 255 255 255 255 255 255 195 123 124 242 255 255 254 255 
0 55 255 251 246 186 125 157 158 140 80 167 162 162 198 252 
0 53 253 246 239 187 159 171 149 131 96 139 152 180 211 248 
0 10 39 34 28 28 29 28 26 27 35 29 25 25 26 28 
0 1 3 1 0 0 0 0 1 3 3 1 0 0 0 0 
0 1 2 1 1 0 0 0 1 2 2 2 1 0 0 0 
0 0 1 1 0 0 0 0 1 2 2 2 1 0 0 0 
0 0 0 0 0 0 0 0 1 2 2 1 0 0 0 0 
