P2
16 16
255
5 5 7 7 7 7 8 7 7 7 6 5 5 5 5 5 
5 5 9 10 10 9 9 8 7 7 6 6 6 6 6 6 
5 5 8 9 9 8 9 8 9 8 8 8 8 9 7 6 
5 6 9 10 10 9 9 10 10 10 9 9 9 8 8 8 
5 5 7 8 8 7 8 8 8 8 6 6 6 6 6 6 
5 5 7 7 7 7 5 5 5 5 5 5 5 5 5 5 
4 4 5 5 5 5 4 4 4 4 5 4 4 4 4 4 
1 26 112 109 109 109 109 109 109 103 92 105 109 109 109 109 
0 57 255 255 255 255 255 255 195 123 124 242 255 255 254 255 
0 55 255 251 246 187 125 157 158 141 82 167 163 163 200 252 
0 54 253 246 239 187 159 172 149 132 97 139 152 181 210 248 
0 11 39 34 28 29 30 29 27 27 35 29 26 26 26 28 
1 1 3 1 0 0 0 0 1 3 3 1 1 0 0 0 
1 1 2 1 1 1 1 1 1 2 2 2 1 1 1 1 
1 1 1 1 1 1 1 1 1 2 2 2 1 1 0 1 
1 1 1 1 1 1 1 1 1 2 2 1 1 1 1 1 
