P2
16 16
255
20 30 55 57 69 70 55 57 55 41 35 33 29 45 129 106 
24 67 172 175 175 167 169 170 169 168 168 163 163 175 198 132 
31 105 230 214 199 177 182 179 180 192 208 227 232 210 187 181 
42 90 126 120 116 116 118 117 118 117 118 125 127 108 91 112 
49 36 8 10 12 12 12 13 12 13 11 9 9 9 9 11 
43 27 7 7 8 8 8 8 8 8 8 7 7 7 7 7 
39 20 8 9 8 9 8 9 10 8 11 9 8 9 8 8 
33 16 7 8 8 8 8 7 7 7 7 7 7 7 7 7 
27 15 9 10 11 11 11 9 7 7 7 7 7 7 7 7 
27 15 9 10 9 10 10 10 9 9 9 9 9 9 10 11 
27 14 9 10 9 9 9 9 9 10 10 10 9 10 9 10 
27 13 10 12 13 12 12 13 13 13 11 11 11 10 10 10 
26 11 8 8 8 8 8 8 8 7 7 7 7 7 7 7 
21 10 7 7 7 7 8 8 8 7 7 7 7 7 7 7 
13 9 7 7 9 9 10 9 9 8 7 7 7 7 7 7 
10 8 7 8 10 9 9 7 7 7 7 7 7 7 7 7 
