P2
16 16
255
27 31 46 55 66 70 51 50 52 40 35 34 32 45 128 123 
26 66 166 172 177 168 168 170 171 168 168 165 163 174 196 142 
30 104 231 215 200 176 182 179 179 192 209 227 232 211 189 184 
39 88 124 117 114 114 115 115 116 115 117 124 127 108 92 110 
45 33 6 8 10 11 11 12 11 13 11 9 9 9 9 11 
40 26 6 7 7 7 7 7 8 8 8 7 7 7 8 8 
34 19 8 10 7 9 8 8 9 7 9 9 7 9 8 8 
29 15 7 7 7 7 7 7 6 6 6 6 6 6 6 6 
28 15 9 11 11 11 11 9 7 7 7 7 7 7 8 8 
27 15 9 10 10 11 10 10 9 9 9 9 9 9 10 11 
27 14 8 9 9 9 9 9 9 9 9 9 9 9 9 9 
27 13 8 10 10 11 11 11 11 11 10 10 10 9 9 9 
27 11 8 8 8 8 8 8 8 8 7 7 7 7 7 7 
24 10 7 7 8 8 8 8 8 7 7 7 7 7 7 7 
14 8 7 8 9 10 10 9 10 8 7 7 7 7 7 7 
7 7 7 8 10 9 9 7 7 7 7 7 7 7 7 7 
