P2
16 16
255
28 32 56 54 65 68 52 52 52 40 35 34 32 43 117 91 
27 62 146 149 151 147 147 147 147 144 142 139 138 147 167 114 
30 90 190 176 166 158 160 161 162 172 178 189 191 174 159 153 
40 78 105 99 97 97 98 102 102 102 103 108 109 94 81 96 
45 34 7 9 11 12 12 13 12 14 11 10 10 10 10 12 
42 29 7 8 8 9 8 9 9 10 10 9 9 9 9 10 
37 21 10 12 10 11 10 11 12 10 12 11 10 11 10 9 
33 17 8 8 8 8 8 8 8 8 8 8 8 8 8 8 
29 17 11 12 12 12 13 10 9 9 9 9 9 9 9 9 
28 17 10 12 11 12 11 11 10 10 11 11 11 10 11 13 
28 16 10 11 11 11 11 10 11 11 11 12 11 12 11 12 
28 14 11 14 14 13 14 14 14 14 13 12 12 12 11 11 
27 13 9 10 10 10 10 10 10 9 8 8 8 8 8 8 
23 11 8 8 9 9 9 9 9 8 8 8 8 8 8 8 
13 9 8 9 11 11 11 11 11 9 8 8 8 8 8 8 
8 8 8 9 11 11 10 8 8 8 8 8 8 8 8 8 
