P2
16 16
255
160 164 136 135 167 186 190 187 187 185 187 189 187 187 187 187 
135 107 92 99 110 150 165 188 197 166 142 161 185 190 187 187 
158 98 81 98 104 129 128 130 162 138 101 103 171 227 216 196 
192 112 85 99 109 133 130 94 89 96 111 109 132 183 215 208 
192 135 118 134 156 168 147 101 97 101 131 115 112 109 124 133 
153 144 137 131 128 136 112 91 87 84 106 94 91 78 65 79 
205 208 210 198 166 167 174 173 147 137 164 171 157 136 148 134 
245 234 231 222 179 173 219 218 174 157 165 158 151 161 199 169 
234 170 158 155 157 158 215 222 191 179 172 169 175 186 210 180 
218 206 176 174 174 163 204 236 196 183 184 185 191 191 216 199 
212 206 186 175 175 180 215 240 206 190 174 178 192 195 230 211 
203 205 204 204 191 177 211 231 217 205 179 182 201 211 223 226 
245 214 205 200 198 184 214 238 217 184 192 193 185 207 235 232 
192 171 172 164 155 158 205 246 236 192 197 186 181 223 245 240 
193 189 181 180 179 175 213 245 243 233 233 224 223 237 244 244 
228 181 161 156 152 159 198 237 236 237 237 237 237 236 236 236 
