P2
16 16
255
227 226 193 156 147 169 141 150 174 165 183 195 203 201 194 159 
227 227 204 184 151 161 155 113 117 123 131 128 141 159 190 190 
227 227 220 189 160 147 173 131 112 139 162 128 113 102 115 146 
227 227 226 203 182 150 166 165 122 136 150 124 115 99 64 63 
229 230 230 218 189 166 173 175 139 140 180 171 159 118 82 69 
139 138 146 146 138 116 122 129 117 112 104 103 106 80 65 61 
157 156 162 185 188 182 184 170 149 160 160 155 143 148 153 149 
140 140 145 216 230 230 220 174 140 146 146 141 138 174 214 232 
166 162 158 210 228 227 219 185 161 165 152 160 164 188 209 227 
154 163 168 215 228 227 225 195 168 165 173 174 175 188 223 227 
171 173 168 214 227 227 204 173 165 164 166 166 163 171 204 225 
140 136 146 208 228 227 220 198 178 174 172 169 172 195 220 227 
168 165 166 213 228 227 227 227 186 179 185 170 188 226 227 227 
144 146 155 210 228 227 227 227 211 199 190 180 205 226 227 227 
163 165 171 214 228 227 227 227 227 228 228 228 227 227 227 227 
186 189 199 221 227 227 227 227 227 227 227 227 227 227 227 227 
