P2
16 16
255
243 199 176 177 179 180 141 155 170 151 162 173 182 179 178 177 
244 214 180 177 177 187 156 112 117 128 134 130 143 158 184 185 
243 222 192 177 177 179 186 127 111 143 164 130 113 106 117 149 
245 215 191 177 177 176 191 158 119 137 159 132 117 108 68 63 
248 233 215 182 178 178 195 167 130 137 183 175 161 122 90 74 
146 146 154 136 129 117 126 132 116 113 107 104 105 79 66 65 
164 162 172 186 190 186 191 178 151 163 165 160 148 152 162 155 
144 144 152 228 244 248 236 180 144 151 150 146 143 180 230 250 
168 166 158 220 246 245 234 194 168 166 153 163 165 198 223 245 
155 161 165 226 245 244 241 201 174 169 178 180 181 195 239 244 
174 177 173 227 245 244 214 177 168 167 171 173 170 175 213 242 
144 140 155 221 246 244 235 209 183 179 178 175 179 204 233 244 
173 164 168 227 245 244 244 244 192 184 188 173 196 243 245 244 
147 147 157 223 245 244 244 244 223 210 199 189 216 243 244 244 
163 164 172 226 245 244 244 244 245 245 246 246 245 244 244 244 
188 192 204 236 245 244 244 244 244 244 244 244 244 244 244 244 
