P2
16 16
255
241 204 188 187 175 186 157 169 181 167 176 186 193 191 190 189 
243 218 191 189 180 184 172 133 141 147 152 147 158 172 197 197 
243 224 199 189 188 176 192 150 139 166 180 150 132 124 135 160 
244 218 199 189 189 182 190 178 141 161 177 150 132 124 90 84 
246 233 217 192 190 189 202 186 156 156 193 184 173 143 109 100 
176 175 171 154 148 140 148 152 144 137 132 126 127 105 92 88 
185 182 184 195 199 197 201 191 169 177 177 172 163 169 177 173 
159 159 164 228 242 247 237 193 160 164 164 161 159 191 232 248 
184 180 175 225 245 244 236 205 179 180 170 178 179 206 227 244 
171 174 178 229 245 244 241 211 188 182 189 191 192 203 239 244 
185 186 183 230 244 244 218 190 180 177 182 183 179 185 219 243 
159 155 163 223 245 244 236 213 191 187 187 190 192 212 235 244 
186 179 182 229 245 244 244 244 199 192 199 185 204 243 244 244 
166 166 172 226 245 244 244 244 226 216 208 200 217 243 244 244 
178 180 185 228 245 244 244 244 244 245 245 245 244 244 244 244 
199 204 209 236 244 244 244 244 244 244 244 244 244 244 244 244 
