P2
16 16
255
149 163 122 120 158 177 180 177 176 174 175 178 176 176 176 176 
113 92 81 87 99 139 154 180 188 150 122 145 174 180 176 175 
133 82 71 89 95 116 113 116 151 127 82 83 161 226 215 195 
177 95 73 89 98 118 122 84 75 90 102 98 119 175 214 215 
185 118 99 124 150 160 137 94 85 90 124 104 102 90 109 122 
125 112 112 112 111 114 87 67 65 62 88 79 75 61 50 61 
192 193 199 192 157 155 163 159 131 122 152 164 146 120 133 113 
248 236 231 222 174 167 216 213 162 147 154 150 140 151 191 162 
235 160 146 147 146 147 203 212 182 170 161 156 165 177 205 184 
217 201 166 166 167 152 194 232 189 175 174 178 181 182 214 204 
206 201 177 160 160 165 210 242 202 181 165 172 185 191 229 204 
194 199 198 198 186 168 206 231 215 203 173 176 194 207 218 208 
248 210 198 189 189 175 210 239 215 175 185 186 174 201 233 220 
185 161 161 146 136 142 199 249 236 182 190 172 166 219 248 242 
185 182 173 167 166 161 208 248 245 233 232 219 217 236 247 247 
230 174 149 140 132 140 188 240 240 240 240 241 242 240 239 236 
