P2
16 16
255
142 157 128 129 178 195 205 193 181 159 157 154 150 156 181 182 
112 85 78 86 95 134 158 188 201 159 119 147 183 193 178 180 
131 81 63 79 92 116 111 114 146 123 77 76 163 223 220 217 
166 91 70 83 92 115 116 79 67 87 99 90 116 168 204 212 
173 108 98 120 137 154 134 91 79 89 119 98 94 87 105 123 
124 111 110 108 106 113 88 68 67 65 86 74 70 60 47 61 
179 178 186 182 151 148 155 152 125 116 144 155 140 118 128 109 
226 215 212 204 165 156 206 206 154 140 148 145 135 144 180 154 
213 150 138 134 140 139 200 206 171 161 157 155 162 171 192 175 
203 191 161 158 159 148 189 218 180 169 168 167 173 179 203 207 
192 190 173 157 154 160 196 221 191 176 165 167 174 180 214 209 
179 185 186 187 176 160 193 214 202 193 166 168 184 194 206 214 
226 199 192 184 180 171 201 219 200 170 180 179 170 189 216 216 
174 155 155 142 134 142 188 226 216 174 182 166 165 207 225 222 
175 173 169 163 161 158 195 226 223 215 213 203 205 219 225 224 
209 163 147 138 131 139 179 216 215 216 216 216 216 215 215 215 
