P2
16 16
255
19 22 20 19 22 21 18 22 22 19 18 21 20 19 22 20 
1 1 1 1 1 1 1 1 2 2 3 2 1 1 1 1 
0 0 0 0 0 0 0 0 7 14 39 24 24 13 9 3 
3 3 3 3 3 3 3 3 4 4 6 12 34 36 26 9 
111 116 122 121 122 125 123 125 123 121 122 121 120 121 120 121 
91 106 166 167 175 153 153 127 145 160 139 136 139 128 138 145 
79 92 159 166 177 141 92 82 116 155 151 140 143 141 145 140 
132 93 84 80 88 93 53 73 128 155 139 133 137 131 133 130 
156 107 89 99 101 117 71 69 160 155 129 132 134 130 131 128 
149 89 82 84 88 113 156 144 159 155 130 133 136 141 142 142 
169 105 90 98 123 124 166 171 159 147 71 59 60 64 65 65 
139 75 81 73 74 74 86 156 160 129 5 0 0 0 0 0 
138 71 83 70 55 68 102 156 160 129 4 0 0 0 0 0 
142 75 72 81 70 115 163 159 161 129 4 0 0 0 0 2 
109 100 123 150 126 137 143 145 148 129 4 0 0 0 0 3 
138 154 156 148 117 121 116 121 131 126 4 0 1 4 15 20 
