P2
16 16
255
17 19 17 17 20 18 16 18 18 17 16 19 17 17 20 18 
1 1 1 1 1 1 1 1 1 2 3 2 1 1 1 1 
0 0 0 0 0 0 0 0 7 13 37 20 11 8 6 3 
3 3 3 3 3 3 3 3 3 3 6 10 23 24 19 9 
107 112 117 117 117 118 118 120 118 116 114 111 114 115 115 114 
89 101 152 154 166 148 148 123 135 154 135 130 134 127 136 139 
76 87 146 153 169 132 86 78 109 149 144 132 136 134 138 134 
126 89 81 78 86 90 51 71 120 148 126 118 121 114 119 119 
145 96 79 91 99 114 68 65 152 149 120 118 119 116 116 115 
130 82 73 78 84 108 146 135 153 149 119 119 122 128 128 129 
147 92 83 92 115 118 156 161 153 141 64 53 54 60 61 61 
126 70 78 70 70 73 84 150 154 123 4 0 0 0 0 0 
126 68 81 68 52 65 97 150 154 122 4 0 0 0 0 0 
130 70 69 77 66 110 157 153 155 122 4 0 0 0 0 2 
103 93 117 144 118 131 138 138 143 122 4 0 0 0 0 3 
133 149 151 143 111 117 111 116 127 121 4 0 1 4 14 19 
