P2
16 16
255
19 23 19 18 23 20 17 21 21 18 18 22 19 18 18 18 
1 1 1 1 1 1 1 1 2 2 3 2 1 1 1 1 
0 0 0 0 0 0 0 0 8 14 37 28 28 20 12 5 
4 4 4 4 4 4 4 4 5 5 8 14 40 45 34 14 
113 118 126 126 126 127 126 128 127 125 120 117 120 122 119 121 
82 96 157 160 171 149 151 123 139 157 121 108 116 105 109 125 
67 82 149 156 171 135 88 76 114 155 147 133 138 135 138 133 
121 78 72 69 75 84 52 73 125 154 132 126 128 124 125 124 
146 91 76 86 92 111 70 67 157 154 125 126 126 122 122 120 
131 76 71 70 75 97 148 141 159 154 127 128 128 137 139 137 
152 111 107 110 127 133 165 166 159 146 69 56 57 62 64 64 
141 100 106 99 101 104 109 155 160 128 5 0 0 0 0 0 
140 98 107 96 80 85 109 155 160 128 4 0 0 0 0 0 
139 92 87 92 81 117 163 160 161 128 4 0 0 0 0 5 
107 97 120 150 117 128 132 136 145 128 4 0 0 0 1 8 
140 154 155 144 97 102 96 100 121 124 4 0 1 5 16 23 
