P2
16 16
255
0 0 0 0 0 0 0 0 0 0 1 1 1 1 1 1 
0 0 0 0 0 0 0 0 0 0 1 2 1 1 1 1 
0 0 0 0 0 0 0 0 0 0 0 1 2 2 1 1 
5 5 5 5 6 6 5 5 5 6 6 6 7 7 7 4 
56 52 48 49 57 53 41 39 33 17 16 15 15 15 16 10 
108 100 94 95 96 100 98 100 63 1 0 0 0 0 0 0 
103 106 101 88 80 104 115 120 64 1 0 0 0 0 0 0 
82 95 104 77 75 124 132 107 67 4 1 1 0 0 0 0 
155 159 167 169 173 175 173 172 165 28 10 8 1 0 0 0 
142 147 159 176 176 176 176 176 171 17 1 1 0 0 0 0 
155 158 154 157 159 158 155 158 151 17 6 3 3 2 0 0 
142 144 143 145 147 148 142 144 137 15 2 3 3 1 0 0 
144 143 144 148 149 148 143 147 139 15 2 4 4 1 0 0 
162 166 164 164 169 168 169 163 157 16 0 1 1 1 0 0 
39 39 39 39 39 39 39 39 44 9 0 1 0 0 0 0 
0 0 0 0 0 0 0 0 1 4 0 1 1 0 0 0 
