P2
16 16
255
0 0 0 0 0 0 0 0 0 0 1 1 1 1 1 1 
0 0 0 0 0 0 0 0 1 1 2 2 2 2 2 1 
0 0 0 0 0 0 0 0 0 0 0 1 1 1 1 1 
5 5 5 5 6 5 5 5 5 6 6 6 6 6 6 4 
55 53 49 52 59 55 43 42 35 17 16 16 16 16 16 10 
104 98 97 99 99 105 101 106 68 1 0 0 0 0 0 0 
100 100 97 83 82 105 123 132 72 1 0 0 0 0 0 0 
82 90 96 72 73 129 139 109 70 4 1 1 0 0 0 0 
155 160 169 170 174 177 173 172 167 29 9 7 1 0 0 0 
142 149 161 177 177 177 177 177 172 18 1 1 1 1 0 0 
158 160 158 160 163 162 156 160 156 17 5 3 3 2 0 0 
148 149 149 151 154 152 147 148 143 15 2 2 2 1 0 0 
149 149 148 153 152 150 145 151 143 15 2 3 3 1 0 0 
164 167 166 166 171 170 170 165 159 16 1 2 2 1 0 0 
38 38 38 38 38 38 38 38 42 9 0 1 1 0 0 0 
0 0 0 0 0 0 0 0 1 4 0 1 1 0 0 0 
