P2
16 16
255
0 0 0 0 0 0 0 0 0 0 1 1 1 1 1 1 
0 0 0 0 0 0 0 0 1 1 1 1 1 2 1 1 
0 0 0 0 0 0 0 0 0 0 0 1 1 1 1 1 
3 3 3 4 4 4 3 3 4 4 4 4 4 4 4 3 
36 35 32 33 40 37 30 29 24 12 11 11 11 11 11 8 
65 68 70 75 78 80 73 76 47 1 0 0 0 0 0 0 
62 63 67 70 61 80 88 90 49 1 0 0 0 0 0 0 
59 65 70 54 54 100 104 85 54 3 1 1 0 0 0 0 
127 128 134 134 137 139 137 137 133 23 6 5 1 0 0 0 
123 123 130 141 141 140 140 141 137 14 1 1 1 0 0 0 
124 125 122 124 123 124 121 124 120 14 4 2 2 1 0 0 
111 116 112 114 113 115 110 113 109 12 1 2 2 1 0 0 
111 113 112 116 115 116 111 114 109 12 1 2 2 1 0 0 
129 131 129 129 134 135 134 128 124 13 0 1 1 1 0 0 
31 31 31 31 31 31 31 31 35 8 0 1 1 0 0 0 
0 0 0 0 0 0 0 0 1 3 0 1 1 0 0 0 
