P2
16 16
255
5 10 16 62 91 4 5 0 0 0 0 0 0 0 0 0 
9 22 50 91 114 7 19 1 0 0 0 0 0 0 0 0 
5 8 13 46 74 6 6 2 0 0 0 0 0 0 0 0 
2 2 2 3 5 3 2 2 2 2 2 2 2 2 2 2 
18 19 16 13 13 13 17 19 18 16 19 18 17 17 19 16 
1 1 1 1 1 1 1 1 2 2 2 2 2 2 2 2 
0 0 0 0 0 0 0 0 3 14 10 10 9 7 8 10 
4 4 4 4 4 4 4 4 4 5 5 5 5 5 5 5 
110 107 105 106 106 107 107 107 107 107 107 107 107 107 107 107 
125 129 130 128 130 132 138 138 138 138 138 138 138 138 138 138 
133 125 119 119 121 118 121 121 123 119 121 121 121 122 123 124 
135 126 122 124 123 123 125 123 125 123 124 122 123 125 123 121 
83 76 83 73 48 58 62 98 58 53 85 81 61 78 140 155 
41 35 44 52 24 12 26 60 11 12 48 30 20 34 105 120 
17 28 47 69 78 20 28 114 49 21 76 58 56 91 53 40 
30 27 36 61 92 69 51 111 85 28 82 185 184 166 51 63 
