P2
16 16
255
4 7 13 51 70 3 4 0 0 0 0 0 0 0 0 0 
8 18 40 79 92 6 14 1 0 0 0 0 0 0 0 0 
4 7 11 36 57 5 5 1 0 0 0 0 0 0 0 0 
3 3 2 2 4 2 3 2 2 2 2 2 2 2 2 2 
18 20 16 12 12 12 18 20 18 16 19 19 17 17 20 17 
1 1 1 1 1 1 1 1 1 1 1 2 1 1 1 1 
0 0 0 0 0 0 0 0 2 12 9 9 8 7 7 9 
3 3 3 3 3 3 3 3 3 4 4 4 4 4 4 4 
105 104 104 108 108 109 110 110 110 110 110 110 110 110 110 110 
130 131 131 130 125 134 146 145 145 145 145 145 145 145 145 145 
140 128 121 121 121 120 124 124 125 122 124 123 123 125 125 127 
140 125 120 123 123 123 126 123 125 124 123 123 122 124 122 122 
81 74 80 72 47 56 60 95 54 48 78 76 59 73 123 130 
37 35 45 48 22 11 23 64 10 9 46 28 16 30 103 100 
15 26 46 58 66 16 24 102 43 19 72 52 48 82 54 37 
30 26 36 63 101 68 48 103 81 27 66 140 140 128 46 48 
