P2
16 16
255
4 7 13 51 70 3 4 0 0 0 0 0 0 0 0 0 
8 18 40 78 91 6 14 1 0 0 0 0 0 0 0 0 
4 7 11 36 58 5 5 1 0 0 0 0 0 0 0 0 
3 3 2 2 4 2 3 2 2 2 2 2 2 2 2 2 
20 22 17 12 12 13 20 23 20 18 22 22 19 19 21 19 
1 1 1 1 1 1 1 1 1 2 2 2 2 1 1 2 
0 0 0 0 0 0 0 0 2 12 9 9 8 6 7 10 
3 3 3 3 3 3 3 3 3 4 4 4 4 4 4 4 
105 104 104 108 108 109 110 110 110 110 110 110 110 110 110 110 
131 132 131 130 125 134 146 145 145 145 145 145 145 145 145 145 
140 128 122 122 122 121 124 124 125 122 124 124 123 125 126 127 
140 126 121 124 124 125 127 123 125 124 124 124 123 125 122 123 
82 75 81 73 47 57 61 96 54 49 79 76 61 75 123 131 
37 35 45 48 22 11 23 64 10 10 47 29 16 31 102 101 
15 27 46 59 66 16 24 102 44 20 73 53 49 83 55 38 
30 26 37 64 101 69 48 105 82 28 66 141 140 128 46 48 
