P2
16 16
255
15 15 15 15 15 15 15 15 15 15 15 15 15 15 15 15 
15 15 15 15 15 15 15 15 14 14 15 15 15 15 15 15 
15 15 14 14 14 15 15 16 29 31 15 14 15 15 15 15 
15 16 51 70 28 32 38 36 74 85 41 19 14 14 15 15 
15 17 81 95 25 26 60 70 70 64 56 63 60 41 17 15 
15 15 49 89 50 44 60 62 73 59 36 54 137 115 35 14 
16 20 38 82 142 161 75 21 58 49 42 20 49 59 29 13 
139 176 158 86 97 69 50 10 15 16 11 10 33 75 136 55 
252 252 208 93 85 57 42 9 6 7 8 7 13 81 245 232 
245 246 227 90 60 25 13 8 21 35 35 8 17 40 98 233 
245 246 236 93 64 22 7 11 57 74 45 8 18 30 106 237 
245 245 246 159 67 25 8 20 59 64 23 11 29 84 231 247 
245 245 247 221 79 23 8 8 16 25 14 37 66 162 250 245 
245 245 245 246 138 27 23 10 21 35 71 120 163 234 246 245 
245 245 245 249 183 64 52 52 117 182 235 247 249 246 245 245 
245 245 245 248 198 80 120 217 252 250 246 245 245 245 245 245 
