P2
16 16
255
14 14 14 14 14 14 14 14 14 14 14 14 14 14 14 14 
14 14 14 14 14 14 14 14 14 14 14 14 14 14 14 14 
14 14 14 14 14 15 15 16 28 30 15 14 14 14 14 14 
14 16 46 65 28 33 37 35 70 81 42 19 13 14 14 14 
14 17 81 93 26 25 52 65 67 58 55 64 55 38 17 14 
14 15 53 93 50 40 53 59 69 56 37 53 123 112 36 14 
16 20 40 88 150 156 80 21 57 49 41 20 55 74 31 13 
141 182 162 84 110 80 58 10 15 17 11 10 38 86 139 55 
255 255 212 87 90 75 55 9 6 7 7 6 14 81 252 240 
253 254 231 87 62 30 15 8 16 22 26 10 17 34 92 239 
253 253 242 90 64 22 7 11 34 38 37 13 17 26 104 244 
253 253 254 161 66 25 8 17 36 38 25 14 34 82 237 255 
253 253 255 228 84 23 8 8 20 33 18 41 78 166 255 253 
253 253 253 253 155 32 27 11 28 41 70 128 171 241 254 253 
253 253 253 255 185 79 60 52 122 188 241 255 255 254 253 253 
253 253 253 255 198 86 129 219 255 255 254 253 253 253 253 253 
