P2
16 16
255
34 34 34 34 34 34 34 34 34 34 34 34 34 34 34 34 
34 34 34 34 34 34 34 34 33 33 34 34 34 34 34 34 
34 34 33 33 34 34 35 37 52 54 35 33 34 34 34 34 
34 36 69 89 50 55 62 58 97 110 68 40 33 33 34 34 
34 38 102 116 47 46 76 90 92 87 82 89 77 60 37 34 
34 34 75 122 77 64 77 80 91 83 64 78 138 128 59 33 
36 42 62 106 158 162 97 39 81 72 65 37 75 90 54 32 
160 194 178 106 124 100 80 24 31 32 23 22 56 103 156 79 
255 255 219 111 108 87 74 21 16 16 18 16 28 105 252 241 
252 253 233 108 85 47 30 19 33 47 52 22 34 53 110 241 
252 253 244 113 85 38 16 23 66 75 71 27 32 41 118 245 
252 252 253 173 87 42 19 35 71 74 48 27 52 102 239 254 
252 252 254 232 105 40 19 19 39 63 37 58 98 183 255 252 
252 252 252 253 165 47 43 23 46 66 96 142 181 243 253 252 
252 252 252 254 195 101 84 75 140 198 243 255 255 253 252 252 
252 252 252 255 209 108 147 227 255 255 253 252 252 252 252 252 
