P2
16 16
255
10 8 7 7 7 6 5 6 6 6 6 6 7 6 5 5 
10 9 9 10 9 9 7 6 6 7 6 6 7 8 8 7 
20 14 10 7 6 6 6 6 6 6 6 6 6 9 9 13 
30 17 11 6 6 6 6 6 6 6 6 6 6 5 8 15 
29 36 58 7 5 6 6 6 6 6 6 6 6 5 8 18 
29 42 81 8 5 6 6 6 6 6 6 6 6 5 7 16 
26 40 79 8 5 6 6 6 6 6 6 6 6 5 8 21 
47 69 83 8 5 6 6 6 6 6 6 6 6 5 9 30 
61 62 41 7 5 6 6 6 6 6 6 6 6 6 6 10 
12 10 9 6 6 6 6 5 6 6 5 6 6 6 6 6 
8 8 9 6 6 6 6 15 38 30 9 5 6 6 6 7 
6 6 8 6 6 6 5 27 70 42 11 5 6 6 6 7 
7 7 7 6 6 6 5 17 44 28 10 5 6 6 6 7 
7 7 6 6 6 6 6 6 14 9 6 6 6 6 7 7 
7 7 7 7 7 6 6 6 5 6 8 7 7 8 8 6 
6 6 7 13 10 5 6 6 6 6 18 13 11 12 11 5 
