P2
16 16
255
7 6 5 5 5 4 3 3 3 3 3 4 5 4 3 3 
9 8 8 9 8 7 6 6 6 6 6 6 7 7 7 7 
20 14 10 7 6 6 6 5 6 6 6 6 6 9 9 12 
30 17 11 5 5 5 5 5 5 5 5 5 5 5 7 15 
29 35 50 6 5 5 5 5 5 5 5 5 5 5 7 17 
29 40 62 6 5 5 5 5 5 5 5 5 5 5 7 15 
26 38 61 6 5 5 5 5 5 5 5 5 5 5 7 21 
48 67 68 6 5 5 5 5 5 5 5 5 5 5 7 23 
62 62 40 6 5 5 5 5 5 5 5 5 5 5 6 9 
12 11 9 6 5 5 5 5 5 5 5 5 5 5 5 6 
8 8 8 6 5 5 5 15 35 31 9 5 5 5 5 6 
6 6 7 6 6 6 6 24 69 42 11 6 6 5 5 6 
6 6 6 5 5 6 6 15 37 24 11 6 6 5 5 6 
6 6 6 5 6 6 6 6 14 9 6 6 5 6 7 6 
5 5 5 6 6 5 5 5 5 5 7 6 6 7 7 5 
2 2 2 2 2 2 2 2 2 2 3 3 2 2 2 2 
