P2
16 16
255
6 5 4 4 5 4 3 3 3 3 3 3 4 3 3 3 
6 6 5 6 5 5 4 4 4 4 4 4 4 5 5 4 
12 9 6 4 4 4 4 3 3 3 3 3 3 5 6 8 
19 10 7 3 3 3 3 3 3 3 3 3 3 3 5 10 
18 24 35 4 3 3 3 3 3 3 3 3 3 3 5 12 
18 27 44 4 3 3 3 3 3 3 3 3 3 3 5 10 
17 26 44 4 3 3 3 3 3 3 3 3 3 3 5 12 
36 48 47 4 3 3 3 3 3 3 3 3 3 3 5 13 
33 38 27 4 3 3 3 3 3 3 3 3 3 3 4 7 
6 6 5 3 3 3 3 3 3 3 3 3 3 3 4 5 
6 6 6 3 3 3 3 8 17 14 5 3 3 3 4 5 
6 6 6 3 3 3 3 12 33 23 7 3 3 3 4 5 
6 6 5 3 3 3 3 8 20 16 6 3 3 3 4 5 
6 6 5 3 4 4 3 3 8 5 3 3 3 4 5 5 
5 5 5 4 4 4 4 4 3 3 4 4 4 5 5 5 
2 2 2 3 2 2 2 2 2 2 3 3 2 3 2 2 
