P2
16 16
255
255 255 255 255 255 255 255 255 255 255 255 255 255 255 255 255 
255 255 255 255 255 255 255 255 255 255 255 255 255 255 255 255 
255 255 255 244 231 229 235 249 255 255 255 255 255 255 255 255 
255 245 206 179 170 169 172 187 169 97 88 89 89 89 91 173 
243 189 148 77 64 65 65 65 56 18 10 10 10 10 10 63 
190 166 121 22 21 23 21 21 24 23 12 10 11 11 10 59 
164 166 120 22 22 24 21 22 26 24 16 11 11 11 10 60 
163 166 120 23 26 33 25 18 18 18 18 13 12 13 11 59 
163 166 120 23 49 75 41 18 18 18 18 12 11 12 11 60 
163 166 120 23 33 46 32 20 23 23 19 11 10 10 10 58 
163 166 120 23 21 24 24 21 25 25 24 19 18 18 19 91 
178 165 120 22 19 21 19 18 18 19 103 213 209 209 210 237 
231 178 119 22 24 25 23 21 22 69 232 255 255 255 255 255 
255 237 146 27 21 20 21 32 99 231 255 255 255 255 255 255 
255 255 243 169 126 122 132 192 252 255 255 255 255 255 255 255 
255 255 255 255 255 255 255 255 255 255 255 255 255 255 255 255 
