P2
16 16
255
255 255 255 255 255 255 255 255 255 255 255 255 255 255 255 255 
255 255 255 255 255 255 255 255 255 255 255 255 255 255 255 255 
255 255 254 245 236 238 234 249 255 255 255 255 255 255 255 255 
255 245 208 186 179 174 193 205 173 101 90 93 92 91 97 177 
252 206 149 79 79 69 67 66 62 21 13 13 13 13 13 79 
188 175 130 26 23 25 23 24 26 24 16 14 14 14 14 78 
163 168 127 26 24 26 24 25 28 27 19 14 14 14 14 79 
174 165 119 26 29 36 28 21 21 21 21 16 15 16 14 79 
178 153 125 26 51 74 43 21 21 21 21 16 14 14 14 78 
166 172 124 26 34 47 34 23 25 25 22 14 13 13 13 76 
167 174 125 26 23 26 26 24 28 26 26 24 24 24 24 103 
189 169 131 26 22 23 22 21 21 22 107 208 205 205 204 237 
246 184 116 25 26 27 25 24 24 74 234 255 255 255 255 255 
254 248 168 30 23 23 24 36 102 231 255 255 255 255 255 255 
255 255 243 169 127 117 137 195 253 255 255 255 255 255 255 255 
255 255 255 255 255 255 255 255 255 255 255 255 255 255 255 255 
