P2
16 16
255
255 255 255 255 255 255 255 255 255 255 255 255 255 255 255 255 
255 255 255 255 255 255 255 255 255 255 255 255 255 255 255 255 
255 255 255 245 233 230 236 250 255 255 255 255 255 255 255 255 
255 246 209 184 175 174 177 193 172 101 93 94 94 93 96 173 
243 193 154 90 80 81 81 81 71 25 14 14 14 14 14 68 
194 171 130 36 34 35 33 34 37 35 18 15 15 15 15 65 
169 171 129 36 35 37 34 35 39 38 25 15 15 15 15 66 
169 171 129 36 37 42 36 31 31 31 30 18 16 18 16 65 
169 171 129 36 53 75 50 31 31 31 30 17 15 16 15 66 
169 171 129 36 41 51 41 33 35 36 31 16 14 14 14 64 
168 171 129 36 34 36 36 34 37 37 35 24 22 22 22 94 
182 171 129 36 32 33 32 31 31 32 117 209 205 205 206 237 
232 183 128 36 36 36 35 34 35 84 235 255 255 255 255 255 
255 239 155 42 34 33 34 45 110 232 255 255 255 255 255 255 
255 255 245 178 138 135 143 197 251 255 255 255 255 255 255 255 
255 255 255 255 255 255 255 255 255 255 255 255 255 255 255 255 
