P2
16 16
255
201 209 239 239 239 240 241 240 239 239 239 239 239 239 239 239 
173 222 240 239 239 225 213 215 238 239 239 239 239 239 239 239 
203 230 239 239 239 212 185 199 238 239 239 237 236 239 239 239 
164 233 240 239 239 240 241 240 239 239 239 235 235 239 239 239 
216 223 228 239 239 239 239 239 239 239 239 239 239 239 239 239 
160 157 183 240 236 211 236 239 239 239 239 239 239 238 237 238 
205 233 237 239 237 219 233 239 239 239 239 239 239 237 222 237 
184 236 239 239 239 240 240 239 240 239 240 240 240 239 239 239 
198 238 239 239 239 225 220 223 218 225 217 222 220 222 218 223 
202 240 240 239 239 214 197 207 200 204 201 204 201 203 201 205 
171 172 196 240 240 209 223 237 235 235 236 235 235 235 235 235 
192 203 221 239 239 213 201 206 206 206 206 206 206 206 206 206 
160 190 240 239 238 228 219 219 219 219 219 219 219 219 219 219 
207 218 239 239 239 238 239 239 239 239 239 239 239 239 239 239 
155 184 240 239 239 237 238 239 239 239 239 239 239 239 239 239 
224 230 239 239 239 239 239 239 239 239 239 239 239 239 239 239 
