P2
16 16
255
209 209 209 209 209 209 209 209 209 209 209 209 209 209 208 208 
224 224 224 224 224 224 224 224 224 224 224 224 223 239 243 242 
244 244 244 244 244 244 244 244 244 244 244 244 230 240 249 249 
248 248 248 248 248 248 248 248 248 248 248 248 224 239 249 248 
232 232 232 232 232 232 232 232 232 232 233 230 215 242 248 248 
225 226 225 225 225 225 225 225 225 225 225 225 226 226 226 226 
242 232 241 246 241 237 243 246 246 246 246 246 246 246 246 246 
193 91 124 138 136 116 217 250 248 248 248 248 248 248 248 248 
234 202 206 199 212 209 240 249 248 248 248 248 248 248 248 248 
243 221 225 240 227 222 244 249 248 248 248 248 248 248 248 248 
210 109 113 134 127 111 218 250 248 248 248 248 248 248 248 248 
244 232 232 230 233 233 246 249 248 248 248 248 248 248 248 248 
245 213 197 221 209 193 237 249 248 248 248 248 248 248 248 248 
240 159 116 140 157 122 218 250 248 248 248 248 248 248 248 248 
249 250 247 246 248 245 248 248 248 248 248 248 248 248 248 248 
221 159 192 219 231 249 248 248 248 248 248 248 248 248 248 248 
