P2
16 16
255
163 190 217 245 244 244 244 244 244 244 244 244 244 244 241 176 
148 161 164 165 167 168 168 168 168 168 168 168 168 165 163 152 
125 101 106 105 128 151 150 150 150 150 150 150 150 117 111 132 
150 164 162 162 168 172 172 172 172 172 172 172 172 166 168 158 
161 151 118 115 144 158 157 157 157 157 157 157 157 157 169 170 
163 207 203 205 210 212 212 212 212 212 212 212 212 212 218 176 
164 193 229 254 253 252 253 253 253 253 253 253 253 253 250 179 
164 199 225 252 250 250 250 250 250 250 250 250 250 251 248 179 
164 203 231 252 250 250 250 250 250 250 250 250 250 251 248 179 
163 199 233 251 250 250 250 250 250 250 250 250 250 251 248 179 
163 196 237 251 250 250 250 250 250 250 250 250 250 251 248 179 
162 205 241 251 250 250 250 250 250 250 250 250 250 251 248 179 
162 213 245 251 250 250 250 250 250 250 250 250 250 251 248 179 
163 197 229 252 250 250 250 250 250 250 250 250 250 251 248 179 
164 200 230 252 250 250 250 250 250 250 250 250 250 251 248 179 
164 212 238 251 250 250 250 250 250 250 250 250 250 251 248 179 
