P2
16 16
255
238 221 233 252 252 252 252 252 252 252 252 252 252 252 251 239 
232 232 233 234 235 236 236 236 236 236 236 236 236 233 232 231 
214 187 190 188 210 231 230 230 230 230 230 230 231 197 193 211 
233 232 231 232 236 239 239 239 239 239 239 239 239 234 235 233 
239 226 212 211 229 234 234 234 234 234 234 234 234 234 238 238 
239 244 243 243 247 248 247 247 247 247 247 247 247 247 247 238 
238 215 238 254 253 253 253 253 253 253 253 253 253 253 253 239 
238 218 235 254 253 253 253 253 253 253 253 253 253 253 252 239 
238 220 238 254 253 253 253 253 253 253 253 253 253 253 252 239 
238 218 239 253 253 253 253 253 253 253 253 253 253 253 252 239 
238 220 242 253 253 253 253 253 253 253 253 253 253 253 252 239 
238 229 246 253 253 253 253 253 253 253 253 253 253 253 252 239 
237 229 249 253 253 253 253 253 253 253 253 253 253 253 252 239 
238 218 236 254 253 253 253 253 253 253 253 253 253 253 252 239 
238 217 235 254 253 253 253 253 253 253 253 253 253 253 252 239 
238 226 242 253 253 253 253 253 253 253 253 253 253 253 252 239 
