P2
16 16
255
204 204 205 203 204 204 204 205 204 205 204 203 205 204 204 205 
237 237 242 240 241 238 233 242 240 238 238 236 230 238 240 242 
253 253 255 255 254 253 252 254 255 253 253 253 246 247 247 247 
254 254 254 254 254 254 254 254 254 254 254 253 236 244 246 246 
228 229 230 229 227 230 232 229 229 227 230 229 205 241 246 245 
224 225 223 225 221 225 226 222 225 221 224 226 222 226 222 224 
248 237 248 253 246 242 250 252 252 252 252 252 252 252 252 252 
197 92 127 140 135 114 223 255 255 255 255 255 255 255 255 255 
239 204 209 198 214 211 247 255 255 255 255 255 255 255 255 255 
249 223 227 245 233 228 251 255 255 255 255 255 255 255 255 255 
215 107 110 134 130 111 223 255 255 255 255 255 255 255 255 255 
251 238 237 236 239 238 252 255 255 255 255 255 255 255 255 255 
251 213 203 225 214 199 243 255 255 255 255 255 255 255 255 255 
242 154 120 142 161 124 224 255 255 255 255 255 255 255 255 255 
255 255 254 253 255 253 255 255 255 255 255 255 255 255 255 255 
227 163 196 222 235 255 255 255 255 255 255 255 255 255 255 255 
