P2
16 16
255
208 213 243 243 243 241 241 241 239 239 239 239 239 239 239 239 
174 225 244 243 243 224 210 214 236 236 236 236 236 236 236 236 
205 234 243 243 244 214 186 201 239 240 240 238 236 240 240 240 
165 237 244 243 242 238 238 238 236 236 236 235 233 236 236 236 
217 228 232 243 242 232 238 238 238 238 238 238 238 238 239 243 
161 161 184 244 240 208 230 238 238 238 238 238 238 237 232 241 
208 237 240 243 240 213 231 235 235 235 235 235 235 234 226 242 
186 240 243 243 242 238 242 242 242 242 242 242 242 242 242 244 
197 242 243 243 243 233 230 230 230 230 230 230 230 230 230 230 
201 244 244 243 242 210 208 211 211 211 211 211 211 211 211 211 
177 172 199 244 243 211 229 240 240 240 240 240 240 240 240 240 
197 207 225 243 242 207 210 216 216 216 216 216 216 216 216 216 
160 193 244 243 242 224 219 219 219 219 219 219 219 219 219 219 
211 223 243 243 242 231 238 239 239 239 239 239 239 239 239 239 
155 188 244 243 241 218 234 237 237 237 237 237 237 237 237 237 
227 236 243 243 241 219 240 243 243 243 243 243 243 243 243 243 
