P2
16 16
255
224 224 224 224 224 224 224 224 224 224 224 224 224 224 224 224 
247 247 247 247 247 247 247 247 247 247 247 247 247 246 246 246 
255 255 255 255 255 255 255 255 255 255 255 255 254 251 251 251 
255 255 255 255 255 255 255 255 255 255 255 254 244 249 251 251 
251 251 251 251 251 251 251 251 251 251 251 249 236 249 250 250 
238 238 237 237 237 238 237 237 237 237 237 237 238 237 237 237 
249 240 249 253 249 246 251 253 253 253 253 253 253 253 253 253 
194 96 163 174 171 153 228 255 255 255 255 255 255 255 255 255 
238 205 225 218 228 223 248 255 255 255 255 255 255 255 255 255 
254 242 237 249 238 234 251 255 255 255 255 255 255 255 255 255 
238 170 147 168 165 151 233 255 255 255 255 255 255 255 255 255 
253 245 241 240 244 244 253 255 255 255 255 255 255 255 255 255 
254 231 221 238 230 220 248 255 255 255 255 255 255 255 255 255 
252 195 154 172 192 166 235 255 255 255 255 255 255 255 255 255 
255 255 253 252 254 252 254 255 255 255 255 255 255 255 255 255 
225 164 208 229 238 255 255 255 255 255 255 255 255 255 255 255 
