P2
16 16
255
222 227 247 247 247 248 248 248 247 247 247 247 247 247 247 247 
201 236 248 247 247 237 227 229 246 247 247 247 247 247 247 247 
222 241 247 247 247 227 206 216 246 247 247 246 245 247 247 247 
191 242 247 247 247 248 248 248 247 247 247 245 245 247 247 247 
231 236 239 247 247 247 247 247 247 247 247 247 247 247 247 247 
188 187 205 248 245 230 246 247 247 247 247 247 247 247 246 247 
222 243 245 247 246 237 246 247 247 247 247 247 247 246 239 247 
206 245 247 247 247 248 247 247 247 247 247 247 247 247 247 247 
217 246 247 247 247 240 236 236 236 236 236 236 236 236 236 236 
219 248 248 247 247 235 225 226 226 226 226 226 226 226 226 226 
199 198 213 248 247 233 239 245 245 245 245 245 245 245 245 245 
215 222 233 247 247 234 229 232 231 231 231 231 231 231 231 231 
189 210 248 247 247 241 238 238 238 238 238 238 238 238 238 238 
223 232 247 247 247 247 247 247 247 247 247 247 247 247 247 247 
184 207 248 247 247 247 247 247 247 247 247 247 247 247 247 247 
237 241 247 247 247 247 247 247 247 247 247 247 247 247 247 247 
