P2
16 16
255
164 187 209 232 231 231 231 231 231 231 231 231 231 231 229 166 
141 152 154 155 155 156 156 156 156 156 156 156 156 154 153 141 
123 103 104 104 119 136 135 135 135 135 135 135 135 109 111 125 
144 160 159 160 164 167 166 166 166 166 166 166 166 161 165 149 
160 150 116 117 138 144 144 144 144 144 144 144 144 143 161 162 
162 201 191 192 196 197 197 197 197 197 197 197 197 197 206 166 
163 195 222 240 239 239 239 239 239 239 239 239 239 239 236 166 
163 207 220 238 237 237 237 237 237 237 237 237 237 237 235 168 
162 203 223 238 237 237 237 237 237 237 237 237 237 237 235 169 
162 197 222 238 237 237 237 237 237 237 237 237 237 237 235 169 
163 200 226 238 237 237 237 237 237 237 237 237 237 237 234 166 
163 206 230 238 237 237 237 237 237 237 237 237 237 237 234 166 
162 209 233 237 237 237 237 237 237 237 237 237 237 237 235 169 
163 194 221 238 237 237 237 237 237 237 237 237 237 237 234 166 
163 202 223 238 237 237 237 237 237 237 237 237 237 237 235 167 
163 216 230 238 237 237 237 237 237 237 237 237 237 237 235 168 
