P2
16 16
255
199 198 198 199 192 190 201 208 208 208 208 208 208 208 201 206 
71 69 70 65 62 59 69 71 72 73 71 71 72 71 67 71 
1 1 0 0 0 1 1 1 1 1 1 1 0 0 0 0 
9 6 2 0 0 1 1 1 1 1 1 0 0 0 0 0 
37 26 14 4 0 0 0 0 0 0 0 0 0 0 0 0 
89 67 32 13 2 0 0 0 0 0 0 0 0 0 0 0 
124 95 55 21 4 0 0 0 0 0 0 0 0 0 0 0 
132 100 57 21 5 0 0 0 1 0 0 0 0 0 0 0 
104 77 36 16 2 0 0 1 3 0 0 0 0 0 0 0 
51 36 19 7 1 0 0 0 0 0 0 0 0 0 0 0 
16 12 5 1 0 0 0 0 0 0 0 0 0 0 0 0 
1 1 0 0 0 0 0 0 0 0 0 0 0 0 0 0 
23 25 27 26 25 25 26 27 25 23 23 25 26 24 24 26 
168 199 217 216 179 183 210 219 198 161 164 197 211 164 170 207 
211 213 215 219 212 210 215 219 218 214 216 219 219 212 210 214 
217 219 220 220 217 217 219 220 220 220 220 220 219 217 217 218 
