P2
16 16
255
190 189 189 188 184 184 191 188 188 188 188 188 188 187 183 186 
71 70 70 70 67 66 72 70 70 70 70 70 70 70 67 69 
1 1 0 0 0 1 1 1 1 1 1 0 0 0 0 0 
9 6 2 0 0 0 0 0 0 0 0 0 0 0 0 0 
33 24 14 4 0 0 0 0 0 0 0 0 0 0 0 0 
79 57 30 13 2 0 0 0 0 0 0 0 0 0 0 0 
122 87 47 20 4 0 0 0 0 0 0 0 0 0 0 0 
134 89 50 22 5 0 0 0 0 0 0 0 0 0 0 0 
92 68 35 15 2 0 0 1 2 0 0 0 0 0 0 0 
46 32 19 6 1 0 0 0 0 0 0 0 0 0 0 0 
15 11 5 1 0 0 0 0 0 0 0 0 0 0 0 0 
1 1 0 0 0 0 0 0 0 0 0 0 0 0 0 0 
24 26 27 27 25 25 27 27 25 23 24 26 26 23 24 26 
177 209 232 231 188 188 224 234 207 162 166 206 225 166 173 216 
215 221 225 234 218 214 225 234 230 222 228 234 234 217 214 221 
231 236 236 236 229 227 235 237 236 236 237 237 236 231 228 233 
