P2
16 16
255
181 180 180 180 179 180 184 186 186 186 186 186 186 185 179 184 
69 68 68 68 65 65 70 70 69 69 69 70 70 70 66 69 
1 1 0 0 0 1 1 1 1 1 1 0 0 0 0 0 
9 6 2 0 0 0 0 0 0 0 0 0 0 0 0 0 
33 24 13 4 0 0 0 0 0 0 0 0 0 0 0 0 
79 57 30 13 2 0 0 0 0 0 0 0 0 0 0 0 
117 86 46 20 4 0 0 0 0 0 0 0 0 0 0 0 
130 89 50 21 4 0 0 0 0 0 0 0 0 0 0 0 
91 69 34 15 2 0 0 1 2 0 0 0 0 0 0 0 
46 32 18 6 1 0 0 0 0 0 0 0 0 0 0 0 
15 11 5 1 0 0 0 0 0 0 0 0 0 0 0 0 
1 1 0 0 0 0 0 0 0 0 0 0 0 0 0 0 
23 25 27 27 24 24 26 27 25 23 23 25 26 23 24 26 
172 206 228 227 182 184 220 230 204 159 164 200 221 164 171 213 
211 217 221 230 215 210 221 230 226 219 224 229 229 212 210 217 
226 232 232 232 225 224 231 233 232 232 233 233 231 226 224 229 
