P2
64 64
255
1 1 2 2 2 1 1 1 1 1 1 1 1 1 1 1 1 1 1 1 1 1 1 1 1 1 1 1 2 1 1 1 1 1 1 1 1 1 1 1 1 1 1 1 1 1 1 2 2 1 1 1 1 1 1 1 1 1 1 1 1 1 1 1 
1 1 1 1 1 1 1 1 1 1 1 1 1 1 2 1 1 1 1 1 1 1 1 1 1 1 1 1 1 1 1 1 1 1 1 1 1 1 2 1 1 1 1 1 1 1 1 2 1 1 1 1 1 1 1 1 1 1 1 1 1 1 1 1 
1 1 2 1 1 1 1 1 1 1 1 1 1 2 2 1 1 1 1 1 1 1 1 1 1 1 1 2 2 2 2 2 1 1 1 1 1 1 1 1 1 2 1 1 1 1 1 1 1 1 1 1 1 1 1 1 1 1 1 1 1 1 1 1 
1 2 2 1 1 1 1 1 1 1 1 1 1 2 2 1 1 1 1 1 2 2 1 1 2 3 6 6 6 5 5 3 3 4 3 1 1 1 1 1 1 1 1 1 1 1 1 1 1 1 1 1 1 1 1 1 1 2 1 1 1 1 1 1 
2 2 1 1 1 1 1 1 1 1 1 1 1 1 2 1 1 1 2 2 1 1 3 7 8 6 5 5 4 3 3 3 4 5 5 5 3 1 1 1 1 1 1 1 1 1 1 1 1 2 2 2 1 1 1 1 2 1 1 1 1 1 1 1 
2 2 1 1 1 1 1 1 1 1 1 1 1 1 1 1 2 2 1 2 4 8 9 8 7 7 6 4 3 2 2 4 3 3 4 6 6 5 5 5 3 1 1 1 1 1 1 1 1 2 2 2 1 1 1 2 1 1 1 1 1 1 1 1 
1 1 1 1 2 2 1 1 1 1 1 1 1 1 1 1 1 1 3 14 11 6 5 5 7 4 3 3 3 2 3 3 2 4 6 6 4 5 8 6 9 7 4 2 1 1 1 1 2 2 2 2 2 1 2 2 2 1 1 1 1 1 1 1 
1 1 1 1 1 1 1 1 1 1 1 1 1 1 1 1 1 3 15 12 5 4 4 5 6 3 3 3 4 3 4 3 4 5 7 10 6 5 8 6 6 9 12 8 5 2 1 2 2 2 2 2 2 2 2 2 2 1 1 2 2 1 1 1 
1 1 1 2 1 1 1 1 1 1 1 1 1 1 1 1 4 14 12 6 4 4 5 4 4 3 6 5 4 3 3 4 5 5 5 5 7 5 5 9 7 8 10 12 16 11 2 2 2 2 2 2 2 2 2 2 2 2 2 2 2 1 1 2 
1 1 2 2 1 1 1 1 1 1 1 1 1 1 1 6 15 14 11 4 4 4 4 5 4 8 5 3 3 4 4 5 5 6 6 6 7 4 3 9 18 17 12 10 16 17 5 2 2 2 2 2 2 2 2 2 2 2 2 2 2 1 1 2 
1 2 2 1 1 1 1 1 1 1 1 1 1 1 7 17 14 15 5 5 5 3 5 5 4 4 3 5 6 4 7 7 8 9 7 7 8 6 4 5 16 22 21 15 13 17 18 4 2 2 2 2 2 2 2 2 2 2 2 2 2 1 1 2 
2 2 2 1 1 1 1 1 1 1 1 1 1 4 16 12 17 10 4 6 4 4 6 6 5 7 7 8 8 11 12 12 10 7 12 14 9 13 9 5 7 13 14 17 15 11 16 14 3 2 2 2 2 1 1 2 2 2 2 2 2 2 1 2 
2 2 2 2 1 2 2 1 1 1 1 1 2 9 14 15 13 8 7 9 7 8 12 9 9 12 10 15 20 22 18 22 12 17 32 24 17 31 27 14 7 9 9 9 13 11 10 14 8 2 2 2 1 1 1 1 1 2 2 2 2 2 1 2 
2 2 2 2 2 2 2 1 1 1 1 2 4 16 15 14 14 9 11 10 15 19 17 16 15 14 22 27 40 31 33 22 28 47 50 39 36 49 52 40 21 12 9 8 12 11 11 10 10 4 2 2 2 1 1 2 1 2 2 2 2 2 2 2 
2 2 2 2 2 2 2 2 1 1 2 2 8 18 11 12 19 18 11 16 23 18 19 28 20 28 31 42 50 43 39 28 55 63 71 63 57 60 65 61 47 23 15 7 7 8 8 10 10 5 1 2 2 2 2 2 1 1 2 2 2 2 2 2 
2 2 2 2 2 2 2 2 1 2 2 2 12 14 7 9 17 16 14 16 22 20 15 21 20 36 48 62 51 56 39 65 78 89 86 83 71 72 80 73 67 44 21 6 5 7 7 8 9 5 2 2 2 2 2 2 2 1 2 2 2 2 2 2 
2 2 2 2 2 2 2 2 2 2 1 3 13 10 5 9 13 9 10 15 30 12 15 13 28 61 79 79 68 54 66 94 99 105 97 99 88 81 86 86 76 61 37 10 4 6 8 6 6 7 2 2 2 2 2 2 2 1 2 2 2 2 2 2 
2 2 2 2 2 2 2 2 2 2 2 4 11 5 5 8 6 5 12 30 20 13 14 28 73 95 104 93 66 67 103 116 120 116 108 107 107 95 92 86 77 68 58 24 5 6 6 6 6 6 2 2 2 2 2 2 2 2 2 2 3 2 2 2 
2 2 2 2 2 2 2 2 2 2 2 5 7 3 5 4 4 11 37 64 31 35 52 95 115 118 111 104 88 102 116 124 123 118 109 114 114 104 94 88 78 71 69 45 9 6 5 5 7 6 3 2 2 2 2 2 2 2 2 3 2 2 2 2 
2 2 2 2 2 2 2 2 2 2 2 6 5 3 4 5 7 30 58 79 74 88 106 114 117 132 125 131 123 119 122 126 123 117 114 114 110 107 98 86 77 73 70 56 20 5 7 4 7 7 3 2 2 2 2 2 2 2 2 2 2 2 2 2 
2 2 3 3 2 2 2 2 2 2 2 6 4 2 4 8 8 42 57 77 85 91 100 107 115 133 134 138 133 128 127 124 121 117 115 111 109 104 90 82 79 76 68 56 30 5 8 7 6 7 3 2 3 2 2 2 2 2 2 2 2 2 2 2 
2 2 3 2 2 2 2 2 2 2 2 5 4 2 4 8 9 45 53 71 83 89 101 106 109 118 127 129 129 125 121 119 118 115 112 109 103 95 88 83 81 78 69 55 38 5 5 9 7 7 3 2 3 2 2 2 2 2 2 2 3 2 2 2 
2 2 2 2 2 2 3 2 2 2 2 5 4 2 4 7 9 45 53 63 85 92 98 104 106 109 115 122 126 124 117 117 118 117 115 106 102 101 93 88 86 80 68 55 46 7 4 8 8 7 2 2 3 2 2 2 2 2 2 2 2 2 2 2 
2 2 2 2 2 2 3 2 2 2 2 4 5 2 4 5 9 42 54 60 76 93 98 102 107 111 116 123 125 124 115 117 120 119 116 110 107 107 99 95 93 83 72 57 52 13 3 6 6 6 2 2 2 2 2 2 2 2 2 2 3 2 2 2 
2 2 2 2 2 2 2 2 2 2 2 3 5 3 4 3 6 34 54 63 71 87 96 104 111 117 125 128 128 123 120 118 119 122 120 119 119 115 111 103 98 89 77 59 55 20 2 5 5 6 3 2 2 2 2 2 3 2 2 2 2 2 2 2 
3 2 2 2 2 2 2 2 2 2 2 2 5 3 3 3 4 31 56 63 76 87 93 104 116 124 132 135 132 127 120 115 117 122 122 120 117 113 109 103 96 87 78 63 57 30 2 4 4 5 3 2 2 2 2 3 2 2 2 2 2 2 2 2 
2 2 2 3 2 2 2 2 2 2 2 2 5 3 2 2 4 33 59 61 75 90 101 103 109 119 122 121 114 115 113 108 111 115 110 106 103 97 80 62 44 36 45 54 57 41 3 4 7 7 2 2 2 2 2 2 2 2 2 2 2 2 2 2 
2 3 2 3 2 2 2 2 2 2 2 2 4 3 2 2 4 39 59 62 77 88 83 83 79 83 93 98 96 98 99 103 106 98 94 86 60 30 20 17 20 27 31 37 54 54 7 5 23 7 2 2 2 2 2 2 3 2 2 2 2 2 2 2 
2 3 3 3 2 2 3 2 2 2 2 2 2 6 3 2 4 41 61 62 69 51 41 36 21 19 19 33 50 73 86 99 96 80 66 38 15 7 9 13 21 34 43 42 45 60 18 14 42 10 2 3 3 2 2 2 2 2 2 2 3 2 2 2 
2 2 2 2 2 2 2 2 2 2 2 2 2 11 11 3 2 40 64 64 48 28 28 22 16 11 7 10 19 34 68 105 98 79 41 18 12 10 5 2 6 11 17 36 48 57 32 26 53 20 2 3 3 2 2 2 2 2 2 2 2 2 2 2 
2 2 3 2 2 2 2 2 2 2 2 2 2 10 24 5 3 37 67 58 40 39 35 17 10 8 10 14 18 19 58 120 118 92 37 16 11 20 11 5 21 28 19 38 52 58 43 21 55 35 3 3 3 2 2 2 2 2 2 2 2 2 2 2 
2 2 2 2 2 2 2 2 2 2 2 2 2 8 51 16 3 39 63 54 42 33 11 10 4 3 24 23 23 29 51 102 120 88 44 32 25 35 48 52 58 63 69 73 69 64 50 28 49 45 3 2 3 2 2 2 2 2 2 2 2 2 2 2 
3 2 2 2 2 2 2 2 2 2 2 2 2 4 59 42 7 40 61 70 64 29 22 47 34 26 52 49 51 62 63 94 119 93 53 67 65 61 71 71 66 65 75 90 83 67 54 46 52 46 3 2 2 2 2 2 2 2 2 2 2 2 2 2 
2 2 2 2 2 2 3 2 2 2 2 2 2 2 49 61 26 36 61 67 74 80 77 73 81 80 74 80 78 81 71 100 122 97 55 64 88 95 92 90 89 94 103 101 84 72 51 48 56 39 2 2 3 2 2 2 2 2 2 2 2 2 2 2 
2 2 2 2 2 2 2 2 2 2 2 2 3 1 36 96 73 47 58 79 89 92 93 80 73 77 87 93 92 77 69 90 126 100 63 62 72 90 104 117 117 118 116 99 83 71 52 47 55 21 2 2 2 2 2 2 3 2 2 2 2 2 2 2 
2 2 3 2 2 2 2 2 2 2 2 2 3 1 29 94 79 49 48 83 87 102 107 102 101 101 105 112 100 70 76 81 130 104 64 65 75 93 107 117 122 119 112 105 91 70 54 57 51 7 2 2 2 2 2 2 3 2 2 2 2 2 2 2 
2 2 3 3 2 2 2 2 2 2 2 2 2 1 16 69 66 49 39 70 88 107 113 114 117 122 124 124 106 83 78 80 124 107 69 64 63 78 97 108 111 108 102 95 81 68 50 55 44 2 2 3 2 2 2 2 2 2 2 2 2 2 2 2 
3 2 3 3 2 2 2 2 2 2 2 2 2 2 4 55 72 67 36 73 93 102 115 128 133 126 125 124 103 80 78 87 125 118 88 71 77 61 57 59 83 94 90 82 67 59 47 57 33 2 2 3 3 2 2 2 2 2 2 2 2 2 2 2 
2 2 3 3 2 2 2 2 2 2 2 2 2 3 1 18 90 79 40 71 84 94 106 115 114 107 97 66 63 84 80 92 128 117 105 80 81 56 50 44 35 54 70 64 55 50 42 38 7 2 2 3 3 3 2 2 2 2 2 2 2 2 2 2 
2 2 3 3 2 2 2 2 2 2 2 2 2 2 2 3 61 91 52 61 70 82 93 95 87 76 40 43 55 74 75 94 116 108 93 62 46 36 51 63 44 30 40 53 46 49 30 1 1 2 2 2 3 2 2 2 2 2 2 2 2 2 2 2 
3 2 3 2 2 2 2 2 2 2 2 2 2 2 2 2 13 47 42 54 52 66 77 75 64 31 28 67 70 33 22 34 65 71 53 25 19 36 54 63 67 59 29 43 47 51 25 1 2 2 2 2 2 2 2 2 2 2 2 2 2 2 2 2 
2 2 2 2 2 2 2 2 2 2 2 2 2 2 2 2 2 1 17 62 42 50 56 51 29 23 56 71 73 55 22 13 18 28 21 20 35 51 61 63 43 37 36 58 48 50 16 1 2 2 2 2 3 2 2 2 2 2 2 2 2 2 2 2 
3 2 2 2 2 2 2 2 2 2 2 2 2 2 2 2 3 2 11 62 51 44 48 29 32 61 73 77 83 86 78 52 33 25 23 29 34 35 22 8 21 52 55 82 45 47 6 1 2 2 2 2 2 2 2 2 2 2 2 2 2 2 2 2 
3 3 3 3 2 2 2 2 2 2 2 2 2 2 2 2 2 2 3 41 67 44 53 29 36 31 29 39 44 39 37 36 34 29 27 26 29 43 6 4 61 57 83 64 45 30 1 2 3 3 2 2 3 2 2 2 2 2 2 2 2 2 2 2 
3 3 3 3 2 2 2 2 2 2 2 2 2 2 2 2 2 2 2 13 68 51 54 72 38 47 28 2 8 30 35 34 49 43 58 64 79 66 15 46 64 62 88 43 49 9 1 2 3 2 2 2 2 2 2 2 2 2 2 2 2 2 2 2 
3 3 3 3 2 2 2 2 2 2 2 2 2 2 2 2 2 2 2 2 34 70 43 79 89 63 85 45 16 53 89 96 137 111 126 104 48 29 38 62 55 84 60 44 31 1 2 2 3 2 2 2 2 2 2 2 2 2 2 2 2 2 2 2 
2 3 3 2 2 2 2 2 2 2 2 2 2 2 2 2 2 2 2 2 5 52 60 45 91 81 66 85 62 38 49 56 77 67 57 39 34 38 52 57 65 81 44 45 6 1 2 2 2 2 2 2 2 2 2 2 2 2 2 2 2 2 2 2 
3 2 2 2 2 2 2 2 2 2 2 2 2 2 2 2 2 2 2 2 2 9 57 50 54 92 80 67 72 55 43 59 59 51 54 55 46 47 58 56 77 58 43 15 1 2 2 2 2 2 2 2 2 2 2 2 2 2 2 2 2 2 2 2 
3 2 2 2 2 2 2 2 2 2 2 2 2 2 2 2 2 2 2 2 2 3 27 48 46 63 92 75 62 61 49 53 59 58 53 44 44 53 51 70 74 47 36 3 2 2 2 2 2 2 2 2 3 2 2 2 2 2 2 2 2 2 2 2 
3 3 3 3 2 2 2 2 2 2 2 2 2 2 2 2 2 2 2 2 1 6 36 24 39 47 78 92 74 53 50 46 43 44 45 46 50 52 63 86 64 40 47 7 1 2 2 2 2 2 2 2 3 2 2 2 2 2 2 2 2 2 2 2 
3 3 3 3 2 2 2 2 2 2 2 2 2 2 2 2 2 2 2 3 2 39 46 33 23 36 52 80 99 80 60 55 53 51 55 61 65 73 95 87 53 38 47 41 5 1 2 3 2 2 2 2 2 2 2 2 2 2 2 2 2 2 2 2 
2 3 3 3 2 2 2 2 2 2 2 2 2 2 2 2 2 2 2 2 7 65 34 49 33 24 34 53 88 116 98 82 87 91 94 94 96 104 103 71 40 40 43 79 28 16 1 2 3 2 3 3 3 2 2 2 2 2 2 2 2 2 2 2 
2 2 3 3 2 2 2 2 2 2 2 2 2 2 2 2 2 2 2 1 10 78 32 54 53 36 27 33 51 93 119 107 106 109 105 103 102 102 82 48 38 43 56 120 19 30 24 1 2 3 3 3 3 2 2 2 2 2 2 2 2 2 2 2 
2 2 3 3 2 2 2 2 2 2 2 2 2 2 2 2 2 2 3 1 17 124 41 55 58 56 40 30 32 52 84 98 102 104 101 101 86 70 51 36 40 43 79 135 47 7 63 21 1 2 3 3 3 2 2 2 2 2 2 2 2 2 2 2 
2 2 2 2 2 2 2 2 2 2 2 2 2 2 2 2 2 2 2 6 76 132 82 49 64 66 62 44 31 32 43 57 66 73 72 65 52 42 37 38 43 47 112 121 95 6 35 72 20 1 2 3 3 3 2 2 2 2 2 2 2 2 2 2 
2 2 2 2 2 2 2 2 2 2 2 2 2 2 2 2 2 2 1 48 97 115 154 98 61 69 74 65 45 34 30 33 34 39 40 36 35 34 36 43 45 71 132 113 122 31 26 70 71 25 4 2 2 2 2 3 3 2 2 2 2 2 2 2 
3 2 3 2 2 2 2 2 2 2 2 2 2 2 2 2 3 1 21 93 88 123 139 171 111 67 78 82 65 43 35 29 29 30 31 31 30 33 44 48 49 105 128 116 125 59 32 75 70 74 59 48 28 9 3 1 1 2 2 2 2 2 2 2 
3 2 3 2 2 2 2 2 2 2 2 2 2 2 3 2 1 13 78 89 95 127 140 150 178 125 78 92 79 56 65 45 39 37 35 33 37 45 52 43 52 130 121 119 124 76 42 81 78 75 74 81 93 85 61 37 16 4 2 1 1 2 2 2 
3 2 3 2 2 2 2 2 2 2 2 2 2 1 1 5 20 68 79 93 100 132 144 150 158 182 136 88 90 88 81 70 59 50 45 47 52 56 45 43 123 131 122 122 123 90 57 87 84 81 81 76 86 93 100 105 100 81 53 28 14 4 1 1 
2 2 3 2 2 2 2 3 2 2 2 1 2 9 39 75 84 72 80 94 105 135 147 153 156 162 182 148 92 73 77 72 67 64 61 61 58 47 34 114 146 126 127 124 122 100 67 89 87 84 86 84 88 98 99 99 101 104 113 115 111 85 41 22 
2 2 3 2 2 2 3 2 1 2 7 24 56 90 102 84 73 77 85 96 107 136 148 155 159 162 168 183 164 88 62 72 67 66 69 63 47 30 100 158 134 132 128 125 124 110 80 94 92 90 91 90 89 100 106 106 108 108 105 106 108 113 123 121 
2 2 3 3 2 1 1 5 17 47 81 101 105 96 92 78 80 84 91 100 106 137 148 155 161 165 168 172 183 173 101 65 70 68 60 49 31 91 167 142 142 135 130 126 126 118 85 97 96 95 95 95 95 100 109 109 110 111 111 111 113 112 111 111 
2 3 3 2 2 10 36 70 91 93 95 100 98 97 92 83 88 93 96 101 103 136 150 154 160 166 170 172 176 180 182 123 69 64 60 43 94 175 153 150 146 137 131 127 133 127 95 98 96 100 99 99 100 100 105 112 113 114 116 116 116 117 119 118 
3 2 2 5 40 77 90 93 92 96 100 101 100 94 89 91 93 96 98 96 108 133 152 153 158 165 171 175 178 180 179 186 142 76 58 103 186 163 161 156 149 137 132 130 142 134 104 104 99 101 105 103 104 104 104 114 117 116 118 119 119 118 120 120 
