P2
16 16
255
255 255 255 255 255 253 224 203 124 129 237 255 255 255 255 255 
255 255 255 255 255 252 220 201 92 101 234 255 255 255 255 255 
255 255 235 225 167 141 117 114 84 103 233 255 255 255 255 255 
183 167 123 117 136 151 212 204 99 110 234 255 255 255 255 255 
146 137 189 209 245 255 255 238 143 146 240 255 253 238 185 196 
251 250 255 255 255 255 255 255 250 251 255 226 139 121 93 115 
255 255 255 255 255 255 255 240 154 142 141 142 140 130 95 115 
238 255 255 255 255 253 241 227 164 158 158 147 111 106 102 125 
231 255 255 255 255 236 130 131 227 249 255 218 102 114 204 224 
255 254 255 255 255 249 204 183 124 134 239 245 200 209 255 255 
255 255 255 255 254 255 255 231 104 113 233 255 255 255 255 255 
255 255 255 255 255 255 255 229 105 110 232 255 255 255 255 255 
255 255 255 252 175 170 242 241 161 163 242 255 255 255 255 255 
255 250 194 175 97 98 223 255 255 255 255 254 255 255 255 255 
255 245 139 118 90 102 225 255 255 255 255 255 255 255 255 255 
245 234 153 130 102 107 226 255 255 255 255 255 255 255 255 255 
