P2
16 16
255
255 255 255 255 255 255 253 251 239 240 254 255 255 255 255 255 
255 255 255 255 255 255 252 249 233 237 253 255 255 255 255 255 
255 255 253 253 245 243 239 237 233 236 253 255 255 255 255 255 
248 245 239 237 241 243 252 251 235 236 253 255 255 255 255 255 
242 239 249 251 254 255 255 253 240 241 254 255 255 254 248 249 
255 255 255 255 255 255 255 255 255 255 255 252 240 239 234 238 
255 255 255 255 255 255 255 254 243 242 242 242 242 241 234 238 
254 255 255 255 255 255 254 253 244 243 243 242 236 237 235 239 
253 255 255 255 255 254 240 239 253 255 255 251 235 238 250 252 
255 255 255 255 255 255 250 248 239 240 254 254 249 250 255 255 
255 255 255 255 255 255 255 253 235 236 253 255 255 255 255 255 
255 255 255 255 255 255 255 253 235 236 253 255 255 255 255 255 
255 255 255 255 245 246 254 254 245 245 254 255 255 255 255 255 
255 255 249 247 235 236 253 255 255 255 255 255 255 255 255 255 
255 254 241 238 234 236 253 255 255 255 255 255 255 255 255 255 
254 253 244 241 235 236 253 255 255 255 255 255 255 255 255 255 
