P2
16 16
255
252 252 252 252 252 250 221 199 117 124 234 253 252 252 252 252 
252 252 253 254 255 253 220 195 88 98 231 254 252 252 252 252 
255 255 234 222 166 148 114 109 81 105 234 253 252 252 252 252 
176 157 123 113 135 150 212 202 96 107 233 254 252 253 255 255 
139 124 187 206 242 253 255 239 137 138 238 253 251 237 192 199 
248 247 254 255 253 252 252 253 250 250 254 224 138 124 90 111 
253 253 252 252 252 252 254 238 152 141 131 139 147 135 89 109 
236 253 252 252 252 251 239 223 152 146 143 135 105 107 99 117 
229 253 252 252 253 235 127 129 229 252 255 214 95 112 204 220 
253 252 252 252 253 248 203 183 128 139 237 244 198 207 253 255 
252 252 252 252 252 253 255 230 100 106 232 254 255 255 252 252 
252 252 252 252 255 255 254 226 96 105 232 254 252 252 252 252 
252 252 255 251 174 165 240 239 159 164 241 253 252 252 252 252 
252 249 196 174 94 95 223 255 255 255 253 252 252 252 252 252 
253 246 143 116 89 98 223 254 252 252 252 252 252 252 252 252 
253 248 152 126 98 103 222 254 252 252 252 252 252 252 252 252 
